<?xml version="1.0" encoding="UTF-8"?>
<svg xmlns="http://www.w3.org/2000/svg" xmlns:xlink="http://www.w3.org/1999/xlink" width="2253" height="2253" viewBox="0 0 2253 2253">
<path fill-rule="nonzero" fill="rgb(100%, 100%, 100%)" fill-opacity="1" d="M 1.40625 2251.40625 L 2251.40625 2251.40625 L 2251.40625 1.40625 L 1.40625 1.40625 Z M 1.40625 2251.40625 "/>
<path fill-rule="nonzero" fill="rgb(0%, 68.943787%, 67.771912%)" fill-opacity="1" d="M 1.402344 0 C 1.03125 0 0.675781 0.148438 0.410156 0.410156 C 0.148438 0.679688 0 1.03125 0 1.398438 L 0 2251.40625 C 0 2252.179688 0.628906 2252.808594 1.40625 2252.808594 L 2251.410156 2252.808594 C 2251.78125 2252.808594 2252.140625 2252.660156 2252.398438 2252.398438 C 2252.660156 2252.136719 2252.808594 2251.777344 2252.808594 2251.40625 L 2252.808594 1.410156 C 2252.808594 0.628906 2252.179688 0 2251.410156 0 Z M 1.402344 0 "/>
<path fill-rule="nonzero" fill="rgb(34.104919%, 38.818359%, 43.530273%)" fill-opacity="1" d="M 1801.71875 1988.40625 L 1796.429688 1996.660156 C 1771.378906 2013.289062 1698.058594 2026.585938 1576.480469 2036.554688 C 1454.070312 2046.519531 1309.910156 2050.558594 1144.019531 2048.675781 C 985.695312 2046.042969 859.074219 2038.34375 764.152344 2025.574219 C 733.738281 2021.445312 708.683594 2016.949219 688.996094 2012.082031 L 664.171875 2004.578125 C 650.535156 1999.414062 643.636719 1994.023438 643.484375 1988.40625 C 647.625 1971.179688 704.164062 1956.84375 813.105469 1945.402344 C 922.042969 1933.960938 1058.539062 1928.023438 1222.601562 1927.585938 C 1386.660156 1928.023438 1523.160156 1933.960938 1632.101562 1945.402344 C 1741.039062 1956.84375 1797.578125 1971.179688 1801.71875 1988.40625 "/>
<path fill-rule="nonzero" fill="rgb(96.09375%, 74.804688%, 28.24707%)" fill-opacity="1" d="M 506.085938 1333.191406 C 478.964844 1362.054688 455.929688 1394.773438 438.097656 1430.136719 C 419.101562 1467.816406 405.894531 1508.605469 401.164062 1550.535156 C 396.210938 1594.410156 401.480469 1639.589844 418.144531 1680.476562 C 431.527344 1713.308594 451.265625 1743.3125 474.097656 1770.433594 C 487.957031 1786.894531 503.140625 1802.339844 520.289062 1815.339844 C 537.433594 1828.34375 556.699219 1838.71875 577.371094 1844.6875 C 592.011719 1848.914062 607.234375 1850.851562 622.480469 1850.851562 C 631.46875 1850.851562 640.464844 1850.175781 649.355469 1848.902344 C 673.332031 1845.460938 696.558594 1837.980469 719.140625 1829.226562 C 754.851562 1815.375 789.449219 1798.804688 823.738281 1781.734375 L 1043 1744.800781 L 1199.609375 1592.09375 L 1221.121094 1545.597656 L 1157.089844 1374.609375 L 931.484375 1235.761719 L 635.742188 1223.851562 Z M 506.085938 1333.191406 "/>
<path fill-rule="nonzero" fill="rgb(68.943787%, 52.146912%, 15.281677%)" fill-opacity="1" d="M 509.914062 1329.964844 L 506.085938 1333.191406 L 499.390625 1340.488281 C 492.484375 1348.75 485.933594 1357.023438 479.746094 1365.304688 L 514.445312 1500.683594 L 641.199219 1468.179688 C 648.113281 1475.496094 655.285156 1482.542969 662.71875 1489.324219 L 674.046875 1499.289062 C 681.726562 1505.792969 689.628906 1512.007812 697.761719 1517.9375 C 722.246094 1535.78125 748.371094 1550.761719 776.140625 1562.871094 C 802.082031 1574 827.546875 1582.214844 852.535156 1587.519531 C 869.574219 1591.226562 886.78125 1593.847656 904.152344 1595.382812 C 921.304688 1596.507812 933.046875 1597.074219 939.382812 1597.074219 C 941.070312 1597.074219 942.375 1597.035156 943.296875 1596.953125 L 949.082031 1452.386719 Z M 509.914062 1329.964844 "/>
<path fill-rule="nonzero" fill="rgb(5.488586%, 20.384216%, 25.488281%)" fill-opacity="1" d="M 1641.511719 1481.574219 L 1669.730469 1481.265625 L 1691.628906 1468.546875 C 1720.289062 1475.460938 1749.5 1480.128906 1778.898438 1482.488281 C 1793.949219 1483.699219 1809.050781 1484.300781 1824.140625 1484.300781 C 1846.019531 1484.300781 1867.898438 1483.035156 1889.628906 1480.5 C 1888.351562 1487.464844 1889.269531 1494.808594 1892.210938 1501.246094 C 1895.769531 1509.007812 1902.28125 1515.367188 1910.128906 1518.730469 L 1904.53125 1564.023438 C 1898.128906 1566.773438 1892.179688 1570.554688 1886.980469 1575.183594 C 1880.121094 1581.28125 1874.570312 1588.84375 1870.820312 1597.21875 C 1836.78125 1592.523438 1802.628906 1588.59375 1768.410156 1585.433594 C 1740.640625 1582.867188 1712.828125 1580.804688 1684.988281 1579.25 C 1675.230469 1570.554688 1664.859375 1562.550781 1653.980469 1555.308594 C 1647.269531 1550.84375 1640.371094 1546.671875 1633.308594 1542.804688 Z M 1641.511719 1481.574219 "/>
<path fill-rule="nonzero" fill="rgb(5.488586%, 20.384216%, 25.488281%)" fill-opacity="1" d="M 839.898438 1681.667969 C 826.375 1681.667969 812.644531 1683.960938 798.699219 1688.542969 C 784.941406 1693.34375 771.828125 1699.675781 759.355469 1707.550781 C 756.78125 1708.238281 734.917969 1723.824219 693.765625 1754.308594 C 679.609375 1763.789062 669.203125 1770.074219 662.554688 1773.164062 C 635.886719 1785.917969 611.625 1792.71875 589.773438 1793.558594 C 585.554688 1793.902344 581.273438 1794.074219 576.929688 1794.074219 C 554.453125 1794.074219 530.308594 1789.488281 504.496094 1780.3125 C 492.945312 1776.632812 480.851562 1770.949219 468.214844 1763.265625 L 468.210938 1763.269531 C 500.640625 1803.59375 533.625 1829.621094 567.15625 1841.34375 C 585.265625 1847.710938 603.921875 1850.894531 623.128906 1850.894531 C 635.613281 1850.894531 648.332031 1849.550781 661.28125 1846.859375 C 696.148438 1840.363281 750.300781 1818.65625 823.738281 1781.734375 L 853.472656 1776.722656 L 895.632812 1695.242188 C 877.476562 1686.191406 858.894531 1681.667969 839.898438 1681.667969 Z M 839.898438 1681.667969 "/>
<path fill-rule="nonzero" fill="rgb(5.488586%, 20.384216%, 25.488281%)" fill-opacity="1" d="M 895.84375 1442.316406 C 882.167969 1440.230469 869.054688 1442.148438 856.5 1448.0625 C 839.933594 1455.871094 828.125 1468.867188 821.074219 1487.050781 C 818.945312 1493.039062 817.65625 1499.054688 817.210938 1505.101562 L 817.117188 1514.09375 C 817.460938 1520.070312 818.546875 1525.863281 820.371094 1531.484375 C 826.113281 1548.894531 837.339844 1562.183594 854.054688 1571.347656 C 861.476562 1574.953125 868.867188 1577.316406 876.230469 1578.4375 C 886.574219 1580.011719 896.859375 1579.140625 907.089844 1575.816406 C 914.960938 1573.222656 921.988281 1569.511719 928.175781 1564.679688 L 928.179688 1564.683594 C 932.9375 1533.460938 937.695312 1502.242188 942.453125 1471.023438 L 942.457031 1471.027344 C 934.566406 1459.589844 923.460938 1451.09375 909.144531 1445.542969 C 904.652344 1444.058594 900.21875 1442.980469 895.84375 1442.316406 Z M 895.84375 1442.316406 "/>
<path fill-rule="nonzero" fill="rgb(5.488586%, 20.384216%, 25.488281%)" fill-opacity="1" d="M 709.222656 1424.164062 L 666.671875 1415.332031 L 624.214844 1619.789062 L 666.765625 1628.625 Z M 709.222656 1424.164062 "/>
<path fill-rule="nonzero" fill="rgb(5.488586%, 20.384216%, 25.488281%)" fill-opacity="1" d="M 907.394531 1465.390625 L 905.753906 1547.109375 L 1490.789062 1558.882812 L 1492.941406 1540.117188 L 1633.21875 1546.667969 L 1634.558594 1480.019531 Z M 907.394531 1465.390625 "/>
<path fill-rule="nonzero" fill="rgb(80.46875%, 87.109375%, 90.234375%)" fill-opacity="1" d="M 1629.378906 1480.210938 L 1642.828125 1481.070312 L 1638.609375 1547.242188 L 1625.160156 1546.386719 Z M 1629.378906 1480.210938 "/>
<path fill-rule="nonzero" fill="rgb(67.381287%, 72.851562%, 76.5625%)" fill-opacity="1" d="M 1726.71875 1492.3125 C 1726.25 1498.507812 1720.851562 1503.152344 1714.648438 1502.683594 C 1708.460938 1502.21875 1703.808594 1496.816406 1704.28125 1490.625 C 1704.75 1484.429688 1710.148438 1479.785156 1716.339844 1480.25 C 1722.539062 1480.71875 1727.179688 1486.117188 1726.71875 1492.3125 Z M 1726.71875 1492.3125 "/>
<path fill-rule="nonzero" fill="rgb(67.381287%, 72.851562%, 76.5625%)" fill-opacity="1" d="M 1719.539062 1548.570312 C 1719.070312 1554.765625 1713.679688 1559.410156 1707.480469 1558.941406 C 1701.289062 1558.476562 1696.640625 1553.078125 1697.109375 1546.882812 C 1697.570312 1540.6875 1702.96875 1536.042969 1709.171875 1536.507812 C 1715.359375 1536.976562 1720.011719 1542.375 1719.539062 1548.570312 Z M 1719.539062 1548.570312 "/>
<path fill-rule="nonzero" fill="rgb(67.381287%, 72.851562%, 76.5625%)" fill-opacity="1" d="M 1795.441406 1500.53125 C 1794.980469 1506.726562 1789.578125 1511.371094 1783.378906 1510.90625 C 1777.191406 1510.4375 1772.539062 1505.039062 1773.011719 1498.84375 C 1773.480469 1492.648438 1778.878906 1488.003906 1785.070312 1488.46875 C 1791.269531 1488.9375 1795.910156 1494.335938 1795.441406 1500.53125 Z M 1795.441406 1500.53125 "/>
<path fill-rule="nonzero" fill="rgb(67.381287%, 72.851562%, 76.5625%)" fill-opacity="1" d="M 1786.148438 1551.46875 C 1785.679688 1557.664062 1780.28125 1562.304688 1774.089844 1561.839844 C 1767.890625 1561.375 1763.25 1555.972656 1763.71875 1549.777344 C 1764.179688 1543.582031 1769.578125 1538.9375 1775.78125 1539.40625 C 1781.96875 1539.871094 1786.621094 1545.273438 1786.148438 1551.46875 Z M 1786.148438 1551.46875 "/>
<path fill-rule="nonzero" fill="rgb(67.381287%, 72.851562%, 76.5625%)" fill-opacity="1" d="M 1855.160156 1501.96875 C 1854.691406 1508.164062 1849.300781 1512.804688 1843.101562 1512.339844 C 1836.910156 1511.875 1832.261719 1506.472656 1832.730469 1500.277344 C 1833.191406 1494.082031 1838.589844 1489.4375 1844.789062 1489.90625 C 1850.980469 1490.371094 1855.628906 1495.773438 1855.160156 1501.96875 Z M 1855.160156 1501.96875 "/>
<path fill-rule="nonzero" fill="rgb(67.381287%, 72.851562%, 76.5625%)" fill-opacity="1" d="M 1847.898438 1559.835938 C 1847.429688 1566.03125 1842.039062 1570.671875 1835.839844 1570.207031 C 1829.640625 1569.742188 1825 1564.339844 1825.46875 1558.144531 C 1825.929688 1551.949219 1831.328125 1547.304688 1837.53125 1547.773438 C 1843.71875 1548.238281 1848.371094 1553.640625 1847.898438 1559.835938 Z M 1847.898438 1559.835938 "/>
<path fill-rule="nonzero" fill="rgb(80.46875%, 87.109375%, 90.234375%)" fill-opacity="1" d="M 1855.839844 1503.554688 C 1855.371094 1509.75 1849.96875 1514.394531 1843.769531 1513.929688 C 1837.578125 1513.460938 1832.929688 1508.0625 1833.398438 1501.867188 C 1833.871094 1495.671875 1839.269531 1491.027344 1845.460938 1491.492188 C 1851.660156 1491.960938 1856.300781 1497.359375 1855.839844 1503.554688 Z M 1855.839844 1503.554688 "/>
<path fill-rule="nonzero" fill="rgb(80.46875%, 87.109375%, 90.234375%)" fill-opacity="1" d="M 1796.050781 1502.277344 C 1795.578125 1508.472656 1790.179688 1513.117188 1783.980469 1512.648438 C 1777.789062 1512.183594 1773.140625 1506.78125 1773.609375 1500.585938 C 1774.078125 1494.390625 1779.480469 1489.75 1785.679688 1490.214844 C 1791.871094 1490.679688 1796.519531 1496.082031 1796.050781 1502.277344 Z M 1796.050781 1502.277344 "/>
<path fill-rule="nonzero" fill="rgb(80.46875%, 87.109375%, 90.234375%)" fill-opacity="1" d="M 1727.46875 1494.855469 C 1727.011719 1501.050781 1721.609375 1505.695312 1715.410156 1505.226562 C 1709.21875 1504.761719 1704.570312 1499.359375 1705.039062 1493.164062 C 1705.5 1486.96875 1710.910156 1482.324219 1717.101562 1482.792969 C 1723.300781 1483.257812 1727.941406 1488.660156 1727.46875 1494.855469 Z M 1727.46875 1494.855469 "/>
<path fill-rule="nonzero" fill="rgb(80.46875%, 87.109375%, 90.234375%)" fill-opacity="1" d="M 1721.96875 1548.933594 C 1721.5 1555.128906 1716.101562 1559.773438 1709.910156 1559.308594 C 1703.710938 1558.839844 1699.070312 1553.441406 1699.53125 1547.246094 C 1700 1541.050781 1705.398438 1536.40625 1711.589844 1536.875 C 1717.789062 1537.339844 1722.429688 1542.742188 1721.96875 1548.933594 Z M 1721.96875 1548.933594 "/>
<path fill-rule="nonzero" fill="rgb(80.46875%, 87.109375%, 90.234375%)" fill-opacity="1" d="M 1788.769531 1553.210938 C 1788.308594 1559.40625 1782.910156 1564.050781 1776.710938 1563.582031 C 1770.519531 1563.117188 1765.871094 1557.714844 1766.339844 1551.519531 C 1766.808594 1545.324219 1772.210938 1540.679688 1778.398438 1541.148438 C 1784.601562 1541.613281 1789.238281 1547.015625 1788.769531 1553.210938 Z M 1788.769531 1553.210938 "/>
<path fill-rule="nonzero" fill="rgb(80.46875%, 87.109375%, 90.234375%)" fill-opacity="1" d="M 1849.339844 1561.167969 C 1848.871094 1567.363281 1843.46875 1572.003906 1837.28125 1571.539062 C 1831.078125 1571.074219 1826.441406 1565.671875 1826.898438 1559.476562 C 1827.371094 1553.28125 1832.769531 1548.636719 1838.96875 1549.105469 C 1845.160156 1549.570312 1849.808594 1554.972656 1849.339844 1561.167969 Z M 1849.339844 1561.167969 "/>
<path fill-rule="nonzero" fill="rgb(80.46875%, 87.109375%, 90.234375%)" fill-opacity="1" d="M 1377.820312 1462.742188 L 1384.660156 1462.742188 L 1384.660156 1553.667969 L 1377.820312 1553.671875 Z M 1377.820312 1462.742188 "/>
<path fill-rule="nonzero" fill="rgb(80.46875%, 87.109375%, 90.234375%)" fill-opacity="1" d="M 1263.460938 1455.664062 L 1271.800781 1455.835938 L 1269.460938 1569.335938 L 1261.128906 1569.167969 Z M 1263.460938 1455.664062 "/>
<path fill-rule="nonzero" fill="rgb(80.46875%, 87.109375%, 90.234375%)" fill-opacity="1" d="M 1110.359375 1551.824219 L 1120.707031 1551.824219 L 1120.707031 1466.855469 L 1110.359375 1466.855469 Z M 1110.359375 1551.824219 "/>
<path fill-rule="nonzero" fill="rgb(80.46875%, 87.109375%, 90.234375%)" fill-opacity="1" d="M 1468.421875 1476.675781 C 1468.421875 1503.929688 1468.421875 1531.179688 1468.421875 1558.429688 C 1468.421875 1564.007812 1468.421875 1569.585938 1468.421875 1575.160156 C 1471.921875 1575.160156 1475.429688 1575.160156 1478.929688 1575.160156 C 1478.929688 1569.65625 1478.929688 1564.148438 1478.929688 1558.644531 L 1474.460938 1558.554688 L 1478.929688 1558.644531 C 1478.929688 1531.390625 1478.929688 1504.140625 1478.929688 1476.886719 Z M 1468.421875 1476.675781 "/>
<path fill-rule="nonzero" fill="rgb(80.46875%, 87.109375%, 90.234375%)" fill-opacity="1" d="M 1025.578125 1550.328125 L 1035.929688 1550.328125 L 1035.929688 1469.265625 L 1025.578125 1469.265625 Z M 1025.578125 1550.328125 "/>
<path fill-rule="nonzero" fill="rgb(80.46875%, 87.109375%, 90.234375%)" fill-opacity="1" d="M 951.261719 1465.441406 L 961.597656 1465.933594 L 957.667969 1548.289062 L 947.332031 1547.796875 Z M 951.261719 1465.441406 "/>
<path fill-rule="nonzero" fill="rgb(5.488586%, 20.384216%, 25.488281%)" fill-opacity="1" d="M 981.460938 1698.3125 C 986.597656 1691.941406 989.679688 1683.980469 990.386719 1675.828125 C 990.941406 1669.390625 990.066406 1662.890625 988.394531 1656.652344 C 986.722656 1650.414062 984.285156 1644.410156 981.941406 1638.390625 C 979.601562 1632.371094 977.351562 1626.285156 976.054688 1619.957031 C 974.757812 1613.628906 974.457031 1607.050781 975.691406 1600.710938 C 976.785156 1595.117188 979.070312 1589.757812 982.375 1585.117188 C 985.675781 1580.472656 989.964844 1576.558594 994.777344 1573.511719 C 1004.410156 1567.410156 1015.851562 1564.816406 1027.179688 1563.5625 C 1048.21875 1561.238281 1069.46875 1562 1090.640625 1561.71875 L 1136.078125 1623.953125 L 1061.171875 1751.417969 Z M 981.460938 1698.3125 "/>
<path fill-rule="nonzero" fill="rgb(5.488586%, 20.384216%, 25.488281%)" fill-opacity="1" d="M 1146.46875 1615.46875 L 1087.46875 1545 L 1189.488281 1544.890625 L 1204.148438 1595.828125 Z M 1146.46875 1615.46875 "/>
<path fill-rule="nonzero" fill="rgb(80.46875%, 87.109375%, 90.234375%)" fill-opacity="1" d="M 1200.519531 1457.765625 L 1208.859375 1457.9375 L 1206.519531 1571.4375 L 1198.191406 1571.269531 Z M 1200.519531 1457.765625 "/>
<path fill-rule="nonzero" fill="rgb(71.679688%, 10.984802%, 27.43988%)" fill-opacity="1" d="M 925.5625 1941.652344 L 928.417969 2009.820312 C 941.433594 2018.980469 956.152344 2025.714844 971.59375 2029.578125 C 981.875 2032.15625 992.476562 2033.4375 1003.078125 2033.4375 C 1015.558594 2033.4375 1028.050781 2031.660156 1040.019531 2028.109375 C 1062.148438 2021.546875 1082.460938 2008.949219 1098.179688 1992.042969 L 1141.710938 1941.617188 L 1054.230469 1857.984375 L 902.371094 1844.300781 Z M 925.5625 1941.652344 "/>
<path fill-rule="nonzero" fill="rgb(44.700623%, 11.376953%, 27.830505%)" fill-opacity="1" d="M 999.796875 1851.808594 L 996.304688 1852.765625 L 953.644531 1864.441406 L 922.378906 1928.285156 L 925.5625 1941.652344 L 928.417969 2009.820312 C 952.417969 2025.601562 977.21875 2033.492188 1002.828125 2033.492188 C 1015.039062 2033.492188 1027.441406 2031.699219 1040.019531 2028.109375 C 1053.390625 2024.835938 1068.578125 2016.761719 1085.570312 2003.886719 C 1092.808594 1997.554688 1097.019531 1993.609375 1098.179688 1992.042969 L 1141.710938 1941.617188 L 1094.769531 1896.738281 L 1092.628906 1896.511719 L 1093.820312 1903.351562 C 1095.660156 1917.300781 1094.660156 1931.050781 1090.828125 1944.605469 C 1087.140625 1955.578125 1084.578125 1962.015625 1083.140625 1963.917969 C 1078.589844 1972.382812 1073.410156 1979.644531 1067.570312 1985.695312 C 1057.488281 1996.316406 1045.671875 2004.375 1032.109375 2009.871094 C 1018.25 2014.78125 1005.789062 2017.234375 994.71875 2017.234375 C 991.515625 2017.234375 988.429688 2017.027344 985.457031 2016.617188 C 1002.148438 1980.183594 1012.410156 1953.675781 1016.238281 1937.101562 C 1020.289062 1923.316406 1020.890625 1907.488281 1018.039062 1889.617188 C 1013.929688 1873.585938 1008.269531 1861.445312 1001.058594 1853.195312 L 996.304688 1852.765625 L 1001.058594 1853.191406 C 1000.640625 1852.71875 1000.21875 1852.257812 999.796875 1851.808594 Z M 999.796875 1851.808594 "/>
<path fill-rule="nonzero" fill="rgb(71.679688%, 10.984802%, 27.43988%)" fill-opacity="1" d="M 1393.230469 1971.902344 L 1577.46875 1965.78125 C 1586.941406 1956.421875 1594.671875 1945.3125 1600.160156 1933.183594 C 1609.03125 1913.597656 1611.921875 1891.355469 1608.359375 1870.152344 C 1604.808594 1848.949219 1594.808594 1828.867188 1580.039062 1813.25 Z M 1393.230469 1971.902344 "/>
<path fill-rule="nonzero" fill="rgb(44.700623%, 11.376953%, 27.830505%)" fill-opacity="1" d="M 1580.039062 1813.25 L 1393.230469 1971.902344 L 1577.46875 1965.78125 C 1589.171875 1954.535156 1597.730469 1941.117188 1603.148438 1925.53125 L 1603.140625 1925.53125 C 1598.191406 1929.125 1592.980469 1932.394531 1587.519531 1935.339844 C 1582.601562 1937.992188 1577.539062 1940.335938 1572.339844 1942.375 L 1564.449219 1945.183594 C 1553.089844 1948.679688 1542.839844 1950.695312 1533.71875 1951.234375 C 1530.269531 1951.496094 1526.828125 1951.625 1523.390625 1951.625 C 1516.359375 1951.625 1509.351562 1951.078125 1502.359375 1949.984375 L 1486.660156 1913.503906 L 1593.011719 1830.109375 C 1589.300781 1824.253906 1584.980469 1818.636719 1580.039062 1813.25 Z M 1580.039062 1813.25 "/>
<path fill-rule="nonzero" fill="rgb(100%, 100%, 100%)" fill-opacity="1" d="M 1074.53125 2011.078125 C 1090.308594 1997.070312 1100.660156 1977.109375 1103.039062 1956.148438 C 1105.238281 1936.632812 1100.539062 1916.402344 1089.960938 1899.855469 L 1258.941406 1837.382812 L 1363.230469 1930.730469 C 1311.421875 1948.453125 1259.039062 1964.527344 1206.199219 1978.917969 C 1162.601562 1990.789062 1118.691406 2001.515625 1074.53125 2011.078125 Z M 1074.53125 2011.078125 "/>
<path fill-rule="nonzero" fill="rgb(72.459412%, 72.459412%, 72.459412%)" fill-opacity="1" d="M 1264.238281 1788.375 L 1221.710938 1851.152344 L 1220.410156 1853.066406 L 1223.828125 1853.382812 C 1242.488281 1855.601562 1258.449219 1864.558594 1271.691406 1880.261719 C 1284.078125 1897.492188 1288.851562 1915.566406 1286.011719 1934.488281 L 1093.839844 1985.84375 C 1089.921875 1992.972656 1084.761719 2000.175781 1078.359375 2007.457031 L 1074.53125 2011.078125 C 1168.929688 1990.679688 1262.679688 1964.742188 1355.78125 1933.261719 L 1356.488281 1924.691406 L 1363.441406 1840.039062 Z M 1264.238281 1788.375 "/>
<path fill-rule="nonzero" fill="rgb(97.264099%, 75.389099%, 61.521912%)" fill-opacity="1" d="M 589.4375 1400.535156 L 703.800781 1448.394531 L 765.253906 1507.671875 C 784.671875 1521.332031 804.089844 1534.988281 817.054688 1541.328125 C 825.269531 1545.34375 830.890625 1546.417969 835.5625 1546.417969 C 838.265625 1546.417969 840.648438 1546.058594 843.03125 1545.699219 L 854.441406 1552.800781 C 859.675781 1552.335938 864.90625 1551.871094 868.085938 1548.847656 C 871.261719 1545.824219 872.386719 1540.238281 873.507812 1534.652344 C 877.839844 1535.792969 882.167969 1536.933594 886.046875 1536.933594 C 886.929688 1536.933594 887.789062 1536.875 888.621094 1536.742188 C 893.097656 1536.03125 896.734375 1533.207031 898.261719 1529.375 C 899.789062 1525.542969 899.207031 1520.699219 898.621094 1515.859375 C 898.851562 1515.859375 899.085938 1515.859375 899.316406 1515.859375 C 903.5625 1515.859375 907.738281 1515.71875 910.578125 1512.902344 C 913.570312 1509.933594 915.078125 1503.988281 916.582031 1498.039062 C 922.460938 1496.777344 928.339844 1495.511719 931.726562 1493.089844 C 935.113281 1490.664062 936.003906 1487.078125 936.898438 1483.496094 C 921.9375 1474.457031 906.976562 1465.414062 893.011719 1454.964844 C 879.046875 1444.519531 866.078125 1432.660156 853.109375 1420.804688 L 784.484375 1402.417969 C 752.480469 1386.347656 720.476562 1370.273438 704.40625 1357.878906 C 688.335938 1345.484375 688.203125 1336.769531 688.066406 1328.054688 L 648.089844 1315.828125 Z M 589.4375 1400.535156 "/>
<path fill-rule="nonzero" fill="rgb(97.264099%, 75.389099%, 61.521912%)" fill-opacity="1" d="M 1393.308594 1591.453125 L 1477.828125 1583.625 C 1476.949219 1562.714844 1476.058594 1541.804688 1479.5 1529.195312 C 1482.929688 1516.585938 1490.691406 1512.273438 1498.441406 1507.960938 L 1491.359375 1478.101562 C 1493.359375 1473.855469 1495.359375 1469.609375 1500.300781 1467.777344 C 1501.449219 1467.351562 1502.75 1467.054688 1504.179688 1467.054688 C 1508.878906 1467.054688 1514.828125 1470.296875 1520.421875 1482.804688 C 1527.699219 1499.089844 1534.371094 1531.089844 1541.039062 1563.089844 C 1539.75 1533.125 1538.46875 1503.160156 1540.160156 1486.898438 C 1541.769531 1471.421875 1546.078125 1468.363281 1551.03125 1468.363281 C 1551.289062 1468.363281 1551.539062 1468.371094 1551.789062 1468.386719 C 1557.058594 1468.6875 1562.910156 1471.839844 1567.089844 1484.167969 C 1571.25 1496.5 1573.730469 1518.003906 1576.199219 1539.507812 L 1586.96875 1541.351562 C 1587.589844 1532.292969 1588.210938 1523.234375 1591.539062 1518.515625 C 1592.929688 1516.546875 1594.789062 1515.335938 1596.789062 1515.335938 C 1599.578125 1515.335938 1602.660156 1517.703125 1605.109375 1523.683594 C 1609.320312 1533.941406 1611.710938 1554.835938 1610.25 1567.765625 C 1608.789062 1580.695312 1603.488281 1585.660156 1597.640625 1589.6875 C 1591.789062 1593.71875 1585.390625 1596.8125 1568.640625 1612.230469 C 1551.898438 1627.644531 1524.800781 1655.386719 1497.699219 1683.125 C 1478.449219 1688.226562 1459.210938 1693.328125 1442.980469 1693.328125 C 1440.359375 1693.328125 1437.808594 1693.191406 1435.351562 1692.902344 C 1417.730469 1690.824219 1404.859375 1680.746094 1391.988281 1670.664062 L 1376.109375 1658.585938 Z M 1393.308594 1591.453125 "/>
<path fill-rule="nonzero" fill="rgb(93.75%, 57.617188%, 49.414062%)" fill-opacity="1" d="M 864.867188 1440.527344 C 888.207031 1457.648438 904.371094 1480.316406 913.367188 1508.527344 C 914.519531 1505.925781 915.589844 1502.429688 916.582031 1498.039062 C 918.984375 1497.726562 921.171875 1497.3125 923.148438 1496.800781 C 921.675781 1494.332031 920.136719 1491.902344 918.527344 1489.519531 C 911.652344 1479.203125 903.175781 1469.515625 893.101562 1460.460938 C 888.164062 1456.074219 882.964844 1452.019531 877.511719 1448.292969 C 870.597656 1443.796875 866.382812 1441.207031 864.867188 1440.527344 Z M 864.867188 1440.527344 "/>
<path fill-rule="nonzero" fill="rgb(93.75%, 57.617188%, 49.414062%)" fill-opacity="1" d="M 852.300781 1448.195312 C 854.136719 1456.8125 857.429688 1464.851562 862.1875 1472.3125 C 863.644531 1474.753906 866.101562 1478.109375 869.550781 1482.378906 C 879.839844 1494.269531 885.25 1500.75 885.785156 1501.824219 C 889.203125 1506.746094 891.128906 1509.78125 891.5625 1510.929688 C 893.929688 1515.425781 895.621094 1520.160156 896.640625 1525.132812 C 897.085938 1527.816406 897.375 1529.808594 897.507812 1531.109375 C 899.398438 1527.816406 899.769531 1522.734375 898.621094 1515.859375 C 899.289062 1515.894531 899.933594 1515.914062 900.558594 1515.914062 C 901.695312 1515.914062 902.757812 1515.851562 903.742188 1515.726562 C 903.546875 1515.300781 903.34375 1514.871094 903.136719 1514.433594 C 900.171875 1508.65625 896.953125 1503.613281 893.472656 1499.300781 C 891.699219 1497.035156 889.859375 1494.816406 887.949219 1492.644531 C 875.625 1479.375 868.335938 1471.289062 866.085938 1468.386719 C 860.0625 1460.832031 855.46875 1454.101562 852.300781 1448.195312 Z M 852.300781 1448.195312 "/>
<path fill-rule="nonzero" fill="rgb(93.75%, 57.617188%, 49.414062%)" fill-opacity="1" d="M 827.847656 1489.019531 L 872.070312 1540.941406 C 872.570312 1539.136719 873.050781 1537.042969 873.507812 1534.652344 C 875.332031 1535.253906 877.0625 1535.734375 878.695312 1536.097656 L 863.191406 1517.460938 L 851.179688 1502.535156 C 848.179688 1498.769531 844.710938 1495.589844 840.777344 1492.992188 C 836.953125 1490.574219 832.640625 1489.25 827.847656 1489.019531 Z M 827.847656 1489.019531 "/>
<path fill-rule="nonzero" fill="rgb(93.75%, 57.617188%, 49.414062%)" fill-opacity="1" d="M 782.140625 1485.5625 C 801.59375 1508.539062 820.539062 1528.792969 838.976562 1546.324219 C 840.339844 1546.203125 841.691406 1545.996094 843.03125 1545.699219 L 850.847656 1550.5625 L 829.472656 1526.878906 C 823.972656 1520.851562 818.273438 1515.023438 812.371094 1509.394531 C 801.425781 1499.257812 791.347656 1491.3125 782.140625 1485.5625 Z M 782.140625 1485.5625 "/>
<path fill-rule="nonzero" fill="rgb(93.75%, 57.617188%, 49.414062%)" fill-opacity="1" d="M 648.089844 1315.828125 L 589.4375 1400.535156 L 703.800781 1448.394531 L 765.253906 1507.671875 L 779.71875 1517.800781 C 797.21875 1529.984375 809.664062 1537.824219 817.054688 1541.328125 C 823.621094 1544.746094 829.964844 1546.453125 836.089844 1546.453125 C 837.058594 1546.453125 838.019531 1546.410156 838.976562 1546.324219 C 839.527344 1546.277344 840.078125 1546.210938 840.628906 1546.136719 C 841.214844 1546.050781 841.800781 1545.953125 842.386719 1545.835938 L 834.570312 1534.59375 C 807.703125 1529.476562 784.4375 1516.503906 764.769531 1495.679688 C 750.527344 1479.933594 740.753906 1461.78125 735.453125 1441.226562 L 644.363281 1388.160156 L 688.960938 1337.355469 C 688.152344 1334.332031 687.855469 1331.230469 688.066406 1328.054688 Z M 648.089844 1315.828125 "/>
<path fill-rule="nonzero" fill="rgb(93.75%, 57.617188%, 49.414062%)" fill-opacity="1" d="M 1466.25 1584.695312 L 1393.308594 1591.453125 L 1376.109375 1658.585938 C 1396.859375 1674.929688 1409.5 1684.058594 1414.019531 1685.96875 C 1422.699219 1690.871094 1432.421875 1693.324219 1443.171875 1693.324219 C 1443.621094 1693.324219 1444.070312 1693.320312 1444.53125 1693.3125 C 1444.941406 1693.324219 1445.378906 1693.332031 1445.820312 1693.332031 C 1452.949219 1693.332031 1464.410156 1691.433594 1480.210938 1687.628906 L 1507.25 1651.191406 L 1476.660156 1647.96875 C 1471.628906 1656.59375 1465.410156 1662.164062 1457.980469 1664.675781 C 1453.429688 1666.195312 1449.089844 1666.957031 1444.929688 1666.957031 C 1440.539062 1666.957031 1436.359375 1666.109375 1432.390625 1664.414062 C 1421.589844 1659.332031 1414.671875 1652.300781 1411.628906 1643.316406 C 1408.109375 1633.210938 1408.359375 1623.671875 1412.339844 1614.710938 Z M 1466.25 1584.695312 "/>
<path fill-rule="nonzero" fill="rgb(93.75%, 57.617188%, 49.414062%)" fill-opacity="1" d="M 1497.601562 1469.226562 C 1494.949219 1471.0625 1492.871094 1474.023438 1491.359375 1478.101562 L 1498.441406 1507.960938 C 1497.890625 1508.25 1497.359375 1508.535156 1496.839844 1508.824219 L 1503.25 1528.613281 L 1510.589844 1584.273438 L 1508.988281 1527.417969 L 1497.609375 1469.226562 Z M 1497.601562 1469.226562 "/>
<path fill-rule="nonzero" fill="rgb(93.75%, 57.617188%, 49.414062%)" fill-opacity="1" d="M 1565.761719 1480.652344 L 1569.171875 1572.253906 L 1579.050781 1582.667969 L 1586.5 1569.847656 L 1587.019531 1540.578125 C 1587 1540.835938 1586.980469 1541.09375 1586.96875 1541.351562 L 1576.199219 1539.507812 C 1573.339844 1511.078125 1569.980469 1491.757812 1566.121094 1481.546875 C 1566 1481.242188 1565.890625 1480.945312 1565.769531 1480.652344 Z M 1565.761719 1480.652344 "/>
<path fill-rule="nonzero" fill="rgb(5.488586%, 20.384216%, 25.488281%)" fill-opacity="1" d="M 1484.28125 1648.839844 C 1493.019531 1647.707031 1501.519531 1644.917969 1509.308594 1640.800781 C 1517.101562 1636.679688 1524.089844 1631.214844 1530.789062 1625.503906 C 1534.078125 1622.703125 1537.328125 1619.867188 1540.710938 1617.179688 C 1548.691406 1610.835938 1557.578125 1605.6875 1566.910156 1601.578125 C 1576.238281 1597.46875 1585.898438 1594.046875 1594.878906 1589.21875 C 1602.230469 1585.269531 1609.089844 1580.378906 1615.058594 1574.554688 C 1618.941406 1574.171875 1622.828125 1573.984375 1626.730469 1573.984375 C 1649.378906 1573.984375 1672.070312 1580.414062 1690.828125 1593.058594 C 1700.429688 1599.527344 1708.960938 1607.648438 1715.558594 1617.160156 C 1722.148438 1626.675781 1726.761719 1637.585938 1728.761719 1648.992188 C 1731.910156 1666.976562 1728.339844 1685.78125 1720.359375 1702.207031 C 1712.390625 1718.632812 1700.441406 1732.835938 1687.46875 1745.679688 C 1665.800781 1767.117188 1641.5 1785.703125 1617.308594 1804.242188 C 1539.320312 1864 1459.441406 1921.351562 1383.71875 1983.960938 C 1368.789062 1977.421875 1354.488281 1969.457031 1341.070312 1960.207031 C 1333.730469 1955.148438 1326.671875 1949.710938 1319.898438 1943.914062 L 1340.039062 1937.609375 C 1330.988281 1916.859375 1317.03125 1898.273438 1299.621094 1883.808594 C 1279.921875 1867.445312 1255.828125 1856.414062 1230.570312 1852.195312 C 1213.890625 1864.238281 1196.148438 1874.808594 1177.621094 1883.734375 C 1150.371094 1896.859375 1121.410156 1906.425781 1091.699219 1912.113281 C 1080.890625 1908.007812 1070.589844 1902.632812 1060.890625 1896.335938 C 1051.191406 1890.042969 1042.179688 1882.753906 1032.679688 1876.164062 C 1027.039062 1872.25 1021.148438 1868.628906 1014.75 1866.140625 C 1009.46875 1864.085938 1003.808594 1862.859375 998.152344 1862.859375 C 996.964844 1862.859375 995.777344 1862.914062 994.59375 1863.023438 C 985.335938 1863.894531 976.589844 1868.402344 970.003906 1874.964844 C 963.414062 1881.53125 958.855469 1889.859375 955.179688 1898.402344 C 949.996094 1910.464844 946.164062 1923.066406 941.292969 1935.261719 C 936.417969 1947.457031 930.640625 1959.300781 923.738281 1970.472656 C 911.351562 1975.601562 897.949219 1978.175781 884.542969 1978.175781 C 874.429688 1978.175781 864.3125 1976.710938 854.632812 1973.769531 C 832.125 1966.933594 812.285156 1952.261719 798.148438 1933.464844 C 790.3125 1923.042969 784.121094 1911.425781 779.476562 1899.242188 C 768.464844 1870.375 765.890625 1838.359375 771.914062 1808.054688 C 776.457031 1785.1875 785.914062 1763.398438 798.820312 1743.984375 C 811.726562 1724.570312 827.933594 1707.3125 846.695312 1693.476562 C 861.019531 1682.914062 876.992188 1674.40625 894.140625 1669.636719 C 904.105469 1666.863281 914.457031 1665.40625 924.796875 1665.40625 C 932.167969 1665.40625 939.53125 1666.148438 946.742188 1667.679688 C 964.074219 1671.359375 980.429688 1679.578125 993.671875 1691.351562 L 1105.261719 1709.082031 L 1298.96875 1673.117188 L 1379.25 1694.410156 L 1447.03125 1695.636719 Z M 1484.28125 1648.839844 "/>
<path fill-rule="nonzero" fill="rgb(0%, 13.719177%, 21.556091%)" fill-opacity="1" d="M 1020.589844 1715.460938 L 1129.621094 1723.898438 L 1160.398438 1710.179688 L 1661.238281 1590.414062 L 1554.460938 1637.492188 L 1487 1698.292969 L 1605.210938 1669.242188 L 1401.621094 1741.601562 L 1276.859375 1822.601562 L 1216.601562 1824.78125 L 1194.878906 1796.292969 L 1072.390625 1745.789062 L 1058.25 1749.128906 Z M 1020.589844 1715.460938 "/>
<path fill-rule="nonzero" fill="rgb(0%, 13.719177%, 21.556091%)" fill-opacity="1" d="M 807.445312 1732.035156 C 794.652344 1748.902344 784.246094 1768.601562 776.21875 1791.125 C 764.492188 1826.871094 766.394531 1864.925781 781.929688 1905.285156 C 794.820312 1937.71875 819.054688 1960.546875 854.632812 1973.769531 C 863.824219 1976.75 873.339844 1978.238281 883.171875 1978.238281 C 896.136719 1978.238281 909.660156 1975.648438 923.738281 1970.472656 C 929.453125 1963.800781 942.039062 1935.625 961.5 1885.941406 C 968.703125 1874.375 977.460938 1867.171875 987.773438 1864.335938 C 991.179688 1863.355469 994.667969 1862.863281 998.234375 1862.863281 C 1004.550781 1862.863281 1011.109375 1864.402344 1017.910156 1867.472656 C 1017.910156 1867.367188 1017.96875 1867.3125 1018.109375 1867.3125 C 1020.050781 1867.3125 1035.941406 1878.011719 1065.789062 1899.40625 C 1074.050781 1904.421875 1082.679688 1908.660156 1091.699219 1912.113281 C 1141.609375 1902.601562 1187.898438 1882.628906 1230.570312 1852.195312 C 1256.371094 1856.660156 1279.378906 1867.199219 1299.621094 1883.808594 C 1317.269531 1898.601562 1330.75 1916.53125 1340.039062 1937.609375 L 1319.898438 1943.914062 C 1339.160156 1960.097656 1359.019531 1972.824219 1379.480469 1982.089844 C 1352.671875 1916.609375 1308.460938 1870.3125 1246.839844 1843.199219 L 1262.71875 1830.566406 L 1043.828125 1825.609375 L 1183.410156 1850.695312 L 1172.460938 1874.429688 L 1085.460938 1886.5 C 1074.289062 1863.359375 1054.601562 1848.804688 1026.378906 1842.839844 C 1020.429688 1841.851562 1014.5 1841.355469 1008.609375 1841.355469 C 1003.730469 1841.355469 998.863281 1841.695312 994.015625 1842.371094 C 988.546875 1842.421875 965.625 1847.695312 925.253906 1858.191406 C 914.371094 1860.007812 906.179688 1860.917969 900.679688 1860.917969 C 899.867188 1860.917969 899.117188 1860.898438 898.421875 1860.859375 C 878.253906 1860.40625 860.929688 1855.089844 846.449219 1844.914062 C 816.449219 1822.582031 802.789062 1789.992188 805.46875 1747.144531 C 805.824219 1742.039062 806.480469 1737 807.445312 1732.035156 Z M 807.445312 1732.035156 "/>
<path fill-rule="nonzero" fill="rgb(63.084412%, 12.547302%, 34.910583%)" fill-opacity="1" d="M 1202.980469 953.691406 L 1126.339844 971.570312 L 1057.359375 1004.960938 L 498.257812 1202.78125 C 477.847656 1218.429688 463.984375 1242.359375 460.566406 1267.84375 C 458.183594 1285.585938 460.757812 1303.964844 467.925781 1320.371094 C 475.089844 1336.773438 486.820312 1351.152344 501.453125 1361.464844 L 528.488281 1451.789062 C 550.113281 1449.707031 571.441406 1444.609375 591.664062 1436.683594 C 600.941406 1433.050781 609.984375 1428.824219 618.722656 1424.042969 L 596.128906 1403.027344 C 605.347656 1391.4375 614.355469 1379.683594 623.691406 1368.191406 C 629.496094 1361.046875 635.429688 1353.960938 642.269531 1347.804688 C 646.476562 1344.019531 651.078125 1340.609375 656.207031 1338.21875 C 660.695312 1336.128906 665.617188 1334.867188 670.554688 1334.867188 C 671.261719 1334.867188 671.96875 1334.890625 672.675781 1334.945312 C 680.375 1335.523438 687.796875 1339.53125 692.316406 1345.796875 C 695.675781 1343.238281 698.15625 1339.546875 699.253906 1335.46875 C 700.925781 1329.269531 699.246094 1322.269531 694.941406 1317.507812 L 656.035156 1277.722656 C 672.480469 1268.707031 691.234375 1264.097656 709.988281 1264.097656 C 716.042969 1264.097656 722.097656 1264.578125 728.070312 1265.546875 C 755.746094 1270.027344 780.625 1285.105469 802.136719 1303.078125 C 816.003906 1314.660156 829.085938 1327.292969 844.191406 1337.207031 C 859.292969 1347.125 876.742188 1353.875 894.792969 1354.625 C 895.953125 1354.671875 897.109375 1354.695312 898.265625 1354.695312 C 916.984375 1354.695312 935.265625 1348.546875 952.660156 1341.453125 C 971.132812 1333.917969 989.816406 1325.859375 1009.699219 1324.25 C 1012.101562 1324.054688 1014.511719 1323.957031 1016.921875 1323.957031 C 1032.199219 1323.957031 1047.460938 1327.832031 1060.929688 1335.066406 C 1076.519531 1343.4375 1089.660156 1355.8125 1100.980469 1369.425781 C 1126.671875 1400.324219 1145.539062 1436.277344 1163.53125 1472.207031 L 1474.890625 1476.9375 C 1473.230469 1416.582031 1474.050781 1355.96875 1466.660156 1296.042969 C 1462.691406 1263.867188 1455.140625 1231.558594 1438.769531 1203.578125 C 1420.28125 1171.980469 1389.988281 1147.140625 1354.828125 1136.910156 C 1358.800781 1120.191406 1358.128906 1102.429688 1353.039062 1086.019531 C 1347.960938 1069.609375 1338.5 1054.699219 1326.539062 1042.371094 C 1313.5 1028.929688 1297.691406 1018.519531 1281.589844 1008.941406 C 1265.5 999.371094 1249.058594 990.308594 1233.78125 979.480469 C 1222.839844 971.730469 1212.5 963.121094 1202.980469 953.691406 Z M 1202.980469 953.691406 "/>
<path fill-rule="nonzero" fill="rgb(63.084412%, 12.547302%, 34.910583%)" fill-opacity="1" d="M 1182.730469 1550.695312 L 1476.949219 1542.6875 L 1480.289062 1583.476562 C 1467.621094 1585.683594 1454.941406 1587.796875 1442.25 1589.820312 C 1429.179688 1591.898438 1416.101562 1593.882812 1403 1595.765625 L 1408.480469 1666.722656 C 1412.160156 1670.921875 1416.941406 1674.128906 1422.21875 1675.960938 C 1425.828125 1677.214844 1429.660156 1677.816406 1433.480469 1677.816406 C 1435.238281 1677.816406 1437 1677.691406 1438.738281 1677.441406 C 1446.75 1676.292969 1454.21875 1672.65625 1460.960938 1668.171875 C 1469.210938 1662.691406 1476.640625 1656.03125 1483.429688 1648.820312 L 1501.820312 1644.710938 C 1494.941406 1664.347656 1481.628906 1681.609375 1464.621094 1693.585938 C 1446.191406 1706.558594 1423.859375 1713.304688 1401.410156 1715.296875 C 1396 1715.777344 1390.578125 1716.011719 1385.160156 1716.011719 C 1352.460938 1716.011719 1319.820312 1707.5 1290.339844 1693.203125 L 1141.441406 1718.175781 L 1035.609375 1699.703125 C 1033.039062 1690.816406 1032.511719 1681.355469 1034.03125 1672.230469 C 1035.378906 1664.117188 1038.328125 1656.289062 1042.539062 1649.222656 C 1051.898438 1633.480469 1067.390625 1621.675781 1084.78125 1615.890625 C 1093.261719 1613.070312 1102.191406 1611.667969 1111.128906 1611.667969 C 1120.511719 1611.667969 1129.890625 1613.214844 1138.761719 1616.285156 L 1146.96875 1598.941406 C 1151.648438 1596.25 1156.800781 1594.429688 1162.078125 1593.355469 C 1167.371094 1592.285156 1172.800781 1592.058594 1178.070312 1590.917969 C 1180.191406 1590.460938 1182.289062 1589.824219 1184.210938 1588.820312 C 1186.128906 1587.816406 1187.878906 1586.425781 1189.128906 1584.65625 C 1190.378906 1582.882812 1191.109375 1580.738281 1191.128906 1578.570312 C 1191.140625 1576.402344 1190.449219 1574.257812 1189.289062 1572.429688 C 1188.308594 1570.894531 1187.03125 1569.582031 1185.671875 1568.371094 C 1184.320312 1567.160156 1182.878906 1566.039062 1181.589844 1564.761719 C 1180.300781 1563.484375 1179.140625 1562.03125 1178.460938 1560.347656 C 1177.789062 1558.660156 1177.621094 1556.742188 1178.179688 1555.015625 C 1178.519531 1553.976562 1179.109375 1553.023438 1179.898438 1552.269531 C 1180.691406 1551.515625 1181.679688 1550.96875 1182.730469 1550.695312 Z M 1182.730469 1550.695312 "/>
<path fill-rule="nonzero" fill="rgb(44.700623%, 11.376953%, 27.830505%)" fill-opacity="1" d="M 1369.96875 1141.988281 L 1398.941406 1323.386719 L 1327.308594 1275.363281 C 1321.230469 1272.222656 1314.828125 1269.953125 1308.128906 1268.554688 C 1302.800781 1267.539062 1297.589844 1267.03125 1292.480469 1267.03125 C 1272.960938 1267.03125 1255.101562 1274.464844 1238.898438 1289.335938 C 1222.179688 1306.632812 1212.929688 1327.875 1211.148438 1353.0625 C 1210.429688 1362.085938 1210.378906 1371.144531 1210.980469 1380.246094 L 1218.660156 1455.300781 C 1219.089844 1461.21875 1219.410156 1467.136719 1219.589844 1473.058594 L 1474.890625 1476.9375 C 1474.648438 1324.5 1463.921875 1235.738281 1442.679688 1210.671875 C 1422.609375 1176.578125 1398.371094 1153.691406 1369.96875 1141.988281 Z M 1369.96875 1141.988281 "/>
<path fill-rule="nonzero" fill="rgb(44.700623%, 11.376953%, 27.830505%)" fill-opacity="1" d="M 1052.601562 1006.640625 L 498.257812 1202.78125 C 498.046875 1202.949219 497.835938 1203.121094 497.625 1203.289062 C 551.925781 1229.21875 605.769531 1253.464844 659.164062 1276.011719 C 674.332031 1268.09375 692.265625 1264.136719 712.972656 1264.136719 C 733.078125 1265.09375 751.226562 1270.132812 767.414062 1279.253906 C 775.664062 1283.683594 783.558594 1288.722656 791.101562 1294.367188 C 824.71875 1322.886719 842.410156 1337.167969 844.175781 1337.207031 C 844.179688 1337.207031 844.179688 1337.207031 844.183594 1337.207031 C 858.417969 1346.003906 870.824219 1351.261719 881.394531 1352.980469 C 888.082031 1354.0625 894.378906 1354.605469 900.289062 1354.605469 L 900.347656 1354.605469 C 908.019531 1354.605469 915.035156 1353.691406 921.402344 1351.871094 C 925.722656 1351.808594 945.472656 1344.730469 980.652344 1330.628906 C 991.746094 1327.148438 999.78125 1325.199219 1004.75 1324.78125 C 1008.929688 1324.285156 1013.039062 1324.035156 1017.078125 1324.035156 C 1031.359375 1324.035156 1044.839844 1327.132812 1057.519531 1333.328125 C 1067.890625 1337.433594 1078.738281 1345.34375 1090.070312 1357.0625 L 1139.050781 1172.820312 L 1105.871094 1098.820312 L 994.574219 1129.339844 Z M 1052.601562 1006.640625 "/>
<path fill-rule="nonzero" fill="rgb(44.700623%, 11.376953%, 27.830505%)" fill-opacity="1" d="M 654.378906 1294.570312 L 552.496094 1405.070312 L 552.003906 1448.199219 C 576.328125 1443.375 598.566406 1435.320312 618.722656 1424.042969 L 596.128906 1403.027344 C 617.105469 1376.121094 629.773438 1360.417969 634.136719 1355.921875 C 643.382812 1345.613281 652.28125 1339.113281 660.824219 1336.421875 C 664.308594 1335.425781 667.617188 1334.925781 670.753906 1334.925781 C 679.210938 1334.925781 686.398438 1338.550781 692.316406 1345.796875 C 695.757812 1343.113281 698.070312 1339.667969 699.253906 1335.46875 C 700.882812 1330.449219 699.785156 1324.875 695.964844 1318.742188 L 684.941406 1307.417969 Z M 654.378906 1294.570312 "/>
<path fill-rule="nonzero" fill="rgb(44.700623%, 11.376953%, 27.830505%)" fill-opacity="1" d="M 494.992188 1205.5 C 468.59375 1228.351562 457.152344 1258.046875 460.664062 1294.609375 C 465.019531 1322.527344 478.617188 1344.8125 501.453125 1361.464844 L 512.394531 1398.011719 L 589.765625 1290.515625 L 534.859375 1348.324219 L 497.941406 1242.359375 L 476.039062 1253.035156 L 476.039062 1253.039062 L 505.066406 1219.359375 L 494.996094 1205.5 Z M 494.992188 1205.5 "/>
<path fill-rule="nonzero" fill="rgb(44.700623%, 11.376953%, 27.830505%)" fill-opacity="1" d="M 1202.980469 953.691406 L 1126.339844 971.570312 L 1101.179688 983.738281 L 1140.609375 1163.089844 C 1142.878906 1165.488281 1145.269531 1167.75 1147.78125 1169.890625 C 1162.359375 1183 1181.378906 1190.460938 1204.820312 1192.308594 C 1229.289062 1192.269531 1249.019531 1185.761719 1264.019531 1172.78125 C 1280.910156 1158.660156 1290.171875 1140.640625 1291.808594 1118.71875 C 1292.730469 1098.730469 1285.488281 1080.878906 1270.089844 1065.179688 L 1266.230469 1061.839844 C 1268.601562 1054.621094 1269.570312 1044.269531 1269.148438 1030.78125 C 1268.519531 1021.78125 1266.648438 1013.058594 1263.539062 1004.601562 C 1262.558594 1002.039062 1261.5 999.550781 1260.359375 997.128906 C 1230.558594 978.238281 1211.429688 963.761719 1202.980469 953.691406 Z M 1202.980469 953.691406 "/>
<path fill-rule="nonzero" fill="rgb(44.700623%, 11.376953%, 27.830505%)" fill-opacity="1" d="M 1347.160156 1546.222656 L 1262 1548.539062 C 1259.820312 1556.882812 1258.300781 1565.382812 1257.449219 1574.03125 C 1256.25 1598.046875 1257.191406 1615.082031 1260.269531 1625.136719 C 1265.890625 1651.230469 1277.160156 1674.507812 1294.058594 1694.972656 C 1307.71875 1701.328125 1321.878906 1706.328125 1336.539062 1709.96875 C 1350.660156 1713.945312 1368.550781 1715.933594 1390.230469 1715.933594 C 1390.351562 1715.933594 1390.460938 1715.933594 1390.578125 1715.933594 C 1440.839844 1714.640625 1476.601562 1694.101562 1497.859375 1654.320312 L 1501.820312 1644.710938 L 1483.429688 1648.820312 C 1466.101562 1666.554688 1451.210938 1676.09375 1438.738281 1677.441406 C 1436.890625 1677.6875 1435.089844 1677.8125 1433.339844 1677.8125 C 1423.730469 1677.8125 1415.441406 1674.117188 1408.480469 1666.722656 L 1403 1595.765625 C 1429.570312 1591.933594 1455.320312 1587.835938 1480.289062 1583.476562 L 1478.210938 1558.121094 C 1473.570312 1557.660156 1468.929688 1557.433594 1464.269531 1557.433594 C 1458.921875 1557.433594 1453.558594 1557.734375 1448.191406 1558.34375 C 1428.191406 1560.222656 1407.789062 1567.609375 1386.988281 1580.503906 L 1370.558594 1661.726562 L 1418.539062 1697.503906 L 1377.839844 1701.550781 L 1341.460938 1641.484375 Z M 1347.160156 1546.222656 "/>
<path fill-rule="nonzero" fill="rgb(44.700623%, 11.376953%, 27.830505%)" fill-opacity="1" d="M 1262 1548.539062 L 1182.730469 1550.695312 C 1178.75 1552.183594 1177.21875 1555.113281 1178.171875 1559.484375 C 1177.941406 1561.132812 1181.480469 1565.199219 1188.769531 1571.679688 C 1190.019531 1573.304688 1190.789062 1575.242188 1191.078125 1577.492188 C 1191.410156 1581.683594 1189.589844 1585.1875 1185.609375 1587.992188 C 1183.441406 1589.34375 1181.109375 1590.28125 1178.609375 1590.800781 C 1165.160156 1592.707031 1158.339844 1593.875 1158.148438 1594.304688 C 1153.398438 1595.734375 1149.679688 1597.28125 1146.96875 1598.941406 L 1138.761719 1616.285156 C 1128.890625 1613.261719 1119.378906 1611.75 1110.230469 1611.75 C 1089.570312 1611.75 1070.75 1619.457031 1053.789062 1634.871094 C 1035.238281 1655.042969 1029.179688 1676.652344 1035.609375 1699.703125 L 1141.441406 1718.175781 L 1210.5 1706.59375 L 1241.398438 1696.101562 C 1217.359375 1655.804688 1209.179688 1623.523438 1216.871094 1599.253906 C 1220.910156 1586.167969 1228.710938 1576.316406 1240.300781 1569.691406 C 1246.339844 1566.628906 1252.460938 1564.933594 1258.648438 1564.601562 C 1259.5 1559.1875 1260.621094 1553.832031 1262 1548.539062 Z M 1262 1548.539062 "/>
<path fill-rule="nonzero" fill="rgb(44.700623%, 11.376953%, 27.830505%)" fill-opacity="1" d="M 1290.5 1547.761719 L 1262 1548.539062 Z M 1290.5 1547.761719 "/>
<path fill-rule="nonzero" fill="rgb(44.700623%, 11.376953%, 27.830505%)" fill-opacity="1" d="M 1319.128906 1255.914062 L 1326.75 1095.058594 C 1328.480469 1084.339844 1327.761719 1073.238281 1324.679688 1062.839844 C 1317.898438 1039.980469 1299.140625 1021.03125 1276.351562 1014.03125 L 1263.949219 1055.609375 C 1278.210938 1056.910156 1291.871094 1063.96875 1301.160156 1074.871094 C 1309.550781 1084.691406 1314.339844 1097.519531 1314.460938 1110.429688 L 1295.261719 1094.421875 C 1300.75 1108.058594 1303.351562 1122.859375 1302.828125 1137.558594 C 1302.058594 1159.390625 1294.289062 1180.929688 1280.941406 1198.230469 C 1267.601562 1215.539062 1248.75 1228.519531 1227.820312 1234.820312 L 1271.109375 1230.761719 C 1243.390625 1238.488281 1219.410156 1258.710938 1207.109375 1284.730469 C 1196.761719 1306.640625 1194.679688 1332.34375 1201.390625 1355.625 C 1198.730469 1341.085938 1200.511719 1325.777344 1206.339844 1312.195312 C 1212.179688 1298.613281 1222.019531 1286.878906 1234 1278.230469 C 1250.570312 1266.273438 1270.761719 1260.140625 1291.011719 1257.476562 C 1299.148438 1256.40625 1307.359375 1255.882812 1315.570312 1255.882812 C 1316.75 1255.882812 1317.941406 1255.894531 1319.128906 1255.914062 Z M 1319.128906 1255.914062 "/>
<path fill-rule="nonzero" fill="rgb(97.264099%, 75.389099%, 61.521912%)" fill-opacity="1" d="M 1259.699219 1084.089844 L 1304.980469 955.851562 C 1309.820312 958.140625 1315.171875 959.320312 1320.519531 959.320312 C 1321.238281 959.320312 1321.960938 959.300781 1322.691406 959.25 C 1331.851562 958.699219 1340.660156 954.570312 1347.289062 948.230469 C 1353.910156 941.871094 1358.359375 933.449219 1360.699219 924.578125 C 1365.378906 906.839844 1362.070312 888.019531 1357.941406 870.140625 C 1352.449219 846.308594 1346.121094 822.640625 1342.359375 798.480469 L 1288.410156 749.199219 L 1122.191406 743.871094 L 1075.160156 844.28125 C 1071.558594 857.609375 1068.589844 871.199219 1067.980469 885 C 1067.691406 891.449219 1068.019531 897.980469 1069.679688 904.230469 C 1071.328125 910.46875 1074.398438 916.410156 1079 920.941406 C 1084.410156 926.28125 1091.929688 929.460938 1099.53125 929.460938 C 1099.578125 929.460938 1099.640625 929.460938 1099.691406 929.460938 C 1103.039062 939 1106.128906 948.609375 1108.980469 958.300781 C 1112.5 970.230469 1115.640625 982.289062 1118.390625 994.429688 C 1121.859375 1016.03125 1125.320312 1037.640625 1128.789062 1059.25 C 1134.179688 1092.859375 1139.578125 1126.460938 1144.988281 1160.070312 C 1154.300781 1170.601562 1166.78125 1178.269531 1180.351562 1181.910156 C 1186.679688 1183.601562 1193.210938 1184.410156 1199.75 1184.410156 C 1207.261719 1184.410156 1214.78125 1183.351562 1222 1181.320312 C 1239.210938 1176.488281 1255.011719 1166.859375 1267.640625 1154.210938 C 1274.089844 1147.75 1279.691406 1140.28125 1283.011719 1131.78125 C 1286.328125 1123.269531 1287.148438 1113.621094 1284.191406 1104.980469 C 1282.371094 1099.640625 1279.140625 1094.78125 1274.859375 1091.109375 C 1270.578125 1087.441406 1265.269531 1084.96875 1259.699219 1084.089844 Z M 1259.699219 1084.089844 "/>
<path fill-rule="nonzero" fill="rgb(93.75%, 57.617188%, 49.414062%)" fill-opacity="1" d="M 1260.78125 1081.03125 L 1245.179688 1121.691406 C 1248.578125 1132.269531 1246.75 1142.941406 1239.679688 1153.71875 C 1232.621094 1162.941406 1222.839844 1168.621094 1210.371094 1170.75 C 1207 1171.308594 1203.46875 1171.601562 1199.789062 1171.601562 C 1190.078125 1171.601562 1179.320312 1169.621094 1167.519531 1165.648438 C 1159.398438 1162.710938 1151.628906 1159.140625 1144.171875 1154.929688 L 1144.988281 1160.070312 C 1161.101562 1176.261719 1179.011719 1184.351562 1198.710938 1184.351562 C 1214.730469 1184.351562 1231.929688 1179.011719 1250.328125 1168.320312 C 1271.621094 1153.910156 1283.429688 1138.039062 1285.761719 1120.699219 C 1286.289062 1100.320312 1277.601562 1088.121094 1259.699219 1084.089844 Z M 1260.78125 1081.03125 "/>
<path fill-rule="nonzero" fill="rgb(93.75%, 57.617188%, 49.414062%)" fill-opacity="1" d="M 1345.988281 857.578125 L 1344.109375 866.019531 C 1332.410156 907.140625 1310.5 938.921875 1278.398438 961.351562 C 1247.53125 984.390625 1207.828125 997.308594 1159.289062 1000.089844 C 1171.980469 1002.441406 1184.160156 1003.621094 1195.839844 1003.621094 C 1207.640625 1003.621094 1218.929688 1002.421875 1229.710938 1000.03125 C 1255.558594 993.730469 1275.480469 985.628906 1289.46875 975.710938 L 1289.480469 975.710938 L 1223.539062 1168.101562 L 1255.171875 1164.890625 C 1273.410156 1151.398438 1283.609375 1136.671875 1285.761719 1120.699219 C 1286.289062 1100.320312 1277.601562 1088.121094 1259.699219 1084.089844 L 1304.980469 955.851562 C 1310.160156 958.21875 1315.300781 959.398438 1320.390625 959.398438 C 1330.058594 959.398438 1339.558594 955.128906 1348.898438 946.589844 C 1360.058594 933.640625 1364.628906 917.238281 1362.628906 897.410156 C 1362.070312 891.300781 1361.171875 885.210938 1359.910156 879.148438 C 1358.488281 873.191406 1357.160156 867.558594 1355.910156 862.25 Z M 1345.988281 857.578125 "/>
<path fill-rule="nonzero" fill="rgb(93.75%, 57.617188%, 49.414062%)" fill-opacity="1" d="M 1096.199219 855.859375 L 1100.191406 923.761719 C 1092.070312 921.210938 1085.21875 915.191406 1081.089844 907.75 C 1076.390625 899.25 1074.5 889.480469 1073.210938 879.859375 C 1072.5 874.550781 1072.121094 869.070312 1073.519531 863.890625 C 1074.21875 861.308594 1075.390625 858.828125 1077.121094 856.78125 C 1078.851562 854.730469 1081.128906 853.140625 1083.699219 852.371094 C 1084.851562 852.019531 1086.058594 851.851562 1087.261719 851.851562 C 1088.339844 851.851562 1089.429688 851.988281 1090.46875 852.28125 C 1092.671875 852.890625 1094.691406 854.148438 1096.199219 855.859375 Z M 1096.199219 855.859375 "/>
<path fill-rule="nonzero" fill="rgb(93.75%, 57.617188%, 49.414062%)" fill-opacity="1" d="M 1246.820312 822.761719 L 1287.628906 826.039062 C 1291.078125 826.308594 1293.648438 829.339844 1293.378906 832.78125 C 1293.101562 836.230469 1290.070312 838.808594 1286.628906 838.53125 L 1245.820312 835.25 C 1242.371094 834.96875 1239.800781 831.949219 1240.070312 828.5 C 1240.351562 825.050781 1243.378906 822.480469 1246.820312 822.761719 Z M 1246.820312 822.761719 "/>
<path fill-rule="nonzero" fill="rgb(93.75%, 57.617188%, 49.414062%)" fill-opacity="1" d="M 1141.410156 812.699219 L 1182.21875 815.980469 C 1185.671875 816.261719 1188.238281 819.28125 1187.960938 822.730469 C 1187.679688 826.179688 1184.660156 828.75 1181.210938 828.46875 L 1140.410156 825.191406 C 1136.960938 824.910156 1134.390625 821.890625 1134.660156 818.441406 C 1134.941406 815 1137.960938 812.421875 1141.410156 812.699219 Z M 1141.410156 812.699219 "/>
<path fill-rule="nonzero" fill="rgb(0%, 13.719177%, 21.556091%)" fill-opacity="1" d="M 1247.738281 816.121094 L 1288.539062 819.410156 C 1291.988281 819.679688 1294.558594 822.699219 1294.289062 826.148438 C 1294.011719 829.609375 1290.988281 832.179688 1287.539062 831.898438 L 1246.730469 828.621094 C 1243.289062 828.339844 1240.710938 825.320312 1240.988281 821.871094 C 1241.269531 818.421875 1244.289062 815.851562 1247.738281 816.121094 Z M 1247.738281 816.121094 "/>
<path fill-rule="nonzero" fill="rgb(0%, 13.719177%, 21.556091%)" fill-opacity="1" d="M 1141.410156 807.808594 L 1182.21875 811.089844 C 1185.671875 811.371094 1188.238281 814.390625 1187.960938 817.839844 C 1187.679688 821.28125 1184.660156 823.859375 1181.210938 823.578125 L 1140.410156 820.300781 C 1136.960938 820.019531 1134.390625 817 1134.660156 813.550781 C 1134.941406 810.101562 1137.960938 807.53125 1141.410156 807.808594 Z M 1141.410156 807.808594 "/>
<path fill-rule="nonzero" fill="rgb(93.75%, 57.617188%, 49.414062%)" fill-opacity="1" d="M 1209.53125 809.230469 L 1182.179688 866.308594 C 1185.609375 865.21875 1189.210938 864.679688 1192.808594 864.679688 C 1196.730469 864.679688 1200.660156 865.320312 1204.359375 866.609375 C 1209.890625 868.53125 1214.921875 871.859375 1218.851562 876.179688 C 1217.800781 871.160156 1215.140625 866.488281 1211.371094 863.019531 C 1206.828125 858.828125 1200.691406 856.441406 1194.519531 856.441406 C 1194.300781 856.441406 1194.078125 856.449219 1193.859375 856.449219 Z M 1209.53125 809.230469 "/>
<path fill-rule="nonzero" fill="rgb(63.084412%, 12.547302%, 34.910583%)" fill-opacity="1" d="M 1159.671875 894.308594 L 1234.761719 908.089844 C 1233.609375 919.308594 1227.109375 929.871094 1217.601562 935.960938 C 1211.53125 939.859375 1204.320312 941.941406 1197.101562 941.941406 C 1196.558594 941.941406 1196.03125 941.929688 1195.5 941.910156 C 1187.75 941.570312 1180.128906 938.808594 1173.949219 934.128906 C 1168.011719 929.621094 1163.421875 923.359375 1160.898438 916.339844 C 1158.390625 909.320312 1157.949219 901.570312 1159.671875 894.308594 Z M 1159.671875 894.308594 "/>
<path fill-rule="nonzero" fill="rgb(44.700623%, 11.376953%, 27.830505%)" fill-opacity="1" d="M 1184.441406 907.480469 C 1181.179688 907.480469 1178.289062 907.898438 1175.78125 908.738281 C 1172.320312 909.660156 1168.769531 911.699219 1165.128906 914.839844 C 1163.871094 916.019531 1162.738281 917.269531 1161.761719 918.570312 C 1162.609375 920.578125 1163.589844 922.429688 1164.71875 924.101562 C 1170.789062 933.28125 1179.128906 938.980469 1189.730469 941.210938 C 1192.191406 941.699219 1194.660156 941.941406 1197.128906 941.941406 C 1199.789062 941.941406 1202.460938 941.660156 1205.121094 941.089844 C 1209.558594 940.238281 1214.039062 938.308594 1218.558594 935.28125 C 1216.820312 928.851562 1213.558594 923.121094 1208.800781 918.078125 C 1206.199219 915.390625 1203.101562 913.078125 1199.480469 911.160156 C 1196.078125 909.328125 1192.140625 908.140625 1187.671875 907.609375 C 1186.558594 907.519531 1185.480469 907.480469 1184.441406 907.480469 Z M 1184.441406 907.480469 "/>
<path fill-rule="nonzero" fill="rgb(93.75%, 57.617188%, 49.414062%)" fill-opacity="1" d="M 1093.949219 809.921875 C 1111.21875 790.640625 1135.640625 777.941406 1161.328125 774.871094 C 1165.46875 774.371094 1169.640625 774.128906 1173.800781 774.128906 C 1195.839844 774.128906 1217.878906 780.960938 1235.929688 793.628906 L 1196.539062 757.761719 L 1300.820312 811.078125 L 1255.820312 779.289062 C 1279.070312 780.820312 1301.480469 792.371094 1316.199219 810.429688 C 1329.519531 826.761719 1336.441406 848.171875 1335.199219 869.199219 L 1344.140625 802.320312 L 1154.128906 709.621094 Z M 1093.949219 809.921875 "/>
<path fill-rule="nonzero" fill="rgb(0%, 13.719177%, 21.556091%)" fill-opacity="1" d="M 1096.941406 870.53125 C 1093.03125 864.839844 1089.128906 859.148438 1085.640625 856.578125 C 1084.011719 855.371094 1082.46875 854.859375 1081.050781 854.859375 C 1079.429688 854.859375 1077.960938 855.53125 1076.660156 856.628906 C 1074.230469 858.699219 1072.429688 862.308594 1070.640625 865.910156 C 1067.75 854.03125 1064.871094 842.148438 1063.328125 825.359375 C 1061.789062 808.558594 1061.601562 786.851562 1068.371094 762.769531 C 1075.140625 738.699219 1088.859375 712.261719 1108.28125 696.550781 C 1127.699219 680.839844 1152.808594 675.859375 1177.929688 670.871094 C 1175.261719 670.351562 1172.601562 669.820312 1169.21875 669.820312 C 1167.160156 669.820312 1164.820312 670.019531 1162.050781 670.53125 C 1154.769531 671.898438 1144.480469 675.480469 1134.199219 679.058594 C 1153.570312 666.179688 1172.941406 653.289062 1192.671875 651.210938 C 1194.71875 651 1196.78125 650.898438 1198.839844 650.898438 C 1216.609375 650.898438 1234.808594 658.238281 1254.828125 661.449219 C 1264.878906 663.070312 1275.378906 663.640625 1286.140625 663.640625 C 1299.300781 663.640625 1312.839844 662.78125 1326.378906 661.929688 C 1314.769531 665.261719 1303.160156 668.601562 1295.449219 671.75 C 1287.738281 674.910156 1283.929688 677.871094 1280.128906 680.839844 C 1286.570312 679.179688 1293 677.519531 1299.691406 677.519531 C 1303.890625 677.519531 1308.179688 678.179688 1312.640625 679.898438 C 1324.199219 684.351562 1336.828125 695.960938 1351.230469 717.570312 C 1365.621094 739.171875 1381.78125 770.769531 1383.898438 802.789062 C 1386.019531 834.808594 1374.089844 867.25 1362.160156 899.691406 C 1360.660156 891.878906 1359.160156 884.070312 1354.769531 880.640625 C 1352.859375 879.148438 1350.398438 878.488281 1347.78125 878.488281 C 1344.378906 878.488281 1340.691406 879.601562 1337.570312 881.460938 C 1332.050781 884.761719 1328.289062 890.390625 1324.519531 896.019531 C 1329.039062 878.691406 1333.550781 861.359375 1333.148438 844.570312 C 1332.75 827.78125 1327.429688 811.53125 1310.570312 798.480469 C 1293.699219 785.421875 1265.289062 775.558594 1236.871094 765.691406 L 1278.238281 794.890625 L 1201.539062 755.628906 L 1234.839844 786.851562 C 1213.460938 776.050781 1192.089844 765.25 1171.339844 765.210938 C 1171.300781 765.210938 1171.261719 765.210938 1171.21875 765.210938 C 1150.519531 765.210938 1130.441406 775.910156 1118.828125 786.871094 C 1107.191406 797.839844 1104.050781 809.070312 1101.820312 823.050781 C 1099.578125 837.039062 1098.261719 853.78125 1096.941406 870.53125 Z M 1096.941406 870.53125 "/>
</svg>
