<?xml version="1.0" encoding="utf-8"?>
<!-- Generator: Adobe Illustrator 27.5.0, SVG Export Plug-In . SVG Version: 6.00 Build 0)  -->
<svg version="1.1" xmlns="http://www.w3.org/2000/svg" xmlns:xlink="http://www.w3.org/1999/xlink" x="0px" y="0px"
	 viewBox="0 0 3710 3710" style="enable-background:new 0 0 3710 3710;" xml:space="preserve">
<g id="Background">
	<g>
		<g>
			<rect style="fill:#FFFFFF;" width="3710" height="3710"/>
		</g>
	</g>
</g>
<g id="Illustration">
	<g>
		<linearGradient id="SVGID_1_" gradientUnits="userSpaceOnUse" x1="3515.0552" y1="3992.2815" x2="1135.3213" y2="1036.8014">
			<stop  offset="0" style="stop-color:#DAE3FE"/>
			<stop  offset="1" style="stop-color:#E9EFFD"/>
		</linearGradient>
		<path style="fill:url(#SVGID_1_);" d="M2860.375,2826.747c-54.662,57.545-106.382,94.656-147.245,123.975
			c-480.338,344.648-1048.706,244.185-1169.5,219.651c-178.375-36.229-523.17-106.259-772.451-399.408
			c-377.141-443.51-318.414-1142.248-25.878-1603.494c53.509-84.37,336.162-552.642,910.651-627.738
			c347.675-45.447,752.952,46.215,1046.443,292.101C3318.457,1347.973,3274.6,2390.664,2860.375,2826.747z"/>
		<g>
			
				<linearGradient id="SVGID_00000169528072975055779610000005650780433034528141_" gradientUnits="userSpaceOnUse" x1="2409.5864" y1="922.2449" x2="-207.24" y2="4881.0308" gradientTransform="matrix(0.9998 -0.02 0.02 0.9998 154.3625 -85.763)">
				<stop  offset="0" style="stop-color:#FF928E"/>
				<stop  offset="1" style="stop-color:#FE7062"/>
			</linearGradient>
			<path style="fill:url(#SVGID_00000169528072975055779610000005650780433034528141_);" d="M2711.798,3174.983
				c-12.524,0.251-25.09-2.731-37.351-8.866l-649.066-324.882c-46.687-23.368-98.946-35.167-151.135-34.125
				s-103.936,14.916-149.649,40.122l-635.599,350.521c-12.002,6.619-24.44,10.101-36.963,10.35
				c-23.08,0.461-46.377-10.109-62.314-28.261c-10.815-12.323-22.738-33.404-18.139-63.875l108.405-717.692
				c15.888-105.225-20.991-211.467-98.657-284.208L451.563,1617.89c-32.671-30.596-26.141-67.093-21.817-81.362
				c4.326-14.273,19.149-48.26,63.312-55.581l716.069-118.686c104.97-17.392,194.621-85.295,239.808-181.648l308.183-657.163
				c19.007-40.525,55.737-45.598,70.645-45.897c14.906-0.296,51.81,3.306,72.417,43.043l334.152,644.346
				c48.996,94.471,141.283,158.746,246.871,171.936l720.226,90.025c44.42,5.553,60.588,38.922,65.48,53.01
				c4.889,14.087,12.87,50.294-18.552,82.169l-509.551,516.915c-74.706,75.781-107.315,183.411-87.244,287.912l136.949,712.801
				c5.812,30.258-5.263,51.798-15.58,64.543C2757.728,3163.032,2734.874,3174.523,2711.798,3174.983z"/>
			
				<linearGradient id="SVGID_00000070824669022511030050000011690925638275971725_" gradientUnits="userSpaceOnUse" x1="1805.2565" y1="617.1058" x2="2884.3506" y2="-1315.7017">
				<stop  offset="0" style="stop-color:#FEBBBA"/>
				<stop  offset="1" style="stop-color:#FF928E"/>
			</linearGradient>
			<path style="fill:url(#SVGID_00000070824669022511030050000011690925638275971725_);" d="M1181.105,2222.33
				c-7.696,0.154-14.951-4.605-17.611-12.275c-22.596-65.089-61.126-124.395-111.43-171.505l-201.548-188.769
				c-7.356-6.892-7.735-18.447-0.844-25.809c6.891-7.36,18.447-7.739,25.811-0.848l201.546,188.767
				c54.606,51.146,96.436,115.529,120.964,186.192c3.308,9.524-1.733,19.927-11.261,23.238
				C1184.87,2221.964,1182.974,2222.292,1181.105,2222.33z"/>
			
				<linearGradient id="SVGID_00000033342836690649169460000001513636692196561827_" gradientUnits="userSpaceOnUse" x1="2736.4202" y1="1136.9784" x2="3815.5154" y2="-795.8307">
				<stop  offset="0" style="stop-color:#FEBBBA"/>
				<stop  offset="1" style="stop-color:#FF928E"/>
			</linearGradient>
			<path style="fill:url(#SVGID_00000033342836690649169460000001513636692196561827_);" d="M1581.115,2805.814
				c-6.563,0.131-12.979-3.296-16.368-9.441c-4.869-8.832-1.66-19.943,7.172-24.811l85.084-46.92
				c65.506-36.122,139.662-56.002,214.451-57.494c74.783-1.492,149.679,15.419,216.59,48.903
				c9.014,4.512,12.667,15.485,8.153,24.499c-4.508,9.026-15.483,12.674-24.499,8.158c-61.636-30.845-130.627-46.424-199.516-45.049
				c-68.891,1.376-137.202,19.688-197.544,52.96l-85.083,46.922C1586.872,2805.021,1583.979,2805.757,1581.115,2805.814z"/>
			
				<linearGradient id="SVGID_00000146494233167184635290000007806806383369395889_" gradientUnits="userSpaceOnUse" x1="2396.0479" y1="946.9533" x2="3475.1406" y2="-985.8517">
				<stop  offset="0" style="stop-color:#FEBBBA"/>
				<stop  offset="1" style="stop-color:#FF928E"/>
			</linearGradient>
			<path style="fill:url(#SVGID_00000146494233167184635290000007806806383369395889_);" d="M2477.899,2933.094
				c-14.318,0.287-28.785-1.542-43.001-5.573c-9.7-2.757-15.333-12.852-12.582-22.55c2.751-9.704,12.836-15.338,22.552-12.583
				c37.209,10.56,76.842,0.897,106.011-25.854c29.246-26.815,41.701-64.66,34.171-103.837l-70.969-369.383
				c-28.764-149.756,17.973-303.996,125.026-412.592l264.052-267.874c30.708-31.151,40.483-74.417,26.135-115.743
				c-14.342-41.331-48.823-69.237-92.226-74.662l-373.219-46.654c-151.321-18.9-283.576-111.013-353.792-246.395l-173.16-333.902
				c-20.139-38.835-58.273-61.498-102.007-60.626c-43.735,0.874-80.933,25.04-99.507,64.646l-159.703,340.546
				c-64.755,138.073-193.229,235.389-343.667,260.31l-371.069,61.506c-22.131,3.67-42.189,13.374-58.014,28.072
				c-7.393,6.864-18.939,6.435-25.805-0.955c-6.864-7.39-6.437-18.943,0.951-25.803c21.088-19.588,47.679-32.503,76.9-37.341
				l371.067-61.506c138.577-22.961,256.921-112.602,316.573-239.796l159.701-340.542c24.244-51.691,74.761-84.513,131.844-85.651
				c57.085-1.138,108.871,29.641,135.156,80.323l173.161,333.902c64.676,124.711,186.508,209.56,325.897,226.975l373.219,46.654
				c56.65,7.081,103.475,44.986,122.201,98.92c18.72,53.942,5.453,112.707-34.632,153.362l-264.05,267.872
				c-98.614,100.033-141.665,242.114-115.167,380.065l70.969,369.383c9.826,51.14-7.133,102.596-45.355,137.645
				C2548.06,2918.667,2513.44,2932.377,2477.899,2933.094z"/>
		</g>
		<g>
			
				<linearGradient id="SVGID_00000114753977808792988670000001054927930617886911_" gradientUnits="userSpaceOnUse" x1="2961.4839" y1="2879.3853" x2="2897.2397" y2="2977.124">
				<stop  offset="0" style="stop-color:#FDF53F"/>
				<stop  offset="0.6645" style="stop-color:#E57A58"/>
				<stop  offset="1" style="stop-color:#D93C65"/>
			</linearGradient>
			<path style="fill:url(#SVGID_00000114753977808792988670000001054927930617886911_);" d="M2883.291,2923.703
				c14.032,2.791,93.993,50.373,93.993-4.027c0-5.125,0-60.766,0-60.766S2879.26,2922.901,2883.291,2923.703z"/>
			
				<linearGradient id="SVGID_00000081643910783266243270000015719307741564513954_" gradientUnits="userSpaceOnUse" x1="2595.1428" y1="3158.4983" x2="2519.8159" y2="3253.2078">
				<stop  offset="0" style="stop-color:#09005D"/>
				<stop  offset="1" style="stop-color:#1A0F91"/>
			</linearGradient>
			<path style="fill:url(#SVGID_00000081643910783266243270000015719307741564513954_);" d="M2602.703,3184.796
				c0,0-18.58-15.42-43.284-13.172c-17.224,3.017-37.429,18.25-50.455,29.552c-2.271,1.97-3.035,5.108-1.917,7.859
				c1.117,2.751,3.88,4.536,6.926,4.473c32.3-0.669,95.492-2.588,95.492-7.35
				C2609.463,3199.761,2602.703,3184.796,2602.703,3184.796z"/>
			
				<linearGradient id="SVGID_00000092439568135907857250000015450448633831214739_" gradientUnits="userSpaceOnUse" x1="2609.1096" y1="3140.7527" x2="2565.3635" y2="3195.7551">
				<stop  offset="0" style="stop-color:#FEBBBA"/>
				<stop  offset="1" style="stop-color:#FF928E"/>
			</linearGradient>
			<path style="fill:url(#SVGID_00000092439568135907857250000015450448633831214739_);" d="M2615.503,3157.617l-14.825,28.004
				c0,0-33.495,2.745-32.396-10.433c1.098-13.178,9.334-29.102,9.334-29.102L2615.503,3157.617z"/>
			
				<linearGradient id="SVGID_00000057128036857427999220000010831255775016311470_" gradientUnits="userSpaceOnUse" x1="2664.7246" y1="2352.3503" x2="2743.2664" y2="2878.2373">
				<stop  offset="0" style="stop-color:#4F52FF"/>
				<stop  offset="1" style="stop-color:#4042E2"/>
			</linearGradient>
			<path style="fill:url(#SVGID_00000057128036857427999220000010831255775016311470_);" d="M2994.067,3176.684
				c-23.228-126.817-19.484-204.123-19.484-204.123s-278.09-170.207-304.446-129.574
				c-26.356,40.633-101.884,317.924-101.884,317.924l50.36,13.727c0,0,96.274-130.404,105.06-241.735
				c24.787,81.198,47.885,275.237,238.583,280.804c9.468,0.276,18.55-3.741,24.723-10.926
				C2993.153,3195.598,2995.774,3186,2994.067,3176.684z"/>
			
				<linearGradient id="SVGID_00000057109444039193797780000012727240724320552634_" gradientUnits="userSpaceOnUse" x1="2397.8613" y1="3132.9248" x2="2425.3523" y2="3229.3733">
				<stop  offset="0" style="stop-color:#FEBBBA"/>
				<stop  offset="1" style="stop-color:#FF928E"/>
			</linearGradient>
			<polygon style="fill:url(#SVGID_00000057109444039193797780000012727240724320552634_);" points="2437.597,3173.54 
				2406.848,3202.642 2382.688,3178.482 2414.535,3141.693 			"/>
			
				<linearGradient id="SVGID_00000182490789197409783990000018315212203378897597_" gradientUnits="userSpaceOnUse" x1="2339.6238" y1="2673.2366" x2="2352.8713" y2="2554.0073" gradientTransform="matrix(-1 0 0 1 5432.4297 0)">
				<stop  offset="0" style="stop-color:#FEBBBA"/>
				<stop  offset="1" style="stop-color:#FF928E"/>
			</linearGradient>
			<path style="fill:url(#SVGID_00000182490789197409783990000018315212203378897597_);" d="M3114.26,2541.925l25.676,94.617
				c1.177,4.335-0.277,9.029-3.656,11.587c-12.362,9.354-44.669,27.958-88.99,9.879c-5.069-2.067-8.542-7.298-8.981-13.248
				l-6.087-82.427L3114.26,2541.925z"/>
			<g>
				
					<linearGradient id="SVGID_00000044178533051534578700000013621810350123358655_" gradientUnits="userSpaceOnUse" x1="2315.6086" y1="2537.9927" x2="2262.865" y2="2364.0315" gradientTransform="matrix(-0.9964 -0.085 -0.085 0.9964 5543.4702 233.0212)">
					<stop  offset="0" style="stop-color:#FEBBBA"/>
					<stop  offset="1" style="stop-color:#FF928E"/>
				</linearGradient>
				<path style="fill:url(#SVGID_00000044178533051534578700000013621810350123358655_);" d="M2963.981,2465.605
					c0,0,5.033,89.52,36.689,119.618c31.655,30.098,99.598,15.264,127.645-49.506l-34.824-117.807L2963.981,2465.605z"/>
				
					<linearGradient id="SVGID_00000039112638537605483280000007401144193317754021_" gradientUnits="userSpaceOnUse" x1="2276.2253" y1="2225.1748" x2="2325.3535" y2="2505.3879" gradientTransform="matrix(-0.9964 -0.085 -0.085 0.9964 5543.4702 233.0212)">
					<stop  offset="0" style="stop-color:#09005D"/>
					<stop  offset="1" style="stop-color:#1A0F91"/>
				</linearGradient>
				<path style="fill:url(#SVGID_00000039112638537605483280000007401144193317754021_);" d="M3083.431,2498.151
					c-2.656,0.613-5.22-1.275-5.394-3.994c-0.53-8.269-2.213-24.689-7.473-36.223c0,0,4.232-11.328-29.832,3.424
					c-34.064,14.752-85.178,36.329-112.67,18.539c-26.803-17.345-48.828-95.01,24.191-74.741c2.778,0.771,5.566-1.257,5.599-4.14
					c0.143-12.443,3.797-40.788,33.385-47.461c27.688-6.245,41.409,7.183,46.865,15.048c1.605,2.314,4.929,2.554,6.825,0.472
					c8.976-9.855,32.822-30.425,63.895-13.442c25.594,13.989,28.333,30.722,27.023,40.892c-0.424,3.295,2.741,5.823,5.865,4.694
					c8.465-3.056,21.731-3.888,32.939,12.906c15.495,23.218-10.906,39.953-18.764,44.26c-1.288,0.706-2.16,1.983-2.294,3.446
					c-1.034,11.299-4.993,61.651-32.081,87.357c-2.345,2.226-8.248-0.008-9.241-3.085l-15.161-46.962
					c-0.704-2.181-2.96-3.461-5.193-2.946L3083.431,2498.151z"/>
				
					<linearGradient id="SVGID_00000097483320970504068790000010770486702041244039_" gradientUnits="userSpaceOnUse" x1="2272.0037" y1="2558.8032" x2="2219.26" y2="2384.842" gradientTransform="matrix(-0.9964 -0.085 -0.085 0.9964 5543.4702 233.0212)">
					<stop  offset="0" style="stop-color:#FEBBBA"/>
					<stop  offset="1" style="stop-color:#FF928E"/>
				</linearGradient>
				<path style="fill:url(#SVGID_00000097483320970504068790000010770486702041244039_);" d="M3079.682,2504.577
					c0,0,15.657-46.338,31.999-29.466c16.341,16.872-8.797,48.795-29.568,53.517L3079.682,2504.577z"/>
			</g>
			
				<linearGradient id="SVGID_00000116213287525839890630000006385328022567556003_" gradientUnits="userSpaceOnUse" x1="2346.8704" y1="3163.6384" x2="2372.51" y2="3253.5918">
				<stop  offset="0" style="stop-color:#09005D"/>
				<stop  offset="1" style="stop-color:#1A0F91"/>
			</linearGradient>
			<path style="fill:url(#SVGID_00000116213287525839890630000006385328022567556003_);" d="M2421.842,3188.451
				c-7.518,0.085-39.155-13.813-39.155-13.813l-29.468,7.87c-25.684-3.951-47.742,4.794-62.607,13.683
				c-3.247,1.941-4.807,5.808-3.828,9.463c0.979,3.655,4.261,6.218,8.044,6.281c29.085,0.482,76.846,0.967,101.037-0.48
				C2432.106,3209.287,2437.597,3210.329,2421.842,3188.451z"/>
			
				<linearGradient id="SVGID_00000134948840044699405750000017475204257485908106_" gradientUnits="userSpaceOnUse" x1="-3487.3506" y1="2762.1165" x2="-3305.2844" y2="2762.1165" gradientTransform="matrix(-1 0 0 1 -811.1446 0)">
				<stop  offset="0" style="stop-color:#09005D"/>
				<stop  offset="1" style="stop-color:#1A0F91"/>
			</linearGradient>
			<path style="fill:url(#SVGID_00000134948840044699405750000017475204257485908106_);" d="M2676.206,2875.711l-63.698-212.428
				c-2.599-8.667-10.297-14.815-19.324-15.432l-86.001-5.884c-8.741-0.598-15.244,7.941-12.342,16.209l71.209,202.867
				c2.294,6.536,8.161,11.155,15.053,11.851l84.689,9.405L2676.206,2875.711z"/>
			
				<linearGradient id="SVGID_00000183965784703888399790000017828535117942104254_" gradientUnits="userSpaceOnUse" x1="-3465.2529" y1="2841.7024" x2="-3610.834" y2="2881.6023" gradientTransform="matrix(-1 0 0 1 -811.1446 0)">
				<stop  offset="0" style="stop-color:#09005D"/>
				<stop  offset="1" style="stop-color:#1A0F91"/>
			</linearGradient>
			<path style="fill:url(#SVGID_00000183965784703888399790000017828535117942104254_);" d="M2665.792,2882.297
				c0.138,0,0.277-0.003,0.416-0.011l180.453-9.121c4.461-0.224,7.894-4.023,7.669-8.484c-0.225-4.462-4.041-7.969-8.486-7.669
				l-180.453,9.121c-4.461,0.224-7.894,4.023-7.669,8.484C2657.94,2878.938,2661.513,2882.297,2665.792,2882.297z"/>
			
				<linearGradient id="SVGID_00000041975875898143042240000014639899447271437989_" gradientUnits="userSpaceOnUse" x1="-3755.6501" y1="1916.3602" x2="-3421.6216" y2="1459.3912" gradientTransform="matrix(-0.9515 -0.3075 -0.3075 0.9515 -137.957 -53.904)">
				<stop  offset="0" style="stop-color:#FEBBBA"/>
				<stop  offset="1" style="stop-color:#FF928E"/>
			</linearGradient>
			<path style="fill:url(#SVGID_00000041975875898143042240000014639899447271437989_);" d="M2934.15,2856.691
				c0,0-35.383,45.577-136.641-13.309c0,0-28.614-26.329-58.073-23.373s-50.834,43.034-50.834,43.034l56.851-1.166
				c0,0,78.93,95.772,243.942,95.772C2994.021,2920.934,2956.273,2889.79,2934.15,2856.691z"/>
			
				<linearGradient id="SVGID_00000016034641894142444360000011984939875922436030_" gradientUnits="userSpaceOnUse" x1="3637.8352" y1="2363.4897" x2="3130.1609" y2="2848.3984">
				<stop  offset="0" style="stop-color:#09005D"/>
				<stop  offset="1" style="stop-color:#1A0F91"/>
			</linearGradient>
			<path style="fill:url(#SVGID_00000016034641894142444360000011984939875922436030_);" d="M3074.292,2625.363
				c-21.545,4.737-45.447,27.515-62.35,46.7c-13.563,15.393-23.37,33.324-29.118,53.018
				c-12.95,44.374-41.289,131.201-60.042,139.503c42.464,60.311,49.621,80.048,49.621,80.048
				c-7.981,71.966-24.699,86.361-24.699,86.361s82.945,82.331,183.397,105.758c91.486-67.355,105.478-260.04,105.478-260.04
				C3243.743,2648.174,3138.191,2611.314,3074.292,2625.363z"/>
			
				<linearGradient id="SVGID_00000061433884613667613980000010990938441419776154_" gradientUnits="userSpaceOnUse" x1="3000.0586" y1="2874.4138" x2="3396.1819" y2="2672.9377">
				<stop  offset="0" style="stop-color:#4F52FF"/>
				<stop  offset="1" style="stop-color:#4042E2"/>
			</linearGradient>
			<path style="fill:url(#SVGID_00000061433884613667613980000010990938441419776154_);" d="M2971.633,2947.042
				c-0.579,0-1.156-0.241-1.563-0.716c-0.746-0.864-0.649-2.167,0.214-2.913c0.829-0.719,83.291-72.713,105.48-165.119
				c0.268-1.108,1.386-1.789,2.491-1.526c1.11,0.266,1.792,1.381,1.526,2.491c-22.506,93.723-105.957,166.557-106.8,167.281
				C2972.593,2946.879,2972.113,2947.042,2971.633,2947.042z"/>
			
				<linearGradient id="SVGID_00000175290079843656674490000000672821363787807673_" gradientUnits="userSpaceOnUse" x1="2658.4749" y1="2760.0696" x2="2870.0317" y2="3502.2837">
				<stop  offset="0" style="stop-color:#4F52FF"/>
				<stop  offset="1" style="stop-color:#4042E2"/>
			</linearGradient>
			<path style="fill:url(#SVGID_00000175290079843656674490000000672821363787807673_);" d="M3131.101,3136.751
				c0,0-41.182,122.447-244.444,53.811c-98.556-33.28-236.561-226.226-236.561-226.226s-34.044,93.346-211.95,218.539
				l-39.535-35.508c0,0,180.102-310.42,272.35-278.207C2763.208,2901.374,3159.287,3057.316,3131.101,3136.751z"/>
			<polygon style="fill:#91B3FA;" points="2515.83,2657.351 2585.173,2850.646 2658.814,2848.729 2600.11,2663.282 			"/>
		</g>
		<g>
			<path style="fill:#91B3FA;" d="M1501.652,1224.248v307.81c0,36.572,28.737,66.691,65.268,68.407l384.925,18.086
				c39.041,1.834,71.697-29.324,71.697-68.408v-325.895c0-37.822-30.66-68.482-68.482-68.482h-384.925
				C1532.313,1155.766,1501.652,1186.426,1501.652,1224.248z"/>
			<path style="fill:#FFFFFF;" d="M1641.096,1543.048c-4.975,0-9.177-0.06-12.507-0.127c-5.684-0.114-10.347-4.3-11.073-9.95
				c-0.728-5.69,2.752-10.946,8.276-12.504l0.017-0.006c29.561-8.285,61.776-22.361,85.51-33.761
				c-113.189-9.227-135.787-67.361-140.153-93.953c-11.02-67.06,47.183-142.939,129.739-169.149
				c84.247-26.727,169.584-17.098,217.44,24.545c25.429,22.132,53.01,64.512,40.005,140.779
				C1934.025,1531.614,1711.5,1543.048,1641.096,1543.048z M1631.368,1540.233h0.007H1631.368z M1629.014,1522.38h0.026H1629.014z
				 M1792.55,1466.581l-35.86,19.993c-1.888,1.049-33.452,18.555-71.84,34.61c87.386-5.27,235.226-29.956,253.252-135.711
				c9.148-53.68-2.033-94.675-33.239-121.829c-48.41-42.139-134.188-40.627-197.745-20.467
				c-71.977,22.854-124.955,89.82-115.687,146.242c8.415,51.218,66.741,79.87,160.069,77.912L1792.55,1466.581z"/>
		</g>
		<g>
			<path style="fill:#91B3FA;" d="M1998.915,2116.618l15.055,305.491c0.94,19.072,15.836,34.511,34.863,36.133l456.717,38.916
				c18.999,1.619,36.262-11.028,40.455-29.629c15.167-67.282,46.855-224.446,38.018-328.404
				c-1.488-17.505-14.61-31.797-31.952-34.606c-182.083-29.494-356.132-41.575-518.259-27.81
				C2013.331,2078.447,1997.904,2096.089,1998.915,2116.618z"/>
			
				<ellipse transform="matrix(0.7071 -0.7071 0.7071 0.7071 -921.6351 2155.3027)" style="fill:#FFFFFF;" cx="2140.863" cy="2190.163" rx="28.09" ry="28.09"/>
			<path style="fill:#FFFFFF;" d="M2507.603,2222.708c-1.032,0-2.08-0.126-3.128-0.387c-80.309-20.037-171.98-26.351-280.244-19.298
				c-7.122,0.473-13.236-4.921-13.698-12.022c-0.462-7.104,4.921-13.236,12.022-13.698c110.972-7.22,205.223-0.682,288.158,20.01
				c6.906,1.722,11.107,8.718,9.385,15.624C2518.637,2218.796,2513.38,2222.708,2507.603,2222.708z"/>
			<path style="fill:#FFFFFF;" d="M2496.167,2288.535c-1.379,0-2.78-0.223-4.157-0.692
				c-107.839-36.728-265.387-16.948-266.965-16.745c-7.077,0.908-13.52-4.072-14.434-11.129c-0.911-7.059,4.07-13.52,11.129-14.433
				c6.686-0.865,165.123-20.736,278.58,17.911c6.737,2.294,10.34,9.617,8.044,16.353
				C2506.539,2285.158,2501.53,2288.535,2496.167,2288.535z"/>
			<path style="fill:#FFFFFF;" d="M2496.167,2349.808c-1.379,0-2.78-0.223-4.157-0.692
				c-107.727-36.689-265.39-16.951-266.967-16.746c-7.053,0.896-13.518-4.072-14.43-11.13c-0.911-7.058,4.069-13.518,11.127-14.432
				c6.69-0.863,165.125-20.729,278.58,17.91c6.737,2.294,10.34,9.617,8.044,16.354
				C2506.539,2346.432,2501.53,2349.808,2496.167,2349.808z"/>
		</g>
		<g>
			
				<linearGradient id="SVGID_00000030479001844336624720000009224569728258597818_" gradientUnits="userSpaceOnUse" x1="1338.4585" y1="1442.5453" x2="826.229" y2="1963.8812">
				<stop  offset="0" style="stop-color:#A22B25"/>
				<stop  offset="1" style="stop-color:#C0423C"/>
			</linearGradient>
			<path style="fill:url(#SVGID_00000030479001844336624720000009224569728258597818_);" d="M1471.286,1754.994
				c-0.502-0.193-270.769-473.495-307.29-518.037c-6.144-7.491-15.653-11.306-25.275-10.16l-75.435,8.99l-88.622,191.72
				l147.64-85.983c-14.609,101.037,175.055,251.192,240.102,305.981c6.601,5.56,7.143,15.52,1.181,21.761l-25.968,27.184
				c42.633,43.214,91.829,70.963,147.354,83.797L1471.286,1754.994z"/>
			
				<linearGradient id="SVGID_00000132768231185235225620000001774162337879470778_" gradientUnits="userSpaceOnUse" x1="231.7752" y1="-509.4779" x2="199.0655" y2="-7.9297" gradientTransform="matrix(-0.8974 -0.4412 -0.4412 0.8974 1463.5791 2161.1482)">
				<stop  offset="0" style="stop-color:#09005D"/>
				<stop  offset="1" style="stop-color:#1A0F91"/>
			</linearGradient>
			<path style="fill:url(#SVGID_00000132768231185235225620000001774162337879470778_);" d="M1352.641,1681.778
				c0,0-16.573,5.354-22.185,20.115c-2.684,7.063,0.209,15.062,6.352,19.462c27.291,19.552,117.31,82.676,158.853,95.039
				c3.405,1.013,6.644-2.067,5.878-5.536c-2.131-9.65-9.027-28.922-31.243-57.133l1.993,4.031c2.522,5.102-3.033,10.414-7.99,7.616
				C1436.514,1749.688,1379.92,1715.358,1352.641,1681.778z"/>
			
				<linearGradient id="SVGID_00000171682219735274633950000014482188085692694915_" gradientUnits="userSpaceOnUse" x1="884.7354" y1="2328.3557" x2="1215.5914" y2="1542.5742">
				<stop  offset="0" style="stop-color:#A22B25"/>
				<stop  offset="1" style="stop-color:#C0423C"/>
			</linearGradient>
			<path style="fill:url(#SVGID_00000171682219735274633950000014482188085692694915_);" d="M1366.016,1871.158
				c-0.453-0.291-41.002-97.987-41.455-98.276c-37.179-226.359-127.887-420.218-154.638-471.229
				c-4.501-8.58-13.041-14.24-22.696-15.065l-75.694-6.463l-125.588,169.819l161.986-54.326
				c-34.754,95.99,120.598,281.421,173.211,348.241c5.339,6.781,3.854,16.644-3.247,21.55l-30.933,21.366
				c33.006,50.948,75.568,88.079,127.347,111.884L1366.016,1871.158z"/>
			
				<linearGradient id="SVGID_00000018236521026724966380000012044725306523142331_" gradientUnits="userSpaceOnUse" x1="932.7367" y1="-1134.6514" x2="900.0294" y2="-633.1403" gradientTransform="matrix(-0.7895 -0.6137 -0.6137 0.7895 1445.9901 3191.1018)">
				<stop  offset="0" style="stop-color:#09005D"/>
				<stop  offset="1" style="stop-color:#1A0F91"/>
			</linearGradient>
			<path style="fill:url(#SVGID_00000018236521026724966380000012044725306523142331_);" d="M1264.642,1775.447
				c0,0-17.314,1.889-25.796,15.209c-4.059,6.374-2.844,14.792,2.281,20.345c22.769,24.67,98.152,104.706,136.332,125.221
				c3.13,1.681,6.926-0.68,6.878-4.232c-0.135-9.882-2.988-30.151-19.034-62.274l1.135,4.351c1.437,5.507-5.078,9.585-9.365,5.842
				C1333.036,1858.925,1284.561,1813.852,1264.642,1775.447z"/>
			<g>
				
					<linearGradient id="SVGID_00000013885747867843094400000012756804262223675273_" gradientUnits="userSpaceOnUse" x1="1040.8942" y1="1092.9963" x2="516.0679" y2="2041.7205">
					<stop  offset="0" style="stop-color:#09005D"/>
					<stop  offset="1" style="stop-color:#1A0F91"/>
				</linearGradient>
				<path style="fill:url(#SVGID_00000013885747867843094400000012756804262223675273_);" d="M717.217,1244.36
					c0,0-68.476,101.849-74.094,148.307c-5.619,46.459,18.935,62.525,90.606,68.449c213.279,17.631,318.417-46.289,318.417-46.289
					c14.59-93.025,24.972-116.691,146.822-167.27c0,0-154.12,12.235-185.137,0.199C982.813,1235.72,717.217,1244.36,717.217,1244.36
					z"/>
			</g>
			<g>
				
					<linearGradient id="SVGID_00000046305837191628916610000006693488705285234305_" gradientUnits="userSpaceOnUse" x1="8880.9111" y1="894.0571" x2="7876.4453" y2="1862.9681" gradientTransform="matrix(1 0 0 1 -7831.7002 0)">
					<stop  offset="0" style="stop-color:#4F52FF"/>
					<stop  offset="1" style="stop-color:#4042E2"/>
				</linearGradient>
				<path style="fill:url(#SVGID_00000046305837191628916610000006693488705285234305_);" d="M902.402,1230.877
					c0,0,79.74-75.929,118.992-126.219c21.218-27.184,27.88-62.972,18.068-96.031c-17.92-60.375-49.767-122.906-52.672-132.638
					c-4.452-14.918-93.861-14.297-93.861-14.297s-175.94,114.187-245.067,307.61l77.634,24.169c0,0,45.938-77.069,91.327-126.069
					c0,0-78.54,103.754-81.306,146.228L902.402,1230.877z"/>
				
					<linearGradient id="SVGID_00000093894865424895804830000005496663026350202807_" gradientUnits="userSpaceOnUse" x1="1004.6082" y1="694.0162" x2="897.6091" y2="960.3755">
					<stop  offset="0" style="stop-color:#A22B25"/>
					<stop  offset="1" style="stop-color:#C0423C"/>
				</linearGradient>
				<path style="fill:url(#SVGID_00000093894865424895804830000005496663026350202807_);" d="M997.602,792.616
					c-0.934,3.101-24.27,80.464-26.095,82.07c-1.825,1.606-51.178,4.26-74.408-11.616l47.414-104.886L997.602,792.616z"/>
				
					<linearGradient id="SVGID_00000167376099449208209180000016960672832388823727_" gradientUnits="userSpaceOnUse" x1="414.8789" y1="14110.6221" x2="453.5806" y2="13716.7764" gradientTransform="matrix(-0.723 -0.6909 -0.6909 0.723 1085.594 3572.7656)">
					<stop  offset="0" style="stop-color:#A22B25"/>
					<stop  offset="1" style="stop-color:#C0423C"/>
				</linearGradient>
				<path style="fill:url(#SVGID_00000167376099449208209180000016960672832388823727_);" d="M1061.784,705.716
					c0,0,16.615,38.376-2.906,96.722c-19.521,58.345-51.421,63.414-71.624,48.991c-20.202-14.424-46.398-40.198-49.655-93.05
					C934.342,705.526,1038.897,657.176,1061.784,705.716z"/>
				
					<linearGradient id="SVGID_00000006681747374084431200000011061588768321688755_" gradientUnits="userSpaceOnUse" x1="2262.6394" y1="-2249.1729" x2="1948.8605" y2="-1922.7162" gradientTransform="matrix(-0.723 -0.6909 -0.6909 0.723 1085.594 3572.7656)">
					<stop  offset="0" style="stop-color:#09005D"/>
					<stop  offset="1" style="stop-color:#1A0F91"/>
				</linearGradient>
				<path style="fill:url(#SVGID_00000006681747374084431200000011061588768321688755_);" d="M977.021,754.941
					c0,0,35.253-78.965,88.126-29.776l4.08,20.326c0,0,50.352-14.344,33.804-59.971c-16.549-45.627-76.721-76.579-130.575-47.005
					c-53.854,29.573-72.159,64.408-69.264,105.943c2.894,41.536,34.025,27.323,34.025,27.323s5.991-30.537,20.616-35.964
					c14.625-5.426,14.312,17.689,14.312,17.689L977.021,754.941z"/>
				
					<linearGradient id="SVGID_00000070079209627578302360000003161582682331557250_" gradientUnits="userSpaceOnUse" x1="473.5666" y1="14116.4004" x2="512.2683" y2="13722.5537" gradientTransform="matrix(-0.723 -0.6909 -0.6909 0.723 1085.594 3572.7656)">
					<stop  offset="0" style="stop-color:#A22B25"/>
					<stop  offset="1" style="stop-color:#C0423C"/>
				</linearGradient>
				<path style="fill:url(#SVGID_00000070079209627578302360000003161582682331557250_);" d="M964.899,755.905
					c0,0,18.36-40.486-7.357-41.95c-25.717-1.463-15.254,39.027-10.129,53.802L964.899,755.905z"/>
				
					<linearGradient id="SVGID_00000069389291937642770440000002955685445105551012_" gradientUnits="userSpaceOnUse" x1="-225.0172" y1="1218.3192" x2="199.4362" y2="1218.3192" gradientTransform="matrix(-1 0 0 1 564.763 0)">
					<stop  offset="0" style="stop-color:#A22B25"/>
					<stop  offset="1" style="stop-color:#C0423C"/>
				</linearGradient>
				<path style="fill:url(#SVGID_00000069389291937642770440000002955685445105551012_);" d="M1054.332,1260.84l-59.917-65.19
					l-69.197,18.633c0,0-80.673,12.499-126.845,0c-46.173-12.499-46.173-12.499-46.173-12.499l-104.339-32.483l-16.388,46.313
					c-4.16,11.758,0.021,24.812,10.188,32.037c9.027,6.415,19.608,13.464,26.352,16.415c13.741,6.01,316.528,1.9,316.528,1.9
					L1054.332,1260.84z"/>
				
					<linearGradient id="SVGID_00000178167621355788371850000003883056397958743997_" gradientUnits="userSpaceOnUse" x1="2062.8757" y1="-1907.468" x2="1719.7563" y2="-1550.4856" gradientTransform="matrix(-0.7808 -0.6248 -0.6248 0.7808 1169.4882 3172.542)">
					<stop  offset="0" style="stop-color:#09005D"/>
					<stop  offset="1" style="stop-color:#1A0F91"/>
				</linearGradient>
				<path style="fill:url(#SVGID_00000178167621355788371850000003883056397958743997_);" d="M950.299,667.781
					c14.408-1.754,20.204-19.556,10.405-30.263c-31.632-34.563-91.341-72.912-176.406-14.067
					c-95.822,66.287-147.666,96.278-171.205,89.985c-15.458-4.132-28.899,11.158-21.598,25.396
					c5.398,10.527,16.387,21.522,36.693,31.542C784.824,847.662,865.789,678.069,950.299,667.781z"/>
			</g>
			<g>
				
					<linearGradient id="SVGID_00000049907714733430124390000016523068783919794359_" gradientUnits="userSpaceOnUse" x1="1050.1011" y1="786.3644" x2="993.1871" y2="1284.9327">
					<stop  offset="0" style="stop-color:#4F52FF"/>
					<stop  offset="1" style="stop-color:#4042E2"/>
				</linearGradient>
				<path style="fill:url(#SVGID_00000049907714733430124390000016523068783919794359_);" d="M856,1286.641
					c0.211,0.011,0.422,0.016,0.634,0.015l275.59-0.301c6.813-0.006,12.33-5.534,12.323-12.347
					c-0.007-6.816-5.556-12.445-12.349-12.323l-275.591,0.301c-6.812,0.006-12.329,5.534-12.322,12.347
					C844.292,1280.934,849.483,1286.318,856,1286.641z"/>
				
					<linearGradient id="SVGID_00000012460517647709179080000014533082600382081186_" gradientUnits="userSpaceOnUse" x1="-545.0067" y1="1069.9746" x2="-702.5572" y2="1236.4957" gradientTransform="matrix(-1 0 0 1 564.763 0)">
					<stop  offset="0" style="stop-color:#09005D"/>
					<stop  offset="1" style="stop-color:#1A0F91"/>
				</linearGradient>
				<path style="fill:url(#SVGID_00000012460517647709179080000014533082600382081186_);" d="M1379.967,1036.422h-229.513
					c-16.931,0-32.342,9.771-39.564,25.085l-106.104,224.988h285.224c10.911,0,20.714-6.667,24.724-16.815l82.279-208.192
					C1401.768,1049.458,1392.902,1036.422,1379.967,1036.422z"/>
				
					<linearGradient id="SVGID_00000177452118059703067110000017023936400875183758_" gradientUnits="userSpaceOnUse" x1="-640.2532" y1="1111.437" x2="-711.7398" y2="1219.0875" gradientTransform="matrix(-1 0 0 1 564.763 0)">
					<stop  offset="0" style="stop-color:#4F52FF"/>
					<stop  offset="1" style="stop-color:#4042E2"/>
				</linearGradient>
				<path style="fill:url(#SVGID_00000177452118059703067110000017023936400875183758_);" d="M1218.273,1151.78
					c-4.974,15.452-1.299,30.459,8.207,33.518c9.506,3.06,21.244-6.986,26.218-22.438c4.974-15.452,1.299-30.459-8.207-33.519
					C1234.985,1126.281,1223.247,1136.328,1218.273,1151.78z"/>
			</g>
		</g>
	</g>
</g>
</svg>
