<?xml version="1.0" encoding="utf-8"?>
<!-- Generator: Adobe Illustrator 27.5.0, SVG Export Plug-In . SVG Version: 6.00 Build 0)  -->
<svg version="1.1" id="Layer_1" xmlns="http://www.w3.org/2000/svg" xmlns:xlink="http://www.w3.org/1999/xlink" x="0px" y="0px"
	 viewBox="0 0 144 144" style="enable-background:new 0 0 144 144;" xml:space="preserve">
<g>
	<radialGradient id="SVGID_1_" cx="55.4521" cy="69.1199" r="114.4554" gradientUnits="userSpaceOnUse">
		<stop  offset="0" style="stop-color:#FFFFFF"/>
		<stop  offset="0.3108" style="stop-color:#FBFBFB"/>
		<stop  offset="0.6166" style="stop-color:#EFF0F0"/>
		<stop  offset="0.9195" style="stop-color:#DCDDDE"/>
		<stop  offset="1" style="stop-color:#D5D7D8"/>
	</radialGradient>
	<rect y="0" style="fill:url(#SVGID_1_);" width="144" height="144"/>
	<g>
		<g>
			<defs>
				<filter id="Adobe_OpacityMaskFilter" filterUnits="userSpaceOnUse" x="17.262" y="38.471" width="114.683" height="51.986">
					<feColorMatrix  type="matrix" values="1 0 0 0 0  0 1 0 0 0  0 0 1 0 0  0 0 0 1 0"/>
				</filter>
			</defs>
			
				<mask maskUnits="userSpaceOnUse" x="17.262" y="38.471" width="114.683" height="51.986" id="SVGID_00000126284536120152451780000014979175415581702288_">
				<g style="filter:url(#Adobe_OpacityMaskFilter);">
					
						<linearGradient id="SVGID_00000048476723064703761160000006097714233292185277_" gradientUnits="userSpaceOnUse" x1="74.8362" y1="69.6944" x2="43.3821" y2="83.5109">
						<stop  offset="0.3333" style="stop-color:#FFFFFF"/>
						<stop  offset="0.7213" style="stop-color:#686868"/>
						<stop  offset="1" style="stop-color:#000000"/>
					</linearGradient>
					<path style="fill:url(#SVGID_00000048476723064703761160000006097714233292185277_);" d="M146.025,67.09
						c0,36.041-29.217,65.26-65.259,65.26s-65.26-29.219-65.26-65.26c0-36.043,29.218-65.26,65.26-65.26
						S146.025,31.046,146.025,67.09z"/>
				</g>
			</mask>
			<g style="mask:url(#SVGID_00000126284536120152451780000014979175415581702288_);">
				
					<radialGradient id="SVGID_00000165227639408162187750000011863378935304216450_" cx="54.2603" cy="472.6123" r="35.8" gradientTransform="matrix(0 1 -1 0 533.6035 39.2015)" gradientUnits="userSpaceOnUse">
					<stop  offset="0" style="stop-color:#FFFFFF"/>
					<stop  offset="0.4424" style="stop-color:#1CC4F7"/>
					<stop  offset="0.9371" style="stop-color:#1E2559"/>
				</radialGradient>
				<path style="fill:url(#SVGID_00000165227639408162187750000011863378935304216450_);" d="M26.553,70.764
					c1.576-0.697,2.88-1.047,4.127-1.346c1.247-0.287,2.441-0.49,3.619-0.645c2.352-0.305,4.64-0.414,6.902-0.387
					c4.517,0.061,8.92,0.686,13.142,1.781c4.22,1.096,8.249,2.676,11.991,4.648c3.746,1.971,7.204,4.332,10.346,6.969
					c1.14,0.957,1.287,2.654,0.33,3.795c-0.804,0.959-2.136,1.215-3.218,0.701l-0.028-0.014c-3.391-1.611-6.889-2.852-10.418-3.676
					c-3.53-0.82-7.087-1.229-10.583-1.219c-3.494,0.01-6.934,0.436-10.172,1.25c-1.614,0.406-3.182,0.914-4.619,1.514
					c-0.717,0.297-1.401,0.623-2.001,0.955c-0.593,0.33-1.116,0.688-1.256,0.912c-2.754,4.426-8.575,5.781-13.001,3.027
					c-4.426-2.754-5.779-8.574-3.026-13c1.043-1.674,2.522-2.908,4.2-3.649L26.553,70.764z"/>
				<path style="opacity:0.44;fill:#FFFFFF;" d="M21.893,82.984c0-1.068,0.3-2.115,0.869-3.029c0.614-0.986,1.498-1.756,2.554-2.219
					l3.67-1.623c1.34-0.592,2.461-0.883,3.494-1.129c1.004-0.232,2.07-0.422,3.238-0.576c2.053-0.266,4.14-0.383,6.379-0.356
					c4.103,0.057,8.229,0.613,12.259,1.662c3.872,1.006,7.642,2.467,11.199,4.342c1.164,0.613,2.313,1.273,3.439,1.979
					c-1.287-0.406-2.578-0.76-3.871-1.061c-3.791-0.883-7.638-1.326-11.431-1.316c-3.795,0.012-7.517,0.469-11.063,1.361
					c-1.844,0.467-3.572,1.033-5.139,1.688c-0.877,0.365-1.676,0.748-2.373,1.137c-1.323,0.734-2.101,1.389-2.597,2.188
					c-1.674,2.689-5.226,3.516-7.917,1.842C22.906,86.816,21.893,84.988,21.893,82.984z"/>
				
					<radialGradient id="SVGID_00000019654649442074646850000018237792488262642595_" cx="36.7659" cy="434.4635" r="58.5974" gradientTransform="matrix(0 1 -1 0 533.6035 39.2015)" gradientUnits="userSpaceOnUse">
					<stop  offset="0.1394" style="stop-color:#F68640"/>
					<stop  offset="0.1966" style="stop-color:#F58040"/>
					<stop  offset="0.2756" style="stop-color:#F06E40"/>
					<stop  offset="0.3673" style="stop-color:#EA513F"/>
					<stop  offset="0.4678" style="stop-color:#E0283E"/>
					<stop  offset="0.497" style="stop-color:#DD1B3E"/>
					<stop  offset="0.6191" style="stop-color:#D11537"/>
					<stop  offset="0.8368" style="stop-color:#B30425"/>
					<stop  offset="0.8848" style="stop-color:#AB0020"/>
				</radialGradient>
				<path style="fill:url(#SVGID_00000019654649442074646850000018237792488262642595_);" d="M59.639,59.724l0.304,0.317
					c0.06,0.063,0.074,0.082,0.106,0.119l0.09,0.102c0.119,0.138,0.288,0.314,0.438,0.466c0.307,0.316,0.624,0.628,0.956,0.93
					c0.659,0.61,1.368,1.186,2.113,1.723c1.487,1.082,3.111,2.039,4.83,2.801c1.719,0.768,3.521,1.381,5.371,1.777
					c1.853,0.393,3.747,0.592,5.653,0.572c1.906-0.012,3.815-0.266,5.694-0.746c0.234-0.057,0.467-0.125,0.704-0.189l0.831-0.252
					l1.675-0.51l3.397-1.023c4.568-1.34,9.334-2.727,14.462-3.219c2.552-0.24,5.184-0.246,7.783,0.092
					c2.599,0.336,5.148,1.045,7.514,2.055c2.339,1.014,4.638,2.262,6.671,4.123c1.003,0.934,1.948,2.021,2.64,3.34
					c0.692,1.305,1.117,2.844,1.069,4.385c-0.042,1.541-0.529,3.021-1.291,4.258c-0.762,1.232-1.805,2.267-2.938,3.025
					c-0.328,0.219-0.627,0.391-0.954,0.553c-0.325,0.164-0.663,0.303-1.007,0.426c-0.689,0.242-1.422,0.392-2.161,0.434
					c-1.477,0.078-2.982-0.262-4.268-1.043c-0.641-0.394-1.235-0.885-1.726-1.494c-0.493-0.605-0.876-1.33-1.091-2.123
					c-0.105-0.396-0.164-0.807-0.178-1.221c-0.004-0.205,0-0.41,0.02-0.613c0.007-0.104,0.021-0.203,0.036-0.305l0.022-0.154
					l0.021-0.107c0.074-0.412,0.168-0.75,0.301-1.123c0.135-0.361,0.302-0.717,0.508-1.055c0.812-1.348,2.229-2.449,4.009-2.666
					c0.884-0.104,1.863,0.068,2.709,0.547c0.852,0.477,1.487,1.244,1.876,2.018l0.068,0.141c0.447,0.889,0.088,1.973-0.803,2.42
					c-0.891,0.447-1.975,0.088-2.421-0.803c-0.042-0.084-0.078-0.178-0.107-0.262c-0.09-0.287-0.223-0.461-0.375-0.586
					c-0.152-0.127-0.372-0.193-0.645-0.189c-0.273,0.01-0.595,0.098-0.879,0.283c-0.288,0.182-0.546,0.44-0.75,0.754
					c-0.409,0.627-0.61,1.508-0.421,2.129c0.17,0.666,0.705,1.309,1.422,1.719c0.72,0.41,1.594,0.596,2.438,0.504
					c0.423-0.045,0.84-0.148,1.24-0.311c0.202-0.082,0.396-0.18,0.587-0.291c0.188-0.107,0.386-0.242,0.536-0.355
					c1.528-1.129,2.419-2.891,2.278-4.477c-0.101-1.588-1.195-3.043-2.76-4.156c-1.571-1.109-3.536-1.914-5.563-2.494
					c-4.038-1.16-8.168-1.117-12.251-0.102c-2.047,0.492-4.088,1.182-6.134,1.986c-2.046,0.807-4.1,1.717-6.166,2.699l-3.12,1.498
					l-1.578,0.762l-0.797,0.381c-0.311,0.143-0.619,0.285-0.935,0.418c-2.51,1.086-5.17,1.887-7.892,2.398
					c-2.725,0.508-5.516,0.705-8.296,0.607c-2.782-0.098-5.559-0.461-8.28-1.109c-2.72-0.648-5.395-1.549-7.985-2.717
					c-1.294-0.586-2.568-1.238-3.825-1.953c-0.629-0.357-1.249-0.736-1.863-1.133c-0.314-0.201-0.598-0.393-0.931-0.619
					l-0.477-0.338l-0.363-0.248c-3.846-2.623-4.835-7.867-2.211-11.713c2.623-3.845,7.868-4.835,11.714-2.209
					C58.773,58.906,59.244,59.316,59.639,59.724z"/>
				<path style="opacity:0.44;fill:#FFFFFF;" d="M50.639,67.252c0-0.953,0.286-1.873,0.828-2.666
					c0.712-1.043,1.79-1.748,3.034-1.984c1.243-0.234,2.504,0.029,3.549,0.744c0.257,0.174,0.539,0.414,0.777,0.662l0.279,0.293
					l0.084,0.096c0.175,0.201,0.397,0.436,0.594,0.637c0.38,0.389,0.742,0.738,1.104,1.07c0.747,0.689,1.573,1.365,2.442,1.992
					c1.733,1.264,3.587,2.336,5.494,3.182c2.022,0.904,4.077,1.582,6.099,2.014c2.142,0.455,4.316,0.674,6.459,0.652
					c2.173-0.014,4.382-0.303,6.551-0.855c0.195-0.049,0.388-0.1,0.582-0.156l0.243-0.064l2.566-0.781l3.387-1.02
					c4.365-1.281,8.906-2.611,13.739-3.078c-0.024,0.006-0.049,0.014-0.074,0.018c-2.003,0.48-4.169,1.182-6.591,2.135
					c-2.046,0.807-4.14,1.723-6.405,2.803l-3.126,1.498l-2.345,1.131l-0.174,0.078c-0.21,0.096-0.42,0.193-0.632,0.283
					c-2.265,0.977-4.658,1.703-7.139,2.17c-2.421,0.451-4.942,0.635-7.483,0.545c-2.573-0.09-5.112-0.428-7.555-1.01
					c-2.543-0.607-5.008-1.447-7.323-2.492c-1.154-0.521-2.339-1.127-3.521-1.797c-0.536-0.305-1.104-0.652-1.686-1.027
					c-0.279-0.18-0.532-0.344-0.823-0.549l-0.502-0.352l-0.363-0.248C51.413,70.289,50.639,68.824,50.639,67.252z"/>
				
					<radialGradient id="SVGID_00000147909622900657053320000017535348023913029309_" cx="7.3225" cy="459.4969" r="51.7826" gradientTransform="matrix(0 1 -1 0 533.6035 39.2015)" gradientUnits="userSpaceOnUse">
					<stop  offset="0.2364" style="stop-color:#000000"/>
					<stop  offset="0.4242" style="stop-color:#414242"/>
					<stop  offset="0.5008" style="stop-color:#717171"/>
					<stop  offset="0.5822" style="stop-color:#9C9C9C"/>
					<stop  offset="0.665" style="stop-color:#C0C0C0"/>
					<stop  offset="0.748" style="stop-color:#DBDCDC"/>
					<stop  offset="0.8312" style="stop-color:#EFEFEF"/>
					<stop  offset="0.915" style="stop-color:#FBFBFB"/>
					<stop  offset="1" style="stop-color:#FFFFFF"/>
				</radialGradient>
				<path style="fill:url(#SVGID_00000147909622900657053320000017535348023913029309_);" d="M44.192,51.184
					c0.358,1.892,0.782,3.672,1.232,5.332c0.448,1.663,0.945,3.185,1.5,4.511c0.268,0.669,0.574,1.27,0.891,1.834
					c0.313,0.568,0.659,1.08,1.05,1.557c0.777,0.949,1.771,1.766,3.038,2.443c1.262,0.67,2.759,1.199,4.361,1.58
					c0.798,0.197,1.643,0.359,2.442,0.484c0.801,0.129,1.607,0.203,2.417,0.25c0.81,0.041,1.621,0.031,2.438-0.01
					c0.815-0.051,1.634-0.139,2.459-0.27c1.65-0.264,3.318-0.703,5.073-1.215c1.754-0.512,3.609-1.107,5.682-1.484
					c1.033-0.19,2.124-0.301,3.232-0.305c1.107-0.002,2.23,0.115,3.313,0.344c0.541,0.113,1.069,0.26,1.589,0.42l0.656,0.209
					c0.145,0.043,0.334,0.094,0.502,0.133c0.7,0.164,1.453,0.246,2.225,0.266c1.551,0.029,3.182-0.203,4.79-0.607
					c3.223-0.83,6.379-2.318,9.19-4.219c0.701-0.476,1.375-0.989,2.029-1.506c0.643-0.539,1.269-1.081,1.833-1.661
					c0.283-0.29,0.558-0.581,0.815-0.873c0.252-0.301,0.49-0.6,0.708-0.896c0.42-0.601,0.778-1.208,0.869-1.705
					c0.685-3.794,4.315-6.313,8.108-5.629c3.795,0.686,6.315,4.316,5.63,8.11c-0.325,1.794-1.308,3.305-2.656,4.326l-1.942,1.463
					c-1.146,0.863-2.167,1.473-3.184,2.02c-0.5,0.275-0.997,0.525-1.491,0.76c-0.49,0.24-0.976,0.469-1.461,0.682
					c-0.972,0.422-1.922,0.828-2.885,1.184c-0.948,0.377-1.905,0.711-2.856,1.029c-1.906,0.643-3.817,1.201-5.75,1.676
					c-1.933,0.475-3.891,0.863-5.895,1.107c-2.003,0.244-4.056,0.359-6.176,0.176c-1.061-0.09-2.137-0.262-3.215-0.555
					c-0.277-0.072-0.528-0.148-0.822-0.244l-0.65-0.229c-0.355-0.125-0.712-0.219-1.068-0.299c-1.426-0.324-2.862-0.271-4.395,0.076
					c-1.533,0.342-3.153,0.978-4.875,1.65c-1.719,0.678-3.546,1.391-5.475,1.961c-1.925,0.58-3.945,1.021-5.996,1.279
					c-1.024,0.135-2.057,0.213-3.089,0.268c-1.037,0.045-2.025,0.057-3.054,0.049c-2.042-0.033-4.177-0.184-6.41-0.646
					c-2.225-0.457-4.575-1.272-6.751-2.514c-1.087-0.613-2.126-1.318-3.097-2.064c-0.971-0.744-1.854-1.547-2.7-2.338
					c-3.339-3.211-5.832-6.35-8.613-9.027c-3.902-3.755-4.02-9.961-0.266-13.863c3.757-3.901,9.963-4.019,13.864-0.264
					c1.525,1.468,2.472,3.311,2.836,5.242L44.192,51.184z"/>
				
					<radialGradient id="SVGID_00000076569329832840253290000007925048057684338605_" cx="24.3304" cy="454.908" r="56.9734" gradientTransform="matrix(0 1 -1 0 533.6035 39.2015)" gradientUnits="userSpaceOnUse">
					<stop  offset="0.0848" style="stop-color:#F7E705"/>
					<stop  offset="0.184" style="stop-color:#F8DF05"/>
					<stop  offset="0.3408" style="stop-color:#F9C805"/>
					<stop  offset="0.5355" style="stop-color:#FBA304"/>
					<stop  offset="0.7589" style="stop-color:#FF7004"/>
					<stop  offset="0.7697" style="stop-color:#FF6D04"/>
					<stop  offset="1" style="stop-color:#C5331C"/>
				</radialGradient>
				<path style="fill:url(#SVGID_00000076569329832840253290000007925048057684338605_);" d="M44.747,49.986
					c0.356,1.891,0.781,3.67,1.231,5.332c0.448,1.661,0.946,3.184,1.498,4.51c0.27,0.669,0.576,1.271,0.892,1.835
					c0.313,0.568,0.66,1.08,1.05,1.558c0.776,0.947,1.771,1.766,3.039,2.441c1.261,0.672,2.757,1.199,4.36,1.582
					c0.797,0.195,1.642,0.355,2.44,0.482c0.802,0.131,1.608,0.203,2.419,0.248c0.808,0.043,1.62,0.035,2.437-0.006
					c0.816-0.053,1.634-0.141,2.461-0.271c1.649-0.266,3.318-0.701,5.071-1.217c1.754-0.508,3.608-1.105,5.683-1.482
					c1.033-0.189,2.123-0.299,3.231-0.307c1.108,0,2.23,0.117,3.312,0.346c0.541,0.113,1.072,0.26,1.593,0.42l0.655,0.209
					c0.143,0.043,0.331,0.096,0.502,0.133c0.7,0.164,1.45,0.244,2.225,0.264c1.549,0.031,3.182-0.201,4.789-0.607
					c3.222-0.828,6.38-2.316,9.188-4.216c0.702-0.478,1.378-0.989,2.031-1.508c0.643-0.538,1.268-1.079,1.833-1.66
					c0.283-0.29,0.559-0.58,0.813-0.873c0.254-0.301,0.493-0.6,0.709-0.896c0.42-0.6,0.78-1.208,0.869-1.706
					c0.685-3.794,4.316-6.313,8.111-5.627c3.793,0.686,6.313,4.316,5.628,8.109c-0.323,1.794-1.309,3.304-2.657,4.326l-1.941,1.462
					c-1.146,0.861-2.169,1.473-3.184,2.018c-0.501,0.275-0.997,0.527-1.491,0.764c-0.491,0.238-0.976,0.467-1.461,0.68
					c-0.973,0.424-1.922,0.828-2.884,1.184c-0.95,0.379-1.906,0.711-2.86,1.029c-1.904,0.641-3.814,1.201-5.747,1.676
					c-1.934,0.473-3.892,0.861-5.895,1.107c-2.003,0.244-4.057,0.359-6.176,0.178c-1.062-0.092-2.136-0.264-3.217-0.555
					c-0.275-0.074-0.526-0.15-0.821-0.246l-0.649-0.23c-0.354-0.125-0.712-0.219-1.068-0.297c-1.429-0.324-2.862-0.271-4.396,0.076
					c-1.534,0.342-3.153,0.979-4.874,1.65c-1.72,0.678-3.547,1.391-5.474,1.961c-1.925,0.58-3.946,1.021-5.996,1.279
					c-1.024,0.137-2.059,0.213-3.091,0.266c-1.036,0.047-2.025,0.058-3.052,0.049c-2.043-0.033-4.179-0.18-6.412-0.645
					c-2.225-0.457-4.574-1.271-6.75-2.516c-1.087-0.613-2.128-1.316-3.097-2.063c-0.97-0.744-1.854-1.549-2.699-2.336
					c-3.341-3.213-5.833-6.351-8.615-9.029c-3.899-3.754-4.02-9.961-0.265-13.863c3.757-3.901,9.964-4.019,13.864-0.265
					c1.524,1.468,2.473,3.312,2.836,5.243L44.747,49.986z"/>
				<path style="opacity:0.44;fill:#FFFFFF;" d="M30.715,53.741c0-1.589,0.608-3.093,1.709-4.238
					c1.133-1.177,2.655-1.842,4.288-1.875c1.634-0.029,3.18,0.576,4.357,1.708c0.897,0.864,1.5,1.959,1.748,3.169l0.019,0.104
					c0.35,1.851,0.775,3.687,1.297,5.613c0.503,1.865,1.057,3.531,1.646,4.944c0.293,0.729,0.639,1.441,1.085,2.236
					c0.411,0.746,0.877,1.436,1.413,2.092c1.1,1.346,2.5,2.477,4.157,3.361c1.513,0.805,3.275,1.447,5.247,1.916
					c0.81,0.197,1.734,0.383,2.717,0.539c0.576,0.092,1.183,0.166,1.858,0.223c-0.54,0.051-1.125,0.092-1.794,0.127
					c-0.878,0.039-1.785,0.053-2.826,0.043c-2.185-0.035-4.001-0.217-5.695-0.568c-2.03-0.414-3.987-1.145-5.672-2.106
					c-0.896-0.504-1.79-1.102-2.676-1.783c-0.847-0.65-1.659-1.389-2.412-2.092c-1.653-1.592-3.113-3.191-4.526-4.738
					c-1.366-1.498-2.657-2.911-4.067-4.269C31.38,56.983,30.715,55.419,30.715,53.741z M103.833,67.932
					c0.947-0.52,1.875-1.088,2.776-1.697c0.71-0.484,1.425-1.014,2.257-1.674l0.078-0.064c0.686-0.576,1.418-1.207,2.104-1.912
					c0.376-0.385,0.678-0.71,0.951-1.024l0.038-0.042c0.311-0.37,0.602-0.737,0.863-1.094l0.049-0.067
					c0.845-1.206,1.301-2.182,1.479-3.166c0.322-1.785,2.038-2.976,3.822-2.653c1.569,0.283,2.707,1.642,2.707,3.229
					c0,0.197-0.02,0.396-0.054,0.593c-0.148,0.815-0.592,1.539-1.252,2.039l-1.937,1.458c-0.844,0.635-1.653,1.149-2.708,1.717
					c-0.446,0.244-0.871,0.459-1.329,0.678l-0.037,0.018c-0.487,0.238-0.918,0.439-1.32,0.615c-1.002,0.438-1.845,0.793-2.687,1.105
					l-0.08,0.031c-0.916,0.363-1.864,0.689-2.671,0.959C105.863,67.326,104.843,67.643,103.833,67.932z"/>
				
					<radialGradient id="SVGID_00000065787331314140887190000000527528178111153046_" cx="18.3" cy="475.0874" r="32.0361" gradientTransform="matrix(0 1 -1 0 533.6035 39.2015)" gradientUnits="userSpaceOnUse">
					<stop  offset="0.2364" style="stop-color:#000000"/>
					<stop  offset="0.4242" style="stop-color:#414242"/>
					<stop  offset="0.5008" style="stop-color:#717171"/>
					<stop  offset="0.5822" style="stop-color:#9C9C9C"/>
					<stop  offset="0.665" style="stop-color:#C0C0C0"/>
					<stop  offset="0.748" style="stop-color:#DBDCDC"/>
					<stop  offset="0.8312" style="stop-color:#EFEFEF"/>
					<stop  offset="0.915" style="stop-color:#FBFBFB"/>
					<stop  offset="1" style="stop-color:#FFFFFF"/>
				</radialGradient>
				<path style="fill:url(#SVGID_00000065787331314140887190000000527528178111153046_);" d="M42.372,57.635l0.502,0.572
					c0.122,0.142,0.294,0.32,0.444,0.48c0.312,0.324,0.633,0.63,0.961,0.924c0.656,0.588,1.351,1.107,2.073,1.562
					c0.723,0.451,1.479,0.831,2.268,1.137c0.787,0.309,1.605,0.549,2.453,0.709c1.698,0.324,3.518,0.334,5.375,0.051
					c1.854-0.285,3.746-0.832,5.597-1.6c0.462-0.192,0.923-0.398,1.381-0.614l0.682-0.336l0.742-0.384l3.026-1.576
					c2.05-1.058,4.166-2.108,6.384-3.029c2.228-0.893,4.548-1.693,6.984-2.162c1.217-0.236,2.457-0.405,3.708-0.477
					c1.254-0.065,2.514-0.038,3.764,0.098c2.502,0.262,4.931,0.999,7.133,2.063c1.104,0.534,2.149,1.156,3.135,1.845
					c0.244,0.173,0.489,0.348,0.726,0.527l0.658,0.493c0.432,0.313,0.875,0.619,1.333,0.89c0.92,0.535,1.882,0.985,2.878,1.3
					c0.995,0.323,2.031,0.469,3.045,0.42c1.014-0.051,2.013-0.311,2.87-0.828c0.852-0.518,1.558-1.273,2.005-2.165
					c0.448-0.892,0.638-1.918,0.498-2.902c-0.149-0.984-0.627-1.902-1.337-2.607c-1.424-1.36-3.792-2.268-5.41-1.402
					c-0.814,0.401-1.409,1.217-1.669,2.109c-0.134,0.444-0.184,0.913-0.14,1.342c0.037,0.43,0.197,0.811,0.409,1.042
					c0.107,0.117,0.224,0.199,0.354,0.262c0.063,0.029,0.135,0.053,0.208,0.071c0.032,0.008,0.09,0.021,0.103,0.021l0.2,0.036
					c0.443,0.073,0.906,0.064,1.212-0.038c0.313-0.106,0.451-0.245,0.552-0.465c0.048-0.112,0.088-0.249,0.11-0.406
					c0.011-0.077,0.019-0.16,0.02-0.241c0.002-0.041,0-0.081-0.001-0.118l-0.004-0.053c-0.004-0.006-0.006-0.048-0.009-0.003
					c0-0.814,0.661-1.476,1.476-1.476c0.814,0,1.476,0.661,1.476,1.476c-0.005,0.116-0.012,0.146-0.02,0.209l-0.025,0.16
					c-0.018,0.103-0.04,0.203-0.065,0.3c-0.049,0.196-0.105,0.391-0.179,0.583c-0.146,0.384-0.347,0.765-0.627,1.113
					c-0.279,0.348-0.632,0.662-1.031,0.884c-0.397,0.224-0.824,0.352-1.226,0.409c-0.815,0.11-1.503-0.017-2.168-0.179l-0.212-0.059
					c-0.127-0.037-0.204-0.063-0.309-0.104c-0.194-0.075-0.387-0.169-0.568-0.283c-0.364-0.227-0.683-0.534-0.92-0.875
					c-0.48-0.691-0.64-1.459-0.675-2.166c-0.026-0.715,0.097-1.4,0.326-2.041c0.459-1.273,1.387-2.416,2.668-3.049
					c0.638-0.312,1.349-0.468,2.04-0.48c0.689-0.013,1.359,0.105,1.979,0.302c0.623,0.203,1.199,0.452,1.759,0.755
					c0.547,0.294,1.111,0.684,1.592,1.144c0.977,0.92,1.682,2.19,1.918,3.552c0.27,1.357,0.103,2.793-0.446,4.073
					c-0.544,1.283-1.475,2.409-2.633,3.215c-1.149,0.82-2.506,1.328-3.87,1.537c-1.369,0.23-2.743,0.168-4.061-0.029
					c-1.316-0.213-2.588-0.563-3.802-1.018c-0.609-0.22-1.208-0.46-1.796-0.725l-0.841-0.388c-0.232-0.102-0.463-0.194-0.695-0.285
					c-0.926-0.367-1.87-0.625-2.799-0.803c-1.862-0.357-3.667-0.342-5.398-0.066c-3.454,0.571-6.767,2.053-10.304,3.935
					c-1.777,0.916-3.551,2.018-5.425,3.143c-0.938,0.564-1.88,1.172-2.882,1.76l-0.753,0.445l-0.874,0.496
					c-0.587,0.326-1.184,0.639-1.792,0.938c-2.447,1.168-5.088,2.107-7.912,2.631c-2.814,0.527-5.833,0.629-8.809,0.098
					c-1.484-0.256-2.957-0.645-4.365-1.191c-1.403-0.559-2.741-1.25-3.979-2.049c-1.249-0.785-2.366-1.729-3.391-2.703
					c-0.515-0.486-0.995-1.002-1.442-1.531c-0.229-0.27-0.436-0.516-0.675-0.816c-0.262-0.313-0.39-0.527-0.559-0.764L34.83,63.59
					c-1.536-2.168-1.021-5.172,1.147-6.707C38.002,55.451,40.766,55.82,42.372,57.635z"/>
				
					<radialGradient id="SVGID_00000049905055490088192380000014187412017632234157_" cx="3.8858" cy="451.1143" r="58.1759" gradientTransform="matrix(0 1 -1 0 533.6035 39.2015)" gradientUnits="userSpaceOnUse">
					<stop  offset="0" style="stop-color:#FFFFFF"/>
					<stop  offset="0.4424" style="stop-color:#1CC4F7"/>
					<stop  offset="0.9371" style="stop-color:#1E2559"/>
				</radialGradient>
				<path style="fill:url(#SVGID_00000049905055490088192380000014187412017632234157_);" d="M42.833,56.345l0.502,0.571
					c0.122,0.142,0.295,0.32,0.445,0.479c0.311,0.324,0.633,0.631,0.96,0.925c0.656,0.589,1.35,1.108,2.073,1.561
					c0.724,0.453,1.479,0.832,2.268,1.137c0.788,0.309,1.605,0.551,2.454,0.712c1.696,0.323,3.518,0.332,5.374,0.049
					c1.855-0.286,3.744-0.832,5.597-1.601c0.463-0.191,0.923-0.397,1.38-0.615l0.684-0.334l0.742-0.384l3.024-1.576
					c2.051-1.058,4.17-2.109,6.387-3.029c2.225-0.893,4.545-1.694,6.984-2.162c1.217-0.235,2.455-0.406,3.705-0.476
					c1.253-0.066,2.516-0.038,3.764,0.098c2.502,0.263,4.934,0.999,7.136,2.063c1.103,0.534,2.147,1.156,3.132,1.845
					c0.246,0.173,0.49,0.346,0.727,0.528l0.656,0.492c0.437,0.313,0.876,0.618,1.333,0.889c0.922,0.536,1.884,0.984,2.881,1.299
					c0.993,0.325,2.03,0.471,3.047,0.423c1.011-0.054,2.009-0.312,2.866-0.829c0.853-0.518,1.56-1.272,2.005-2.167
					c0.45-0.89,0.638-1.915,0.499-2.901c-0.149-0.984-0.626-1.901-1.337-2.604c-1.425-1.362-3.791-2.271-5.409-1.405
					c-0.815,0.402-1.41,1.218-1.669,2.11c-0.133,0.444-0.183,0.912-0.14,1.341c0.036,0.431,0.196,0.811,0.41,1.041
					c0.104,0.118,0.222,0.203,0.353,0.263c0.065,0.03,0.134,0.052,0.207,0.071c0.031,0.009,0.09,0.02,0.103,0.02l0.199,0.037
					c0.443,0.075,0.907,0.065,1.211-0.037c0.313-0.107,0.451-0.246,0.552-0.467c0.049-0.11,0.089-0.249,0.112-0.404
					c0.012-0.077,0.02-0.161,0.021-0.242c0-0.04,0-0.081-0.003-0.117l-0.005-0.053c-0.001-0.006-0.005-0.048-0.008-0.003
					c0-0.815,0.661-1.477,1.476-1.477c0.815,0,1.477,0.661,1.477,1.477c-0.006,0.115-0.013,0.146-0.021,0.21l-0.024,0.157
					c-0.019,0.104-0.041,0.203-0.065,0.302c-0.05,0.196-0.106,0.39-0.18,0.583c-0.144,0.382-0.346,0.765-0.626,1.113
					c-0.278,0.348-0.633,0.662-1.03,0.883c-0.399,0.225-0.825,0.353-1.227,0.409c-0.814,0.11-1.503-0.016-2.166-0.178l-0.214-0.059
					c-0.126-0.037-0.204-0.064-0.309-0.104c-0.193-0.075-0.387-0.169-0.568-0.283c-0.364-0.228-0.684-0.534-0.92-0.877
					c-0.479-0.688-0.641-1.458-0.675-2.165c-0.027-0.714,0.098-1.399,0.327-2.041c0.458-1.272,1.386-2.415,2.668-3.048
					c0.637-0.313,1.348-0.468,2.038-0.481c0.692-0.014,1.362,0.106,1.981,0.303c0.622,0.202,1.197,0.452,1.759,0.754
					c0.546,0.295,1.109,0.685,1.591,1.145c0.979,0.92,1.684,2.19,1.918,3.551c0.27,1.357,0.103,2.794-0.446,4.072
					c-0.545,1.285-1.475,2.411-2.632,3.216c-1.15,0.819-2.506,1.327-3.871,1.538c-1.369,0.228-2.743,0.167-4.06-0.029
					c-1.316-0.215-2.59-0.564-3.803-1.018c-0.609-0.221-1.208-0.461-1.793-0.725l-0.844-0.389c-0.229-0.102-0.463-0.194-0.695-0.286
					c-0.926-0.366-1.87-0.624-2.799-0.802c-1.862-0.359-3.666-0.342-5.397-0.068c-3.456,0.572-6.767,2.055-10.304,3.937
					c-1.777,0.916-3.552,2.017-5.426,3.142c-0.938,0.564-1.88,1.17-2.882,1.758l-0.752,0.445l-0.874,0.496
					c-0.588,0.326-1.186,0.639-1.794,0.938c-2.447,1.168-5.086,2.109-7.911,2.633c-2.815,0.529-5.831,0.627-8.807,0.098
					c-1.486-0.256-2.96-0.645-4.367-1.191c-1.404-0.559-2.742-1.252-3.979-2.049c-1.249-0.787-2.366-1.729-3.391-2.705
					c-0.514-0.486-0.995-1-1.441-1.529c-0.229-0.27-0.436-0.518-0.676-0.816c-0.26-0.314-0.391-0.527-0.558-0.766l-0.473-0.666
					c-1.533-2.169-1.02-5.17,1.149-6.706C38.462,54.159,41.228,54.529,42.833,56.345z"/>
				<path style="opacity:0.44;fill:#FFFFFF;" d="M37.852,61.246c0-0.176,0.045-0.617,0.473-0.92
					c0.461-0.324,1.119-0.244,1.499,0.187l0.481,0.547c0.131,0.152,0.3,0.331,0.462,0.504l0.082,0.088
					c0.379,0.394,0.759,0.759,1.184,1.14c0.801,0.719,1.668,1.371,2.577,1.941c0.921,0.574,1.897,1.064,2.898,1.449
					c0.995,0.393,2.046,0.697,3.097,0.895c2.088,0.4,4.315,0.424,6.615,0.074c2.136-0.332,4.306-0.951,6.454-1.842
					c0.513-0.213,1.035-0.443,1.553-0.691l0.788-0.387l0.743-0.383l3.037-1.584c1.758-0.908,3.862-1.963,6.075-2.886
					c2.481-0.993,4.42-1.597,6.285-1.954c1.15-0.223,2.2-0.359,3.22-0.417c0.364-0.019,0.729-0.027,1.091-0.027
					c-3.627,0.856-6.959,2.471-9.805,3.984c-1.602,0.825-3.128,1.747-4.743,2.724l-0.87,0.523c-0.395,0.238-0.784,0.479-1.179,0.723
					c-0.546,0.338-1.108,0.686-1.668,1.016l-0.741,0.438l-0.828,0.473c-0.53,0.293-1.071,0.574-1.607,0.838
					c-2.323,1.107-4.676,1.894-6.961,2.318c-2.59,0.486-5.106,0.518-7.491,0.094c-1.326-0.23-2.56-0.566-3.677-1
					c-1.131-0.451-2.259-1.031-3.316-1.711l-0.033-0.02c-0.893-0.563-1.784-1.279-2.81-2.254c-0.403-0.383-0.794-0.799-1.17-1.242
					c-0.206-0.242-0.393-0.467-0.608-0.738l-0.048-0.057c-0.08-0.096-0.122-0.158-0.218-0.299c-0.055-0.078-0.106-0.154-0.162-0.234
					l-0.473-0.667C37.92,61.695,37.852,61.479,37.852,61.246z"/>
				
					<radialGradient id="SVGID_00000083776875537239000080000001680465060487491513_" cx="17.1926" cy="477.7623" r="31.549" gradientTransform="matrix(0 1 -1 0 533.6035 39.2015)" gradientUnits="userSpaceOnUse">
					<stop  offset="0.2364" style="stop-color:#000000"/>
					<stop  offset="0.4242" style="stop-color:#414242"/>
					<stop  offset="0.5008" style="stop-color:#717171"/>
					<stop  offset="0.5822" style="stop-color:#9C9C9C"/>
					<stop  offset="0.665" style="stop-color:#C0C0C0"/>
					<stop  offset="0.748" style="stop-color:#DBDCDC"/>
					<stop  offset="0.8312" style="stop-color:#EFEFEF"/>
					<stop  offset="0.915" style="stop-color:#FBFBFB"/>
					<stop  offset="1" style="stop-color:#FFFFFF"/>
				</radialGradient>
				<path style="fill:url(#SVGID_00000083776875537239000080000001680465060487491513_);" d="M44.824,48.112
					c0.143,0.423,0.082,0.559,0.158,0.859c0.055,0.263,0.111,0.526,0.18,0.782c0.135,0.514,0.302,1.006,0.492,1.484
					c0.389,0.945,0.878,1.828,1.491,2.61c1.211,1.571,2.924,2.792,5.049,3.455c2.12,0.675,4.593,0.78,7.084,0.42
					c1.247-0.178,2.505-0.462,3.749-0.841c0.626-0.186,1.243-0.401,1.861-0.628l0.464-0.172l0.485-0.191l0.519-0.204l0.532-0.197
					c1.415-0.507,2.872-0.915,4.38-1.177c1.507-0.254,3.068-0.367,4.667-0.195c1.582,0.174,3.256,0.637,4.685,1.683
					c0.716,0.508,1.354,1.155,1.849,1.89c0.498,0.735,0.843,1.55,1.078,2.362c0.114,0.411,0.205,0.805,0.263,1.267
					c0.054,0.457,0.06,0.921,0.02,1.38c-0.076,0.92-0.341,1.816-0.754,2.621c-0.834,1.607-2.174,2.908-3.949,3.646
					c-0.888,0.359-1.913,0.555-2.989,0.459c-1.072-0.096-2.162-0.523-3.031-1.166c-0.872-0.645-1.535-1.443-2.041-2.252
					c-0.512-0.813-0.881-1.641-1.199-2.459l-0.101-0.262c-0.593-1.516,0.158-3.226,1.674-3.819c1.519-0.591,3.228,0.159,3.818,1.676
					c0.145,0.368,0.208,0.762,0.202,1.133c-0.022,1.059,0.237,1.977,0.607,2.469c0.186,0.252,0.396,0.428,0.691,0.529
					c0.291,0.109,0.679,0.125,1.092,0.029c0.835-0.18,1.706-0.824,2.197-1.637c0.247-0.408,0.417-0.852,0.479-1.307
					c0.029-0.229,0.034-0.458,0.015-0.688c-0.021-0.227-0.073-0.51-0.137-0.765c-0.257-1.043-0.842-1.867-1.662-2.444
					c-0.84-0.554-1.928-0.854-3.086-0.901c-1.159-0.046-2.376,0.138-3.564,0.477c-1.189,0.337-2.356,0.827-3.474,1.422l-0.415,0.226
					l-0.418,0.238l-0.917,0.533c-0.632,0.362-1.278,0.706-1.931,1.051c-1.307,0.674-2.657,1.311-4.072,1.879
					c-2.818,1.129-5.902,2.02-9.301,2.273c-0.85,0.068-1.716,0.09-2.592,0.057c-0.877-0.027-1.771-0.088-2.664-0.217
					c-1.79-0.246-3.594-0.699-5.355-1.334c-1.757-0.639-3.472-1.445-5.104-2.38c-0.822-0.462-1.622-0.958-2.411-1.471
					c-0.392-0.258-0.789-0.517-1.174-0.784c-0.365-0.231-0.858-0.635-1.136-0.761c-4.91-2.21-7.098-7.98-4.888-12.891
					c2.21-4.91,7.981-7.098,12.891-4.888c2.554,1.149,4.371,3.262,5.216,5.714L44.824,48.112z"/>
				
					<radialGradient id="SVGID_00000016760936845036843650000015966183923591457441_" cx="22.856" cy="447.9529" r="59.6934" gradientTransform="matrix(0 1 -1 0 533.6035 39.2015)" gradientUnits="userSpaceOnUse">
					<stop  offset="0.0848" style="stop-color:#85F71C"/>
					<stop  offset="0.1863" style="stop-color:#7BEB1B"/>
					<stop  offset="0.369" style="stop-color:#61CC17"/>
					<stop  offset="0.612" style="stop-color:#369910"/>
					<stop  offset="0.8788" style="stop-color:#005908"/>
					<stop  offset="1" style="stop-color:#04431D"/>
				</radialGradient>
				<path style="fill:url(#SVGID_00000016760936845036843650000015966183923591457441_);" d="M45.747,46.453
					c0.142,0.422,0.081,0.558,0.157,0.858c0.055,0.264,0.111,0.526,0.182,0.782c0.134,0.514,0.301,1.007,0.491,1.483
					c0.389,0.946,0.879,1.83,1.489,2.61c1.214,1.57,2.926,2.792,5.052,3.456c2.117,0.674,4.591,0.781,7.081,0.42
					c1.25-0.178,2.507-0.463,3.751-0.842c0.625-0.184,1.243-0.401,1.861-0.626l0.463-0.174l0.485-0.191l0.52-0.203l0.531-0.198
					c1.415-0.505,2.872-0.915,4.38-1.175c1.507-0.255,3.067-0.369,4.665-0.197c1.584,0.174,3.257,0.638,4.686,1.684
					c0.716,0.508,1.355,1.154,1.85,1.89c0.495,0.735,0.842,1.549,1.078,2.362c0.115,0.411,0.205,0.805,0.262,1.268
					c0.055,0.455,0.061,0.919,0.02,1.378c-0.075,0.921-0.34,1.816-0.753,2.621c-0.835,1.607-2.175,2.908-3.95,3.65
					c-0.889,0.357-1.912,0.553-2.988,0.459c-1.073-0.096-2.164-0.527-3.031-1.168c-0.873-0.645-1.535-1.443-2.043-2.254
					c-0.51-0.811-0.879-1.641-1.198-2.458l-0.102-0.262c-0.592-1.518,0.158-3.227,1.676-3.818c1.518-0.591,3.227,0.158,3.818,1.677
					c0.143,0.366,0.207,0.761,0.2,1.132c-0.022,1.06,0.238,1.975,0.608,2.469c0.186,0.25,0.396,0.428,0.691,0.529
					c0.291,0.109,0.677,0.125,1.093,0.027c0.834-0.178,1.704-0.824,2.196-1.635c0.246-0.407,0.417-0.851,0.48-1.307
					c0.027-0.228,0.033-0.457,0.013-0.688c-0.02-0.225-0.072-0.508-0.137-0.766c-0.255-1.041-0.842-1.866-1.662-2.441
					c-0.84-0.554-1.927-0.855-3.084-0.902c-1.161-0.046-2.377,0.137-3.565,0.476c-1.189,0.337-2.358,0.828-3.475,1.423l-0.413,0.226
					l-0.418,0.238l-0.919,0.536c-0.631,0.361-1.276,0.704-1.929,1.047c-1.308,0.674-2.66,1.313-4.071,1.881
					c-2.822,1.128-5.904,2.019-9.305,2.273c-0.848,0.068-1.714,0.09-2.591,0.059c-0.877-0.029-1.771-0.09-2.662-0.219
					c-1.791-0.246-3.596-0.701-5.355-1.334c-1.758-0.639-3.472-1.445-5.105-2.38c-0.82-0.463-1.621-0.959-2.412-1.472
					c-0.393-0.257-0.786-0.517-1.174-0.783c-0.364-0.231-0.857-0.636-1.135-0.76c-4.911-2.211-7.1-7.982-4.889-12.893
					c2.21-4.909,7.983-7.098,12.892-4.887c2.553,1.148,4.369,3.261,5.215,5.714L45.747,46.453z"/>
				<path style="opacity:0.44;fill:#FFFFFF;" d="M30.359,49.447c0-0.855,0.18-1.69,0.537-2.481c1.37-3.047,4.964-4.408,8.011-3.037
					c1.538,0.692,2.69,1.954,3.24,3.551l0.417,1.222c0.017,0.172,0.048,0.39,0.106,0.647c0.06,0.275,0.129,0.597,0.218,0.929
					c0.164,0.621,0.377,1.264,0.63,1.897l0.015,0.034c0.534,1.303,1.206,2.474,1.998,3.484c1.698,2.201,4.075,3.835,6.856,4.704
					c1.062,0.336,2.202,0.566,3.401,0.688c-1.087,0.233-2.154,0.387-3.21,0.467c-0.742,0.059-1.468,0.075-2.182,0.049
					c-0.873-0.026-1.61-0.087-2.27-0.183c-1.539-0.211-3.089-0.598-4.635-1.151c-1.512-0.551-3.035-1.263-4.521-2.112
					c-0.695-0.393-1.418-0.833-2.232-1.363c-0.357-0.232-0.726-0.476-1.087-0.725l-0.059-0.04l-0.061-0.038
					c-0.088-0.056-0.187-0.131-0.286-0.203c-0.376-0.271-0.804-0.579-1.316-0.808C31.763,53.999,30.359,51.828,30.359,49.447z"/>
			</g>
			<g>
				
					<radialGradient id="SVGID_00000094607755188727432190000013058288236901897635_" cx="31.0679" cy="60.0331" r="30.8385" gradientUnits="userSpaceOnUse">
					<stop  offset="0" style="stop-color:#FFFFFF"/>
					<stop  offset="0.3108" style="stop-color:#FBFBFB"/>
					<stop  offset="0.6166" style="stop-color:#EFF0F0"/>
					<stop  offset="0.9195" style="stop-color:#DCDDDE"/>
					<stop  offset="1" style="stop-color:#D5D7D8"/>
				</radialGradient>
				<path style="fill-rule:evenodd;clip-rule:evenodd;fill:url(#SVGID_00000094607755188727432190000013058288236901897635_);" d="
					M32.209,92.916c-1.622,0.361-3.268,0.289-4.632-0.207c-1.816-0.598-3.167-1.939-3.779-3.77c-0.893-2.588-0.183-5.898,1.953-9.07
					c1.877-2.902,4.709-5.279,7.383-6.191c0.841-0.289,1.569-0.502,2.227-0.648c0.861-0.191,1.634-0.275,2.33-0.252L33.826,61.49
					c-3.858-11.269-7.714-22.535-11.576-33.804l-0.146-0.427l0.232-0.389c0.344-0.578,0.805-0.937,1.371-1.06
					c0.413-0.093,0.848-0.053,1.33,0.117l0.365,0.131l0.176,0.342c0.196,0.381,0.389,0.776,0.589,1.185
					c1.286,2.638,2.744,5.626,6.479,7.82c1.689,0.984,3.432,1.873,5.116,2.731c1.784,0.908,3.469,1.769,4.92,2.656
					c4.205,2.546,7.246,6.065,8.559,9.907c2.421,7.077,0.97,15.223,0.234,18.397l-0.012,0.053l-0.018,0.051
					c-0.294,0.834-0.795,1.107-1.164,1.189c-0.321,0.072-0.826,0.059-1.398-0.41l-0.405-0.332l0.054-0.521
					c0.048-0.465,0.108-0.971,0.172-1.508c0.462-3.895,1.092-9.227-0.773-13.972c-1.182-3.063-3.53-5.875-6.285-7.53
					c-2.955-1.869-6.994-2.776-10.106-2.325l11.416,33.345c0.985,2.867,0.319,6.189-1.869,9.355c-1.887,2.805-4.813,5.1-7.819,6.127
					C32.919,92.738,32.564,92.838,32.209,92.916z"/>
				
					<linearGradient id="SVGID_00000161615483489790527990000009944343379569886649_" gradientUnits="userSpaceOnUse" x1="30.9714" y1="36.0882" x2="42.9714" y2="91.7552">
					<stop  offset="0.1879" style="stop-color:#00001A"/>
					<stop  offset="1" style="stop-color:#212121"/>
				</linearGradient>
				<path style="fill-rule:evenodd;clip-rule:evenodd;fill:url(#SVGID_00000161615483489790527990000009944343379569886649_);" d="
					M25.146,25.765c1.479,2.878,2.858,6.705,7.442,9.4c3.513,2.048,7.248,3.679,10.021,5.378c3.64,2.202,6.799,5.446,8.147,9.391
					c2.153,6.302,1.175,13.681,0.205,17.863c-0.215,0.615-0.552,0.736-1.024,0.35c0.393-3.789,1.561-10.277-0.664-15.938
					c-1.225-3.178-3.669-6.195-6.69-8.01c-3.405-2.151-8.271-3.184-11.889-2.223l11.777,34.397c0.939,2.738,0.089,5.824-1.75,8.484
					c-1.776,2.637-4.56,4.811-7.334,5.758c-1.772,0.606-3.591,0.625-5.042,0.098c-1.506-0.498-2.661-1.588-3.188-3.162
					c-0.857-2.488,0.062-5.58,1.837-8.219c1.747-2.699,4.36-4.951,6.889-5.813c2.205-0.758,4.22-1.182,5.711-0.545
					C34.264,57.41,28.94,41.851,23.607,26.29C24.007,25.619,24.534,25.547,25.146,25.765z"/>
			</g>
		</g>
		<defs>
			
				<filter id="Adobe_OpacityMaskFilter_00000150784699534175637050000016795564845078742701_" filterUnits="userSpaceOnUse" x="16.38" y="92.092" width="114.683" height="37.375">
				<feColorMatrix  type="matrix" values="1 0 0 0 0  0 1 0 0 0  0 0 1 0 0  0 0 0 1 0"/>
			</filter>
		</defs>
		
			<mask maskUnits="userSpaceOnUse" x="16.38" y="92.092" width="114.683" height="37.375" id="SVGID_00000132054698048851602080000015984493843651145660_">
			<g style="filter:url(#Adobe_OpacityMaskFilter_00000150784699534175637050000016795564845078742701_);">
				
					<linearGradient id="SVGID_00000114769579477362830300000014702596555941385889_" gradientUnits="userSpaceOnUse" x1="83.9995" y1="89.3383" x2="83.9995" y2="132.2722">
					<stop  offset="0.1697" style="stop-color:#FFFFFF"/>
					<stop  offset="0.1991" style="stop-color:#F0F0F0"/>
					<stop  offset="0.329" style="stop-color:#B1B1B1"/>
					<stop  offset="0.4576" style="stop-color:#7B7B7B"/>
					<stop  offset="0.5818" style="stop-color:#4F4F4F"/>
					<stop  offset="0.7006" style="stop-color:#2D2D2D"/>
					<stop  offset="0.8127" style="stop-color:#141414"/>
					<stop  offset="0.9154" style="stop-color:#050505"/>
					<stop  offset="1" style="stop-color:#000000"/>
				</linearGradient>
				
					<rect x="-32.998" y="82.283" style="fill-rule:evenodd;clip-rule:evenodd;fill:url(#SVGID_00000114769579477362830300000014702596555941385889_);" width="233.995" height="100.24"/>
			</g>
		</mask>
		<g style="opacity:0.75;mask:url(#SVGID_00000132054698048851602080000015984493843651145660_);">
			<defs>
				
					<filter id="Adobe_OpacityMaskFilter_00000130638529920401227860000013265080057837876878_" filterUnits="userSpaceOnUse" x="16.38" y="94.777" width="114.683" height="34.69">
					<feColorMatrix  type="matrix" values="1 0 0 0 0  0 1 0 0 0  0 0 1 0 0  0 0 0 1 0"/>
				</filter>
			</defs>
			
				<mask maskUnits="userSpaceOnUse" x="16.38" y="94.777" width="114.683" height="34.69" id="SVGID_00000132054698048851602080000015984493843651145660_">
				<g style="filter:url(#Adobe_OpacityMaskFilter_00000130638529920401227860000013265080057837876878_);">
					
						<linearGradient id="SVGID_00000029750558361118862700000018169635531991156633_" gradientUnits="userSpaceOnUse" x1="73.9547" y1="648.3544" x2="42.5006" y2="662.171" gradientTransform="matrix(1 0 0 -1 0 763.8945)">
						<stop  offset="0.3333" style="stop-color:#FFFFFF"/>
						<stop  offset="0.7213" style="stop-color:#686868"/>
						<stop  offset="1" style="stop-color:#000000"/>
					</linearGradient>
					<circle style="fill:url(#SVGID_00000029750558361118862700000018169635531991156633_);" cx="79.885" cy="118.145" r="65.26"/>
				</g>
			</mask>
			<g>
				
					<radialGradient id="SVGID_00000037685767403998364750000013522793925913950647_" cx="632.9208" cy="473.4943" r="35.7999" gradientTransform="matrix(0 -1 -1 0 533.6035 724.6934)" gradientUnits="userSpaceOnUse">
					<stop  offset="0" style="stop-color:#FFFFFF"/>
					<stop  offset="0.4424" style="stop-color:#1CC4F7"/>
					<stop  offset="0.9371" style="stop-color:#1E2559"/>
				</radialGradient>
				<path style="fill:url(#SVGID_00000037685767403998364750000013522793925913950647_);" d="M25.67,114.473
					c1.577,0.695,2.881,1.045,4.128,1.344c1.248,0.287,2.441,0.49,3.619,0.645c2.351,0.307,4.64,0.414,6.901,0.387
					c4.517-0.061,8.922-0.684,13.142-1.781c4.221-1.096,8.248-2.676,11.991-4.648c3.746-1.971,7.203-4.332,10.345-6.969
					c1.14-0.957,1.288-2.654,0.332-3.795c-0.806-0.959-2.137-1.215-3.219-0.701l-0.029,0.014c-3.389,1.611-6.888,2.852-10.417,3.674
					c-3.529,0.824-7.087,1.23-10.584,1.221c-3.492-0.01-6.932-0.434-10.171-1.25c-1.613-0.406-3.183-0.914-4.619-1.514
					c-0.717-0.297-1.401-0.623-2.001-0.955c-0.593-0.33-1.115-0.688-1.257-0.912c-2.753-4.426-8.574-5.781-13-3.027
					c-4.426,2.756-5.779,8.574-3.026,13.002c1.042,1.672,2.521,2.906,4.2,3.646L25.67,114.473z"/>
				<path style="opacity:0.44;fill:#FFFFFF;" d="M21.011,102.25c0,1.068,0.301,2.115,0.869,3.027
					c0.613,0.988,1.497,1.756,2.554,2.221l3.67,1.623c1.34,0.592,2.461,0.883,3.494,1.131c1.005,0.23,2.071,0.42,3.238,0.574
					c2.052,0.266,4.141,0.383,6.379,0.355c4.102-0.055,8.229-0.613,12.259-1.662c3.871-1.006,7.64-2.467,11.198-4.342
					c1.166-0.611,2.313-1.273,3.44-1.978c-1.287,0.404-2.578,0.76-3.87,1.061c-3.792,0.883-7.639,1.326-11.434,1.316
					c-3.792-0.012-7.516-0.469-11.06-1.361c-1.845-0.465-3.572-1.033-5.14-1.688c-0.877-0.365-1.676-0.748-2.374-1.135
					c-1.322-0.736-2.1-1.389-2.597-2.189c-1.673-2.689-5.226-3.516-7.916-1.842C22.024,98.418,21.011,100.246,21.011,102.25z"/>
				
					<radialGradient id="SVGID_00000045601803224550147610000011248398178997497003_" cx="615.4265" cy="435.346" r="58.5972" gradientTransform="matrix(0 -1 -1 0 533.6035 724.6934)" gradientUnits="userSpaceOnUse">
					<stop  offset="0.1394" style="stop-color:#F68640"/>
					<stop  offset="0.1966" style="stop-color:#F58040"/>
					<stop  offset="0.2756" style="stop-color:#F06E40"/>
					<stop  offset="0.3673" style="stop-color:#EA513F"/>
					<stop  offset="0.4678" style="stop-color:#E0283E"/>
					<stop  offset="0.497" style="stop-color:#DD1B3E"/>
					<stop  offset="0.6191" style="stop-color:#D11537"/>
					<stop  offset="0.8368" style="stop-color:#B30425"/>
					<stop  offset="0.8848" style="stop-color:#AB0020"/>
				</radialGradient>
				<path style="fill:url(#SVGID_00000045601803224550147610000011248398178997497003_);" d="M58.757,125.51l0.304-0.318
					c0.06-0.061,0.074-0.08,0.107-0.117l0.089-0.104c0.12-0.135,0.289-0.313,0.438-0.465c0.308-0.314,0.625-0.627,0.958-0.93
					c0.659-0.609,1.368-1.186,2.112-1.723c1.486-1.082,3.111-2.037,4.83-2.801c1.719-0.767,3.52-1.381,5.371-1.777
					c1.853-0.393,3.747-0.592,5.654-0.572c1.904,0.012,3.815,0.264,5.692,0.746c0.235,0.057,0.468,0.125,0.704,0.189l0.83,0.252
					l1.677,0.51l3.397,1.023c4.568,1.34,9.335,2.727,14.461,3.219c2.554,0.24,5.184,0.246,7.785-0.092
					c2.599-0.336,5.147-1.045,7.512-2.055c2.339-1.014,4.638-2.262,6.672-4.121c1.004-0.936,1.948-2.025,2.641-3.342
					c0.691-1.305,1.116-2.844,1.067-4.385c-0.041-1.541-0.528-3.021-1.291-4.258c-0.761-1.232-1.804-2.268-2.938-3.025
					c-0.329-0.219-0.628-0.389-0.954-0.553c-0.326-0.162-0.662-0.303-1.007-0.424c-0.69-0.244-1.421-0.395-2.16-0.436
					c-1.478-0.08-2.983,0.262-4.269,1.043c-0.641,0.395-1.236,0.885-1.726,1.494c-0.492,0.606-0.876,1.33-1.092,2.123
					c-0.104,0.397-0.163,0.809-0.177,1.221c-0.004,0.205,0,0.41,0.021,0.615c0.006,0.102,0.019,0.201,0.035,0.305l0.022,0.152
					l0.021,0.107c0.075,0.412,0.168,0.75,0.302,1.123c0.135,0.361,0.301,0.717,0.507,1.055c0.811,1.348,2.229,2.451,4.009,2.666
					c0.885,0.105,1.863-0.068,2.71-0.547c0.851-0.477,1.485-1.244,1.873-2.018l0.07-0.139c0.447-0.891,0.089-1.975-0.803-2.422
					c-0.891-0.447-1.975-0.088-2.421,0.803c-0.042,0.084-0.078,0.178-0.107,0.262c-0.09,0.287-0.224,0.461-0.376,0.586
					c-0.152,0.127-0.371,0.193-0.646,0.19c-0.271-0.01-0.593-0.098-0.878-0.283c-0.286-0.182-0.545-0.439-0.748-0.754
					c-0.41-0.627-0.611-1.508-0.422-2.129c0.169-0.666,0.705-1.309,1.422-1.719c0.72-0.41,1.593-0.596,2.438-0.504
					c0.424,0.045,0.84,0.15,1.241,0.311c0.201,0.082,0.396,0.182,0.587,0.291c0.187,0.107,0.385,0.242,0.536,0.355
					c1.527,1.131,2.418,2.891,2.278,4.477c-0.102,1.588-1.196,3.043-2.763,4.156c-1.568,1.111-3.534,1.912-5.562,2.492
					c-4.037,1.162-8.168,1.119-12.252,0.104c-2.045-0.492-4.086-1.182-6.133-1.986c-2.046-0.807-4.101-1.717-6.166-2.701
					l-3.121-1.494l-1.577-0.762l-0.797-0.383c-0.312-0.143-0.619-0.285-0.935-0.42c-2.51-1.084-5.169-1.885-7.894-2.398
					c-2.723-0.506-5.515-0.703-8.295-0.605c-2.78,0.098-5.558,0.461-8.278,1.109c-2.721,0.648-5.395,1.549-7.986,2.717
					c-1.295,0.586-2.57,1.238-3.827,1.953c-0.628,0.357-1.246,0.736-1.862,1.133c-0.313,0.201-0.598,0.392-0.93,0.621l-0.478,0.336
					l-0.362,0.248c-3.846,2.623-4.836,7.867-2.211,11.713c2.623,3.846,7.868,4.836,11.713,2.211
					C57.893,126.328,58.362,125.92,58.757,125.51z"/>
				<path style="opacity:0.44;fill:#FFFFFF;" d="M49.758,117.982c0,0.953,0.285,1.873,0.827,2.664
					c0.713,1.045,1.79,1.75,3.034,1.986c1.243,0.234,2.504-0.029,3.55-0.742c0.256-0.174,0.538-0.416,0.776-0.664l0.279-0.293
					l0.084-0.096c0.176-0.201,0.398-0.436,0.595-0.637c0.38-0.389,0.742-0.738,1.104-1.07c0.747-0.689,1.574-1.365,2.442-1.992
					c1.734-1.264,3.587-2.336,5.493-3.182c2.024-0.904,4.079-1.582,6.099-2.012c2.144-0.455,4.315-0.676,6.46-0.654
					c2.173,0.014,4.382,0.303,6.55,0.855c0.197,0.049,0.39,0.102,0.583,0.156l0.244,0.065l2.566,0.781l3.387,1.021
					c4.363,1.279,8.904,2.609,13.738,3.076c-0.024-0.006-0.049-0.014-0.074-0.018c-2.003-0.48-4.17-1.182-6.592-2.135
					c-2.046-0.807-4.139-1.723-6.404-2.803l-3.126-1.498l-2.345-1.131l-0.174-0.078c-0.21-0.096-0.42-0.193-0.632-0.283
					c-2.264-0.977-4.658-1.703-7.138-2.17c-2.423-0.451-4.942-0.635-7.484-0.545c-2.572,0.09-5.112,0.428-7.554,1.01
					c-2.544,0.607-5.009,1.447-7.324,2.492c-1.153,0.521-2.339,1.127-3.521,1.797c-0.536,0.307-1.104,0.652-1.686,1.027
					c-0.279,0.18-0.531,0.346-0.823,0.549l-0.501,0.352l-0.363,0.248C50.531,114.945,49.758,116.412,49.758,117.982z"/>
				
					<radialGradient id="SVGID_00000183932141222094226300000017051151998352480436_" cx="585.9836" cy="460.378" r="51.7824" gradientTransform="matrix(0 -1 -1 0 533.6035 724.6934)" gradientUnits="userSpaceOnUse">
					<stop  offset="0.2364" style="stop-color:#000000"/>
					<stop  offset="0.4242" style="stop-color:#414242"/>
					<stop  offset="0.5008" style="stop-color:#717171"/>
					<stop  offset="0.5822" style="stop-color:#9C9C9C"/>
					<stop  offset="0.665" style="stop-color:#C0C0C0"/>
					<stop  offset="0.748" style="stop-color:#DBDCDC"/>
					<stop  offset="0.8312" style="stop-color:#EFEFEF"/>
					<stop  offset="0.915" style="stop-color:#FBFBFB"/>
					<stop  offset="1" style="stop-color:#FFFFFF"/>
				</radialGradient>
				<path style="fill:url(#SVGID_00000183932141222094226300000017051151998352480436_);" d="M44.354,129.467
					c0.063-0.246,0.123-0.508,0.188-0.75c0.448-1.662,0.945-3.185,1.499-4.508c0.27-0.672,0.576-1.271,0.892-1.836
					c0.314-0.568,0.659-1.08,1.051-1.557c0.775-0.949,1.771-1.766,3.037-2.443c1.262-0.672,2.759-1.199,4.362-1.58
					c0.798-0.197,1.64-0.359,2.439-0.484c0.802-0.129,1.608-0.201,2.418-0.25c0.81-0.041,1.621-0.031,2.438,0.01
					c0.814,0.051,1.634,0.137,2.459,0.27c1.651,0.266,3.318,0.703,5.073,1.217c1.754,0.51,3.609,1.105,5.682,1.482
					c1.034,0.191,2.123,0.301,3.232,0.305c1.107,0.002,2.23-0.113,3.312-0.344c0.541-0.113,1.07-0.26,1.589-0.418l0.658-0.211
					c0.144-0.043,0.332-0.094,0.501-0.133c0.7-0.164,1.453-0.244,2.225-0.264c1.551-0.031,3.181,0.201,4.79,0.607
					c3.224,0.828,6.38,2.316,9.189,4.217c0.701,0.477,1.377,0.988,2.03,1.508c0.643,0.537,1.268,1.08,1.833,1.66
					c0.284,0.289,0.558,0.58,0.814,0.873c0.254,0.301,0.49,0.6,0.709,0.895c0.42,0.602,0.779,1.209,0.869,1.705
					c0.002,0.01,0.006,0.02,0.007,0.029h13.72c0.15-0.809,0.166-1.654,0.012-2.51c-0.326-1.795-1.309-3.305-2.657-4.326
					l-1.942-1.463c-1.146-0.863-2.166-1.473-3.182-2.018c-0.501-0.277-0.999-0.527-1.492-0.762c-0.49-0.24-0.976-0.469-1.461-0.682
					c-0.972-0.422-1.923-0.828-2.884-1.184c-0.95-0.377-1.906-0.711-2.857-1.029c-1.907-0.641-3.817-1.201-5.75-1.676
					c-1.933-0.475-3.891-0.863-5.895-1.107c-2.003-0.244-4.055-0.359-6.176-0.176c-1.061,0.09-2.136,0.262-3.217,0.553
					c-0.274,0.074-0.526,0.15-0.821,0.246l-0.648,0.229c-0.355,0.125-0.714,0.219-1.069,0.299c-1.427,0.324-2.863,0.271-4.396-0.076
					c-1.533-0.342-3.152-0.979-4.874-1.65c-1.718-0.678-3.546-1.389-5.475-1.961c-1.925-0.58-3.944-1.02-5.996-1.277
					c-1.024-0.137-2.058-0.215-3.09-0.27c-1.035-0.045-2.024-0.057-3.052-0.047c-2.043,0.031-4.178,0.182-6.412,0.645
					c-2.224,0.457-4.573,1.273-6.75,2.514c-1.087,0.613-2.126,1.318-3.096,2.064c-0.971,0.744-1.856,1.547-2.7,2.336
					c-3.341,3.213-5.832,6.351-8.614,9.029c-1.274,1.227-2.138,2.715-2.601,4.299H44.354z"/>
				
					<radialGradient id="SVGID_00000133507956129951722920000015948792478304674474_" cx="602.9902" cy="455.7891" r="56.9736" gradientTransform="matrix(0 -1 -1 0 533.6035 724.6934)" gradientUnits="userSpaceOnUse">
					<stop  offset="0.0848" style="stop-color:#F7E705"/>
					<stop  offset="0.184" style="stop-color:#F8DF05"/>
					<stop  offset="0.3408" style="stop-color:#F9C805"/>
					<stop  offset="0.5355" style="stop-color:#FBA304"/>
					<stop  offset="0.7589" style="stop-color:#FF7004"/>
					<stop  offset="0.7697" style="stop-color:#FF6D04"/>
					<stop  offset="1" style="stop-color:#C5331C"/>
				</radialGradient>
				<path style="fill:url(#SVGID_00000133507956129951722920000015948792478304674474_);" d="M45.225,129.467
					c0.414-1.484,0.869-2.857,1.371-4.059c0.269-0.67,0.575-1.273,0.891-1.838c0.313-0.566,0.66-1.078,1.051-1.557
					c0.776-0.947,1.771-1.766,3.038-2.441c1.263-0.67,2.758-1.199,4.361-1.58c0.798-0.197,1.642-0.357,2.439-0.484
					c0.802-0.131,1.609-0.203,2.42-0.248c0.808-0.043,1.621-0.035,2.438,0.006c0.815,0.053,1.634,0.141,2.46,0.271
					c1.65,0.266,3.319,0.703,5.072,1.217c1.752,0.51,3.607,1.105,5.683,1.482c1.032,0.189,2.122,0.301,3.231,0.307
					c1.109,0,2.23-0.117,3.313-0.346c0.54-0.113,1.071-0.26,1.59-0.418l0.657-0.211c0.143-0.043,0.331-0.094,0.502-0.131
					c0.7-0.166,1.451-0.246,2.225-0.266c1.55-0.031,3.181,0.201,4.789,0.607c3.223,0.828,6.381,2.316,9.189,4.217
					c0.701,0.477,1.377,0.988,2.029,1.508c0.642,0.537,1.269,1.08,1.835,1.66c0.282,0.289,0.557,0.58,0.813,0.873
					c0.253,0.301,0.492,0.6,0.708,0.895c0.125,0.18,0.242,0.357,0.35,0.535h14.367c0.002-0.432-0.029-0.871-0.109-1.311
					c-0.323-1.795-1.308-3.305-2.656-4.326l-1.941-1.463c-1.146-0.861-2.169-1.473-3.184-2.018
					c-0.502-0.275-0.997-0.529-1.492-0.764c-0.49-0.24-0.977-0.467-1.46-0.68c-0.973-0.422-1.922-0.828-2.884-1.184
					c-0.95-0.377-1.906-0.711-2.859-1.029c-1.905-0.641-3.814-1.201-5.749-1.676c-1.932-0.473-3.89-0.861-5.896-1.107
					c-2-0.244-4.055-0.359-6.176-0.178c-1.059,0.09-2.134,0.266-3.215,0.555c-0.274,0.074-0.527,0.15-0.821,0.246l-0.649,0.23
					c-0.354,0.123-0.712,0.219-1.067,0.297c-1.429,0.324-2.863,0.271-4.397-0.074c-1.532-0.344-3.151-0.98-4.874-1.652
					c-1.719-0.678-3.546-1.389-5.474-1.961c-1.924-0.58-3.946-1.021-5.995-1.279c-1.025-0.137-2.058-0.213-3.092-0.266
					c-1.035-0.047-2.023-0.059-3.05-0.049c-2.045,0.033-4.181,0.182-6.412,0.645c-2.225,0.457-4.576,1.274-6.751,2.516
					c-1.087,0.613-2.127,1.316-3.097,2.063c-0.97,0.744-1.854,1.549-2.699,2.336c-3.341,3.213-5.833,6.352-8.614,9.029
					c-0.946,0.91-1.666,1.969-2.165,3.1H45.225z"/>
				<path style="opacity:0.44;fill:#FFFFFF;" d="M107.984,120.674l0.078,0.064c0.687,0.576,1.418,1.209,2.104,1.912
					c0.375,0.385,0.679,0.711,0.951,1.023l0.037,0.043c0.313,0.369,0.604,0.738,0.865,1.094l0.048,0.066
					c0.845,1.207,1.301,2.184,1.479,3.166c0.097,0.541,0.334,1.018,0.65,1.424h5.186c0.433-0.559,0.691-1.25,0.691-2
					c0-0.195-0.019-0.394-0.054-0.592c-0.147-0.816-0.592-1.539-1.252-2.039l-1.936-1.459c-0.844-0.635-1.653-1.148-2.708-1.715
					c-0.446-0.246-0.87-0.461-1.329-0.68l-0.037-0.018c-0.487-0.236-0.919-0.439-1.32-0.615c-1.003-0.438-1.845-0.793-2.687-1.104
					l-0.079-0.033c-0.918-0.363-1.865-0.689-2.673-0.959c-1.02-0.346-2.04-0.662-3.049-0.951c0.945,0.52,1.873,1.088,2.775,1.697
					C106.437,119.484,107.152,120.014,107.984,120.674z"/>
				<path style="opacity:0.44;fill:#FFFFFF;" d="M42.635,129.467c0.19-0.809,0.392-1.621,0.617-2.455
					c0.503-1.865,1.056-3.531,1.645-4.943c0.296-0.729,0.642-1.441,1.087-2.236c0.411-0.746,0.877-1.436,1.413-2.092
					c1.101-1.346,2.499-2.476,4.156-3.361c1.514-0.805,3.277-1.447,5.247-1.916c0.811-0.197,1.734-0.383,2.717-0.537
					c0.577-0.094,1.184-0.168,1.859-0.225c-0.539-0.051-1.125-0.092-1.794-0.127c-0.879-0.037-1.784-0.053-2.827-0.043
					c-2.184,0.035-4,0.215-5.694,0.568c-2.029,0.416-3.987,1.145-5.673,2.105c-0.896,0.506-1.789,1.104-2.676,1.783
					c-0.846,0.65-1.658,1.389-2.411,2.092c-1.654,1.592-3.113,3.191-4.526,4.738c-1.365,1.496-2.656,2.912-4.067,4.27
					c-0.702,0.676-1.214,1.488-1.525,2.379H42.635z"/>
				
					<radialGradient id="SVGID_00000082363254072172444210000003307558551424302228_" cx="596.9606" cy="475.9692" r="32.0371" gradientTransform="matrix(0 -1 -1 0 533.6035 724.6934)" gradientUnits="userSpaceOnUse">
					<stop  offset="0.2364" style="stop-color:#000000"/>
					<stop  offset="0.4242" style="stop-color:#414242"/>
					<stop  offset="0.5008" style="stop-color:#717171"/>
					<stop  offset="0.5822" style="stop-color:#9C9C9C"/>
					<stop  offset="0.665" style="stop-color:#C0C0C0"/>
					<stop  offset="0.748" style="stop-color:#DBDCDC"/>
					<stop  offset="0.8312" style="stop-color:#EFEFEF"/>
					<stop  offset="0.915" style="stop-color:#FBFBFB"/>
					<stop  offset="1" style="stop-color:#FFFFFF"/>
				</radialGradient>
				<path style="fill:url(#SVGID_00000082363254072172444210000003307558551424302228_);" d="M107.717,127.805
					c-0.397-0.225-0.823-0.352-1.226-0.41c-0.815-0.109-1.504,0.018-2.169,0.18l-0.211,0.059c-0.128,0.037-0.206,0.065-0.311,0.104
					c-0.194,0.076-0.386,0.17-0.567,0.283c-0.364,0.227-0.684,0.535-0.921,0.877c-0.129,0.184-0.231,0.375-0.318,0.57h7.226
					c-0.127-0.268-0.274-0.531-0.472-0.779C108.469,128.342,108.115,128.027,107.717,127.805z"/>
				
					<radialGradient id="SVGID_00000016760649480667898930000012327060650063480764_" cx="596.9598" cy="475.9677" r="32.0375" gradientTransform="matrix(0 -1 -1 0 533.6035 724.6934)" gradientUnits="userSpaceOnUse">
					<stop  offset="0.2364" style="stop-color:#000000"/>
					<stop  offset="0.4242" style="stop-color:#414242"/>
					<stop  offset="0.5008" style="stop-color:#717171"/>
					<stop  offset="0.5822" style="stop-color:#9C9C9C"/>
					<stop  offset="0.665" style="stop-color:#C0C0C0"/>
					<stop  offset="0.748" style="stop-color:#DBDCDC"/>
					<stop  offset="0.8312" style="stop-color:#EFEFEF"/>
					<stop  offset="0.915" style="stop-color:#FBFBFB"/>
					<stop  offset="1" style="stop-color:#FFFFFF"/>
				</radialGradient>
				<path style="fill:url(#SVGID_00000016760649480667898930000012327060650063480764_);" d="M35.097,128.352
					c2.023,1.432,4.788,1.063,6.394-0.752l0.502-0.572c0.122-0.142,0.294-0.32,0.444-0.48c0.312-0.324,0.633-0.631,0.96-0.924
					c0.657-0.588,1.352-1.107,2.073-1.563c0.724-0.451,1.48-0.83,2.27-1.137c0.785-0.309,1.604-0.549,2.453-0.709
					c1.695-0.324,3.518-0.334,5.373-0.051c1.855,0.285,3.746,0.832,5.598,1.6c0.462,0.193,0.923,0.398,1.38,0.617l0.683,0.334
					l0.741,0.383l3.026,1.576c1.885,0.973,3.835,1.928,5.856,2.793h23.451c0.618-0.354,1.223-0.727,1.801-1.129
					c0.244-0.174,0.488-0.348,0.727-0.527l0.656-0.494c0.433-0.313,0.876-0.617,1.334-0.889c0.92-0.535,1.882-0.984,2.878-1.301
					c0.995-0.324,2.031-0.469,3.045-0.42c1.014,0.053,2.012,0.311,2.871,0.828c0.852,0.52,1.558,1.273,2.003,2.166
					c0.278,0.551,0.442,1.152,0.505,1.766h1.908c-0.015-0.908-0.193-1.818-0.554-2.66c-0.545-1.283-1.475-2.41-2.632-3.215
					c-1.15-0.82-2.506-1.328-3.871-1.537c-1.369-0.23-2.743-0.168-4.061,0.029c-1.316,0.213-2.588,0.563-3.801,1.018
					c-0.61,0.221-1.209,0.461-1.797,0.725l-0.84,0.387c-0.232,0.102-0.465,0.195-0.697,0.287c-0.924,0.367-1.869,0.625-2.799,0.803
					c-1.862,0.358-3.666,0.342-5.397,0.066c-3.454-0.57-6.767-2.053-10.305-3.936c-1.775-0.918-3.55-2.018-5.424-3.143
					c-0.938-0.564-1.882-1.172-2.883-1.758l-0.751-0.445l-0.874-0.498c-0.588-0.326-1.185-0.639-1.794-0.938
					c-2.445-1.166-5.088-2.107-7.912-2.631c-2.814-0.529-5.831-0.627-8.808-0.098c-1.484,0.256-2.958,0.645-4.365,1.189
					c-1.403,0.561-2.741,1.252-3.98,2.051c-1.249,0.785-2.364,1.729-3.39,2.703c-0.514,0.486-0.995,1.002-1.442,1.531
					c-0.229,0.27-0.436,0.516-0.676,0.816c-0.26,0.313-0.389,0.527-0.558,0.764l-0.471,0.666
					C32.412,123.813,32.928,126.816,35.097,128.352z"/>
				
					<radialGradient id="SVGID_00000013898241971962608280000009369798609402981556_" cx="582.5524" cy="451.9962" r="58.1696" gradientTransform="matrix(0 -1 -1 0 533.6035 724.6934)" gradientUnits="userSpaceOnUse">
					<stop  offset="0" style="stop-color:#FFFFFF"/>
					<stop  offset="0.4424" style="stop-color:#1CC4F7"/>
					<stop  offset="0.9371" style="stop-color:#1E2559"/>
				</radialGradient>
				<path style="fill:url(#SVGID_00000013898241971962608280000009369798609402981556_);" d="M106.951,128.688
					c-0.814-0.109-1.503,0.016-2.167,0.18l-0.212,0.057c-0.128,0.037-0.205,0.064-0.309,0.104c-0.196,0.076-0.388,0.17-0.569,0.283
					c-0.072,0.047-0.132,0.105-0.2,0.156h5.209c-0.164-0.139-0.339-0.268-0.525-0.371
					C107.78,128.873,107.353,128.744,106.951,128.688z"/>
				
					<radialGradient id="SVGID_00000158012805245166935900000003940627054046938250_" cx="582.5462" cy="451.9943" r="58.1777" gradientTransform="matrix(0 -1 -1 0 533.6035 724.6934)" gradientUnits="userSpaceOnUse">
					<stop  offset="0" style="stop-color:#FFFFFF"/>
					<stop  offset="0.4424" style="stop-color:#1CC4F7"/>
					<stop  offset="0.9371" style="stop-color:#1E2559"/>
				</radialGradient>
				<path style="fill:url(#SVGID_00000158012805245166935900000003940627054046938250_);" d="M35.354,129.467h5.982
					c0.219-0.174,0.427-0.363,0.615-0.578l0.502-0.57c0.121-0.143,0.295-0.32,0.444-0.481c0.312-0.324,0.634-0.631,0.962-0.924
					c0.655-0.59,1.35-1.107,2.073-1.561c0.723-0.453,1.479-0.832,2.267-1.137c0.787-0.31,1.605-0.551,2.454-0.711
					c1.695-0.324,3.517-0.334,5.374-0.051c1.855,0.287,3.745,0.832,5.596,1.602c0.464,0.191,0.924,0.396,1.382,0.615l0.683,0.334
					l0.742,0.383l3.024,1.576c0.982,0.508,1.983,1.012,3.002,1.502h28.329c0.169-0.121,0.338-0.24,0.503-0.367l0.656-0.492
					c0.436-0.313,0.876-0.617,1.333-0.889c0.921-0.535,1.885-0.983,2.881-1.299c0.993-0.324,2.03-0.471,3.046-0.422
					c1.012,0.053,2.01,0.311,2.867,0.828c0.853,0.52,1.559,1.273,2.006,2.168c0.076,0.15,0.135,0.313,0.195,0.473h2.074
					c-0.096-0.467-0.222-0.93-0.411-1.369c-0.544-1.283-1.475-2.41-2.632-3.215c-1.15-0.818-2.506-1.326-3.871-1.537
					c-1.369-0.231-2.743-0.166-4.06,0.029c-1.316,0.213-2.59,0.563-3.802,1.018c-0.61,0.221-1.209,0.461-1.795,0.725l-0.843,0.389
					c-0.231,0.102-0.463,0.193-0.695,0.285c-0.925,0.367-1.87,0.625-2.799,0.803c-1.862,0.357-3.665,0.342-5.398,0.068
					c-3.454-0.574-6.767-2.055-10.303-3.936c-1.778-0.918-3.553-2.018-5.426-3.145c-0.937-0.564-1.88-1.172-2.881-1.758
					l-0.754-0.443l-0.873-0.498c-0.588-0.326-1.186-0.639-1.795-0.938c-2.446-1.168-5.085-2.109-7.91-2.633
					c-2.816-0.529-5.832-0.627-8.808-0.098c-1.485,0.256-2.959,0.645-4.365,1.192c-1.404,0.558-2.742,1.252-3.981,2.049
					c-1.247,0.787-2.365,1.729-3.39,2.705c-0.515,0.486-0.994,1-1.443,1.529c-0.228,0.27-0.435,0.518-0.674,0.818
					c-0.261,0.313-0.391,0.524-0.559,0.764l-0.471,0.666C32.928,125.031,33.37,127.891,35.354,129.467z"/>
				<path style="opacity:0.44;fill:#FFFFFF;" d="M36.969,123.988c0,0.176,0.047,0.617,0.474,0.92
					c0.461,0.326,1.119,0.244,1.499-0.186l0.481-0.547c0.132-0.152,0.301-0.332,0.464-0.504l0.081-0.088
					c0.38-0.395,0.76-0.76,1.184-1.141c0.801-0.719,1.668-1.371,2.577-1.941c0.92-0.574,1.897-1.064,2.898-1.449
					c0.995-0.392,2.045-0.697,3.097-0.894c2.089-0.398,4.315-0.424,6.615-0.072c2.136,0.33,4.306,0.949,6.453,1.84
					c0.514,0.213,1.036,0.443,1.554,0.691l0.787,0.387l0.744,0.383l3.036,1.584c1.759,0.908,3.863,1.963,6.077,2.887
					c2.479,0.994,4.418,1.596,6.284,1.953c1.15,0.223,2.2,0.359,3.22,0.418c0.363,0.018,0.729,0.027,1.09,0.027
					c-3.626-0.858-6.958-2.471-9.804-3.984c-1.602-0.824-3.128-1.748-4.743-2.725l-0.87-0.523c-0.394-0.238-0.785-0.479-1.18-0.723
					c-0.544-0.338-1.107-0.686-1.667-1.016l-0.74-0.438l-0.829-0.473c-0.531-0.293-1.071-0.574-1.607-0.838
					c-2.323-1.107-4.676-1.895-6.961-2.318c-2.591-0.486-5.106-0.518-7.491-0.094c-1.326,0.23-2.559,0.566-3.677,1
					c-1.131,0.451-2.259,1.031-3.317,1.713l-0.032,0.02c-0.892,0.561-1.784,1.277-2.812,2.252c-0.401,0.383-0.794,0.799-1.169,1.242
					c-0.206,0.242-0.393,0.467-0.61,0.738l-0.047,0.057c-0.078,0.096-0.122,0.158-0.218,0.299c-0.053,0.078-0.106,0.154-0.161,0.234
					l-0.473,0.666C37.038,123.539,36.969,123.756,36.969,123.988z"/>
				
					<radialGradient id="SVGID_00000130605383338335108350000013932603699531158681_" cx="595.8533" cy="478.6437" r="31.5492" gradientTransform="matrix(0 -1 -1 0 533.6035 724.6934)" gradientUnits="userSpaceOnUse">
					<stop  offset="0.2364" style="stop-color:#000000"/>
					<stop  offset="0.4242" style="stop-color:#414242"/>
					<stop  offset="0.5008" style="stop-color:#717171"/>
					<stop  offset="0.5822" style="stop-color:#9C9C9C"/>
					<stop  offset="0.665" style="stop-color:#C0C0C0"/>
					<stop  offset="0.748" style="stop-color:#DBDCDC"/>
					<stop  offset="0.8312" style="stop-color:#EFEFEF"/>
					<stop  offset="0.915" style="stop-color:#FBFBFB"/>
					<stop  offset="1" style="stop-color:#FFFFFF"/>
				</radialGradient>
				<path style="fill:url(#SVGID_00000130605383338335108350000013932603699531158681_);" d="M48.263,129.467
					c0.892-0.648,1.905-1.18,3.051-1.535c2.119-0.676,4.591-0.781,7.082-0.42c1.249,0.178,2.506,0.463,3.75,0.842
					c0.626,0.184,1.243,0.4,1.861,0.627l0.464,0.172l0.485,0.191l0.313,0.123h14.416c0.019-0.012,0.038-0.02,0.055-0.033
					c0.713-0.508,1.353-1.154,1.848-1.889c0.498-0.736,0.842-1.549,1.079-2.363c0.114-0.412,0.204-0.805,0.261-1.266
					c0.055-0.457,0.061-0.922,0.019-1.379c-0.075-0.922-0.34-1.818-0.753-2.623c-0.834-1.607-2.175-2.908-3.95-3.646
					c-0.888-0.359-1.912-0.555-2.988-0.459c-1.072,0.094-2.162,0.523-3.031,1.166c-0.871,0.645-1.535,1.441-2.042,2.254
					c-0.512,0.811-0.879,1.639-1.199,2.457l-0.101,0.262c-0.593,1.517,0.158,3.226,1.675,3.818c1.518,0.592,3.227-0.158,3.817-1.676
					c0.144-0.367,0.208-0.762,0.201-1.133c-0.021-1.059,0.238-1.977,0.608-2.469c0.186-0.252,0.396-0.428,0.692-0.529
					c0.291-0.109,0.678-0.125,1.091-0.029c0.835,0.18,1.707,0.824,2.196,1.637c0.248,0.408,0.418,0.852,0.481,1.307
					c0.027,0.229,0.033,0.459,0.014,0.689c-0.021,0.225-0.072,0.508-0.137,0.764c-0.256,1.043-0.843,1.867-1.662,2.443
					c-0.839,0.553-1.927,0.855-3.085,0.902c-1.16,0.045-2.377-0.137-3.565-0.477c-1.188-0.338-2.356-0.828-3.475-1.422l-0.413-0.227
					l-0.418-0.236l-0.919-0.535c-0.632-0.361-1.277-0.705-1.929-1.051c-1.308-0.674-2.659-1.311-4.072-1.879
					c-2.82-1.129-5.903-2.02-9.304-2.273c-0.848-0.068-1.714-0.09-2.591-0.059c-0.877,0.029-1.77,0.09-2.663,0.219
					c-1.79,0.246-3.595,0.699-5.355,1.334c-1.757,0.639-3.472,1.445-5.104,2.381c-0.821,0.461-1.621,0.957-2.411,1.471
					c-0.394,0.258-0.788,0.516-1.175,0.785c-0.364,0.23-0.857,0.635-1.134,0.76c-1.545,0.693-2.818,1.742-3.772,3.004H48.263z"/>
				
					<radialGradient id="SVGID_00000035511846527904769430000011283822473001669019_" cx="601.5165" cy="448.8348" r="59.6931" gradientTransform="matrix(0 -1 -1 0 533.6035 724.6934)" gradientUnits="userSpaceOnUse">
					<stop  offset="0.0848" style="stop-color:#85F71C"/>
					<stop  offset="0.1863" style="stop-color:#7BEB1B"/>
					<stop  offset="0.369" style="stop-color:#61CC17"/>
					<stop  offset="0.612" style="stop-color:#369910"/>
					<stop  offset="0.8788" style="stop-color:#005908"/>
					<stop  offset="1" style="stop-color:#04431D"/>
				</radialGradient>
				<path style="fill:url(#SVGID_00000035511846527904769430000011283822473001669019_);" d="M52.75,129.467
					c2.002-0.541,4.271-0.629,6.567-0.295c0.534,0.076,1.068,0.18,1.602,0.295h21.376c0.067-0.09,0.151-0.17,0.214-0.262
					c0.496-0.736,0.843-1.549,1.078-2.363c0.114-0.41,0.204-0.805,0.261-1.266c0.056-0.457,0.062-0.92,0.021-1.379
					c-0.075-0.92-0.34-1.818-0.754-2.621c-0.834-1.607-2.174-2.908-3.948-3.65c-0.89-0.357-1.913-0.553-2.989-0.459
					c-1.073,0.096-2.163,0.527-3.032,1.17c-0.872,0.643-1.535,1.441-2.041,2.252c-0.51,0.811-0.88,1.641-1.199,2.457l-0.102,0.262
					c-0.593,1.518,0.158,3.227,1.675,3.818c1.518,0.592,3.228-0.156,3.819-1.676c0.144-0.367,0.207-0.762,0.201-1.133
					c-0.022-1.059,0.236-1.977,0.607-2.469c0.185-0.25,0.395-0.428,0.691-0.529c0.291-0.109,0.678-0.125,1.092-0.027
					c0.835,0.178,1.705,0.824,2.197,1.635c0.245,0.408,0.417,0.852,0.479,1.307c0.029,0.229,0.034,0.457,0.014,0.689
					c-0.02,0.225-0.072,0.508-0.137,0.766c-0.256,1.041-0.841,1.865-1.662,2.441c-0.84,0.553-1.927,0.855-3.086,0.9
					c-1.159,0.049-2.375-0.135-3.563-0.475c-1.189-0.336-2.357-0.826-3.475-1.422l-0.414-0.227l-0.418-0.238l-0.919-0.535
					c-0.63-0.361-1.275-0.703-1.929-1.047c-1.308-0.674-2.658-1.313-4.07-1.881c-2.821-1.129-5.904-2.018-9.305-2.273
					c-0.848-0.066-1.714-0.09-2.59-0.059c-0.878,0.029-1.771,0.09-2.663,0.221c-1.792,0.244-3.595,0.699-5.356,1.332
					c-1.757,0.639-3.471,1.445-5.105,2.381c-0.821,0.463-1.621,0.959-2.411,1.471c-0.393,0.258-0.787,0.518-1.173,0.783
					c-0.365,0.233-0.857,0.637-1.136,0.762c-0.796,0.357-1.511,0.816-2.157,1.344H52.75z"/>
				<path style="opacity:0.44;fill:#FFFFFF;" d="M44.711,129.467c1.695-2.162,4.046-3.771,6.796-4.629
					c1.061-0.336,2.202-0.566,3.401-0.688c-1.088-0.234-2.156-0.389-3.21-0.469c-0.742-0.059-1.468-0.074-2.184-0.049
					c-0.872,0.027-1.61,0.088-2.267,0.184c-1.539,0.211-3.09,0.598-4.636,1.152c-1.512,0.551-3.037,1.262-4.522,2.111
					c-0.693,0.393-1.417,0.834-2.232,1.363c-0.357,0.232-0.726,0.475-1.087,0.725l-0.059,0.041l-0.06,0.037
					c-0.087,0.057-0.186,0.131-0.287,0.203c-0.008,0.006-0.018,0.012-0.025,0.018H44.711z"/>
			</g>
			<g>
				
					<radialGradient id="SVGID_00000031180642527819319200000003593151031320009100_" cx="30.1863" cy="638.6938" r="30.8385" gradientTransform="matrix(1 0 0 -1 0 763.8945)" gradientUnits="userSpaceOnUse">
					<stop  offset="0" style="stop-color:#FFFFFF"/>
					<stop  offset="0.3108" style="stop-color:#FBFBFB"/>
					<stop  offset="0.6166" style="stop-color:#EFF0F0"/>
					<stop  offset="0.9195" style="stop-color:#DCDDDE"/>
					<stop  offset="1" style="stop-color:#D5D7D8"/>
				</radialGradient>
				<path style="fill-rule:evenodd;clip-rule:evenodd;fill:url(#SVGID_00000031180642527819319200000003593151031320009100_);" d="
					M32.251,111.557c0.842,0.289,1.57,0.502,2.227,0.648c0.862,0.191,1.635,0.275,2.331,0.252l-3.865,11.287
					c-0.653,1.908-1.307,3.814-1.96,5.723h3.774l7.316-21.369c0.986-2.865,0.32-6.189-1.87-9.355
					c-1.886-2.805-4.812-5.1-7.818-6.127c-0.348-0.119-0.703-0.219-1.058-0.297c-1.623-0.361-3.268-0.289-4.633,0.207
					c-1.816,0.598-3.167,1.939-3.779,3.77c-0.893,2.59-0.182,5.898,1.954,9.07C26.747,108.268,29.579,110.646,32.251,111.557z"/>
				
					<radialGradient id="SVGID_00000172410751396770855180000015410708316782768562_" cx="30.1813" cy="638.6944" r="30.8447" gradientTransform="matrix(1 0 0 -1 0 763.8945)" gradientUnits="userSpaceOnUse">
					<stop  offset="0" style="stop-color:#FFFFFF"/>
					<stop  offset="0.3108" style="stop-color:#FBFBFB"/>
					<stop  offset="0.6166" style="stop-color:#EFF0F0"/>
					<stop  offset="0.9195" style="stop-color:#DCDDDE"/>
					<stop  offset="1" style="stop-color:#D5D7D8"/>
				</radialGradient>
				<path style="fill-rule:evenodd;clip-rule:evenodd;fill:url(#SVGID_00000172410751396770855180000015410708316782768562_);" d="
					M47.822,117.615c0.394,3.324,0.896,7.693-0.119,11.852h3.773c0.659-5.551-0.317-10.898-0.881-13.33l-0.014-0.053l-0.017-0.051
					c-0.293-0.834-0.796-1.107-1.164-1.189c-0.321-0.072-0.826-0.059-1.398,0.41l-0.405,0.332l0.053,0.523
					C47.699,116.572,47.759,117.078,47.822,117.615z"/>
				
					<linearGradient id="SVGID_00000157986865983427125000000002823607790201070248_" gradientUnits="userSpaceOnUse" x1="-29.0479" y1="690.4227" x2="-25.8253" y2="627.0455" gradientTransform="matrix(0.9761 0.2175 0.2175 -0.9761 -65.8774 768.912)">
					<stop  offset="0.1879" style="stop-color:#00001A"/>
					<stop  offset="1" style="stop-color:#212121"/>
				</linearGradient>
				<path style="fill-rule:evenodd;clip-rule:evenodd;fill:url(#SVGID_00000157986865983427125000000002823607790201070248_);" d="
					M49.362,129.467h1.685c0.393-4.598-0.287-9.098-0.966-12.029c-0.217-0.615-0.552-0.736-1.025-0.35
					C49.368,120.1,50.163,124.816,49.362,129.467z"/>
				
					<linearGradient id="SVGID_00000027572243153888470540000001278084972300488074_" gradientUnits="userSpaceOnUse" x1="-49.2429" y1="689.3936" x2="-46.0205" y2="626.02" gradientTransform="matrix(0.9761 0.2175 0.2175 -0.9761 -65.8774 768.912)">
					<stop  offset="0.1879" style="stop-color:#00001A"/>
					<stop  offset="1" style="stop-color:#212121"/>
				</linearGradient>
				<path style="fill-rule:evenodd;clip-rule:evenodd;fill:url(#SVGID_00000027572243153888470540000001278084972300488074_);" d="
					M33.001,111.717c2.205,0.754,4.221,1.18,5.711,0.543c-1.964,5.736-3.929,11.471-5.893,17.207h1.715l7.055-20.604
					c0.941-2.738,0.089-5.826-1.75-8.486c-1.774-2.637-4.559-4.811-7.333-5.758c-1.773-0.604-3.59-0.623-5.044-0.098
					c-1.504,0.498-2.659,1.588-3.187,3.164c-0.857,2.486,0.063,5.578,1.837,8.215C27.859,108.602,30.474,110.854,33.001,111.717z"/>
			</g>
		</g>
		
			<radialGradient id="SVGID_00000100358684977291696330000000767284063493910970_" cx="73.9011" cy="-1263.9879" r="26.3415" fx="56.5102" fy="-1265.6071" gradientTransform="matrix(2.299 0 0 0.1689 -97.6573 305.177)" gradientUnits="userSpaceOnUse">
			<stop  offset="0" style="stop-color:#000000"/>
			<stop  offset="0.1455" style="stop-color:#1C1C1C"/>
			<stop  offset="0.218" style="stop-color:#454545"/>
			<stop  offset="0.3173" style="stop-color:#767676"/>
			<stop  offset="0.4194" style="stop-color:#A0A0A0"/>
			<stop  offset="0.5224" style="stop-color:#C2C2C2"/>
			<stop  offset="0.6266" style="stop-color:#DDDDDD"/>
			<stop  offset="0.7326" style="stop-color:#F0F0F0"/>
			<stop  offset="0.8415" style="stop-color:#FBFBFB"/>
			<stop  offset="0.9576" style="stop-color:#FFFFFF"/>
		</radialGradient>
		
			<path style="opacity:0.33;fill-rule:evenodd;clip-rule:evenodd;fill:url(#SVGID_00000100358684977291696330000000767284063493910970_);" d="
			M132.798,91.689c0,2.457-27.112,4.449-60.557,4.449s-60.557-1.992-60.557-4.449c0-2.457,27.112-4.449,60.557-4.449
			S132.798,89.232,132.798,91.689z"/>
	</g>
</g>
</svg>
